{"glyphs":{"0":{"ha":890,"x_min":83,"x_max":807,"o":"m 444 -19 q 181 78 279 -19 q 83 372 83 176 l 83 600 q 181 893 83 794 q 444 992 279 992 q 709 893 611 992 q 807 600 807 794 l 807 372 q 709 78 807 176 q 444 -19 611 -19 m 444 82 q 632 157 569 82 q 694 367 694 232 l 694 607 q 631 816 694 742 q 444 890 567 890 q 259 815 322 890 q 196 607 196 740 l 196 367 q 258 156 196 231 q 444 82 321 82 z "},"1":{"ha":581,"x_min":25,"x_max":469,"o":"m 357 0 l 357 897 l 336 897 l 147 551 l 25 551 l 257 972 l 469 972 l 469 0 l 357 0 z "},"2":{"ha":838,"x_min":74,"x_max":769,"o":"m 74 0 l 74 101 q 110 268 74 206 q 213 369 147 331 q 371 435 279 407 l 447 458 q 557 506 510 478 q 631 578 604 535 q 657 686 657 622 l 657 692 q 593 837 657 783 q 429 890 529 890 q 257 834 324 890 q 190 664 190 778 l 190 644 l 79 644 l 79 663 q 125 842 79 768 q 250 953 171 915 q 429 992 329 992 q 606 954 529 992 q 726 850 683 917 q 769 694 769 783 l 769 682 q 732 526 769 588 q 628 425 694 464 q 474 358 563 386 l 399 335 q 281 288 328 313 q 211 226 235 264 q 188 125 188 189 l 188 101 l 761 101 l 761 0 l 74 0 z "},"3":{"ha":839,"x_min":63,"x_max":768,"o":"m 421 -19 q 237 19 318 -19 q 109 132 156 58 q 63 310 63 206 l 63 336 l 175 336 l 175 311 q 243 143 175 204 q 421 82 311 82 q 594 140 532 82 q 656 285 656 197 l 656 296 q 625 399 656 360 q 542 458 594 439 q 428 476 490 476 l 269 476 l 269 617 l 640 854 l 640 871 l 86 871 l 86 972 l 760 972 l 760 815 l 397 582 l 397 565 l 467 565 q 617 535 549 565 q 727 447 686 506 q 768 299 768 388 l 768 283 q 725 124 768 192 q 604 18 682 56 q 421 -19 526 -19 z "},"4":{"ha":868,"x_min":44,"x_max":831,"o":"m 551 0 l 551 199 l 44 199 l 44 332 l 453 972 l 664 972 l 664 300 l 831 300 l 831 199 l 664 199 l 664 0 l 551 0 m 157 300 l 551 300 l 551 904 l 532 904 l 157 317 l 157 300 z "},"5":{"ha":832,"x_min":71,"x_max":765,"o":"m 419 -19 q 235 22 313 -19 q 114 135 157 63 q 71 304 71 208 l 71 321 l 183 321 l 183 308 q 247 140 183 199 q 417 82 311 82 q 590 144 528 82 q 653 315 653 207 l 653 328 q 592 494 653 432 q 436 556 532 556 q 344 538 381 556 q 288 495 308 521 q 253 446 267 469 l 100 446 l 100 972 l 739 972 l 739 871 l 213 871 l 213 535 l 232 535 q 274 589 247 563 q 347 633 301 615 q 461 651 393 651 q 615 613 546 651 q 724 501 683 574 q 765 329 765 429 l 765 314 q 724 140 765 215 q 604 23 682 65 q 419 -19 526 -19 z "},"6":{"ha":850,"x_min":83,"x_max":779,"o":"m 431 -19 q 252 20 331 -19 q 128 133 174 60 q 83 308 83 207 l 83 647 q 126 833 83 757 q 248 951 169 910 q 435 992 326 992 q 617 953 542 992 q 733 849 693 915 q 772 697 772 783 l 658 697 q 603 837 658 783 q 435 890 547 890 q 258 828 321 890 q 196 658 196 767 l 196 524 l 215 524 q 299 601 240 565 q 461 636 357 636 q 621 597 549 636 q 736 488 693 558 q 779 319 779 417 l 779 303 q 734 132 779 204 q 610 20 689 60 q 431 -19 531 -19 m 431 82 q 601 142 536 82 q 667 304 667 201 l 667 315 q 637 435 667 385 q 554 513 607 485 q 431 542 501 542 q 308 513 361 542 q 226 435 256 485 q 196 315 196 385 l 196 304 q 261 142 196 201 q 431 82 326 82 z "},"7":{"ha":783,"x_min":44,"x_max":740,"o":"m 211 0 l 211 35 q 219 117 211 83 q 251 196 228 150 l 622 856 l 622 871 l 44 871 l 44 972 l 740 972 l 740 839 l 353 144 q 330 92 336 115 q 324 32 324 68 l 324 0 l 211 0 z "},"8":{"ha":865,"x_min":64,"x_max":800,"o":"m 432 -19 q 237 15 319 -19 q 109 110 154 49 q 64 256 64 172 l 64 271 q 94 390 64 343 q 169 463 125 438 q 250 496 213 489 l 250 514 q 173 550 213 525 q 108 618 133 575 q 82 724 82 661 l 82 739 q 127 874 82 818 q 251 961 172 931 q 432 992 331 992 q 613 961 535 992 q 737 874 692 931 q 782 739 782 818 l 782 724 q 757 618 782 661 q 693 550 732 575 q 615 514 654 525 l 615 496 q 697 463 654 489 q 770 390 740 438 q 800 271 800 343 l 800 256 q 756 110 800 172 q 628 15 711 49 q 432 -19 546 -19 m 432 82 q 619 128 550 82 q 688 261 688 174 l 688 272 q 619 406 688 360 q 432 451 551 451 q 246 406 314 451 q 178 272 178 360 l 178 261 q 247 128 178 174 q 432 82 315 82 m 432 553 q 606 595 543 553 q 669 715 669 638 l 669 726 q 606 848 669 806 q 432 890 542 890 q 258 848 322 890 q 194 726 194 806 l 194 715 q 258 595 194 638 q 432 553 322 553 z "},"9":{"ha":850,"x_min":71,"x_max":767,"o":"m 415 -19 q 233 19 308 -19 q 118 124 157 57 q 79 275 79 190 l 192 275 q 249 135 192 189 q 415 82 306 82 q 592 144 531 82 q 654 314 654 206 l 654 449 l 636 449 q 552 372 610 407 q 390 336 494 336 q 230 375 303 336 q 114 485 157 414 q 71 653 71 556 l 71 669 q 117 841 71 769 q 241 952 163 913 q 419 992 319 992 q 599 952 521 992 q 722 840 678 913 q 767 664 767 767 l 767 325 q 724 140 767 217 q 603 22 682 63 q 415 -19 524 -19 m 419 431 q 542 459 489 431 q 624 538 594 488 q 654 657 654 589 l 654 668 q 590 831 654 772 q 419 890 525 890 q 249 831 314 890 q 183 668 183 772 l 183 657 q 213 538 183 589 q 297 459 243 488 q 419 431 350 431 z "},"\r":{"ha":833,"x_min":0,"x_max":0,"o":""}," ":{"ha":357,"x_min":0,"x_max":0,"o":""},"A":{"ha":875,"x_min":35,"x_max":840,"o":"m 35 0 l 335 972 l 540 972 l 840 0 l 719 0 l 644 246 l 231 246 l 156 0 l 35 0 m 260 351 l 614 351 l 447 901 l 428 901 l 260 351 z "},"B":{"ha":918,"x_min":65,"x_max":844,"o":"m 65 0 l 65 104 l 201 104 l 201 868 l 65 868 l 65 972 l 553 972 q 703 942 638 972 q 806 856 769 911 q 843 728 843 801 l 843 717 q 817 605 843 649 q 754 537 790 561 q 683 501 718 513 l 683 482 q 756 449 718 474 q 819 381 793 425 q 844 268 844 336 l 844 254 q 806 117 844 175 q 702 30 768 60 q 551 0 636 0 l 65 0 m 318 106 l 539 106 q 679 149 631 106 q 728 265 728 192 l 728 278 q 679 394 728 351 q 539 438 631 438 l 318 438 l 318 106 m 318 543 l 543 543 q 676 585 626 543 q 726 697 726 628 l 726 711 q 677 824 726 782 q 543 867 628 867 l 318 867 l 318 543 z "},"C":{"ha":892,"x_min":83,"x_max":819,"o":"m 463 -19 q 186 81 289 -19 q 83 375 83 182 l 83 597 q 186 891 83 790 q 463 992 289 992 q 727 896 635 992 q 819 633 819 800 l 819 626 l 704 626 l 704 638 q 645 817 704 747 q 463 888 586 888 q 269 812 339 888 q 200 600 200 736 l 200 372 q 269 160 200 236 q 463 85 339 85 q 645 155 586 85 q 704 335 704 225 l 704 357 l 819 357 l 819 339 q 727 76 819 172 q 463 -19 635 -19 z "},"D":{"ha":921,"x_min":65,"x_max":846,"o":"m 65 0 l 65 104 l 201 104 l 201 868 l 65 868 l 65 972 l 444 972 q 741 875 636 972 q 846 576 846 778 l 846 396 q 741 97 846 193 q 444 0 636 0 l 65 0 m 318 106 l 444 106 q 658 175 586 106 q 731 390 731 244 l 731 581 q 658 797 731 729 q 444 865 586 865 l 318 865 l 318 106 z "},"E":{"ha":782,"x_min":111,"x_max":717,"o":"m 111 0 l 111 972 l 710 972 l 710 867 l 228 867 l 228 542 l 671 542 l 671 436 l 228 436 l 228 106 l 717 106 l 717 0 l 111 0 z "},"F":{"ha":750,"x_min":111,"x_max":699,"o":"m 111 0 l 111 972 l 699 972 l 699 867 l 228 867 l 228 540 l 661 540 l 661 435 l 228 435 l 228 0 l 111 0 z "},"G":{"ha":917,"x_min":83,"x_max":815,"o":"m 450 -19 q 259 26 342 -19 q 130 158 176 71 q 83 375 83 246 l 83 597 q 186 891 83 790 q 463 992 289 992 q 725 897 635 992 q 815 644 815 803 l 815 638 l 700 638 l 700 647 q 675 771 700 717 q 597 856 650 825 q 463 888 544 888 q 269 812 339 888 q 200 600 200 736 l 200 372 q 269 160 200 236 q 464 85 339 85 q 644 154 586 85 q 701 339 701 224 l 701 363 l 407 363 l 407 463 l 815 463 l 815 0 l 710 0 l 710 106 l 690 106 q 647 46 675 75 q 572 -1 619 17 q 450 -19 525 -19 z "},"H":{"ha":911,"x_min":111,"x_max":800,"o":"m 111 0 l 111 972 l 228 972 l 228 540 l 683 540 l 683 972 l 800 972 l 800 0 l 683 0 l 683 435 l 228 435 l 228 0 l 111 0 z "},"I":{"ha":339,"x_min":111,"x_max":228,"o":"m 111 0 l 111 972 l 228 972 l 228 0 l 111 0 z "},"J":{"ha":825,"x_min":57,"x_max":764,"o":"m 365 -19 q 140 61 222 -19 q 57 292 57 142 l 57 367 l 172 367 l 172 292 q 220 144 172 201 q 364 88 268 88 q 501 144 461 88 q 542 292 542 200 l 542 867 l 371 867 l 371 972 l 764 972 l 764 867 l 658 867 l 658 292 q 583 60 658 140 q 365 -19 508 -19 z "},"K":{"ha":847,"x_min":111,"x_max":831,"o":"m 111 0 l 111 972 l 228 972 l 228 549 l 247 549 l 658 972 l 814 972 l 340 492 l 831 0 l 671 0 l 247 432 l 228 432 l 228 0 l 111 0 z "},"L":{"ha":758,"x_min":111,"x_max":719,"o":"m 111 0 l 111 972 l 228 972 l 228 106 l 719 106 l 719 0 l 111 0 z "},"M":{"ha":1201,"x_min":111,"x_max":1090,"o":"m 111 0 l 111 972 l 333 972 l 592 74 l 610 74 l 868 972 l 1090 972 l 1090 0 l 978 0 l 978 896 l 958 896 l 701 0 l 500 0 l 243 896 l 224 896 l 224 0 l 111 0 z "},"N":{"ha":922,"x_min":111,"x_max":810,"o":"m 111 0 l 111 972 l 338 972 l 676 74 l 694 74 l 694 972 l 810 972 l 810 0 l 583 0 l 246 900 l 226 900 l 226 0 l 111 0 z "},"O":{"ha":929,"x_min":83,"x_max":846,"o":"m 464 -19 q 187 81 290 -19 q 83 375 83 182 l 83 597 q 187 891 83 790 q 464 992 290 992 q 742 891 639 992 q 846 597 846 790 l 846 375 q 742 81 846 182 q 464 -19 639 -19 m 464 85 q 660 160 590 85 q 729 371 729 236 l 729 601 q 660 812 729 736 q 464 888 590 888 q 269 812 339 888 q 200 601 200 736 l 200 371 q 269 160 200 236 q 464 85 339 85 z "},"P":{"ha":835,"x_min":111,"x_max":789,"o":"m 111 0 l 111 972 l 483 972 q 640 938 571 972 q 749 842 708 904 q 789 690 789 779 l 789 672 q 748 522 789 585 q 638 425 707 458 q 483 392 568 392 l 228 392 l 228 0 l 111 0 m 228 497 l 471 497 q 618 544 564 497 q 672 675 672 590 l 672 689 q 619 820 672 774 q 471 867 565 867 l 228 867 l 228 497 z "},"Q":{"ha":929,"x_min":83,"x_max":846,"o":"m 464 -19 q 187 81 290 -19 q 83 375 83 182 l 83 597 q 187 891 83 790 q 464 992 290 992 q 742 891 639 992 q 846 597 846 790 l 846 375 q 742 81 846 182 q 464 -19 639 -19 m 464 85 q 660 160 590 85 q 729 371 729 236 l 729 601 q 660 812 729 736 q 464 888 590 888 q 269 812 339 888 q 200 601 200 736 l 200 371 q 269 160 200 236 q 464 85 339 85 m 521 -225 q 438 -194 469 -225 q 407 -108 407 -162 l 407 0 l 521 0 l 521 -87 q 560 -129 521 -129 l 651 -129 l 651 -225 l 521 -225 z "},"R":{"ha":876,"x_min":111,"x_max":810,"o":"m 111 0 l 111 972 l 504 972 q 663 941 594 972 q 771 852 732 910 q 810 714 810 794 l 810 699 q 764 547 810 603 q 656 472 718 492 l 656 453 q 738 420 706 451 q 771 326 771 389 l 771 0 l 656 0 l 656 313 q 633 376 656 354 q 564 399 610 399 l 228 399 l 228 0 l 111 0 m 228 504 l 493 504 q 641 551 589 504 q 693 681 693 597 l 693 690 q 642 820 693 774 q 493 867 590 867 l 228 867 l 228 504 z "},"S":{"ha":851,"x_min":67,"x_max":783,"o":"m 435 -19 q 246 18 329 -19 q 115 131 163 56 q 67 321 67 207 l 67 350 l 182 350 l 182 321 q 253 141 182 200 q 435 82 324 82 q 608 133 549 82 q 668 263 668 185 q 641 349 668 317 q 565 401 614 381 q 451 436 517 421 l 379 454 q 229 508 294 476 q 127 592 164 540 q 90 726 90 644 q 131 868 90 808 q 247 960 172 928 q 418 992 321 992 q 595 958 517 992 q 719 858 674 924 q 764 692 764 792 l 764 633 l 649 633 l 649 692 q 619 806 649 763 q 537 869 589 849 q 418 890 485 890 q 264 848 322 890 q 206 728 206 806 q 231 644 206 676 q 301 592 256 613 q 411 557 347 572 l 483 539 q 635 490 568 521 q 743 405 703 458 q 783 265 783 351 q 740 115 783 179 q 619 16 697 51 q 435 -19 540 -19 z "},"T":{"ha":817,"x_min":38,"x_max":779,"o":"m 350 0 l 350 867 l 38 867 l 38 972 l 779 972 l 779 867 l 467 867 l 467 0 l 350 0 z "},"U":{"ha":925,"x_min":104,"x_max":822,"o":"m 463 -19 q 274 19 354 -19 q 149 135 193 58 q 104 325 104 213 l 104 972 l 219 972 l 219 324 q 283 144 219 204 q 463 85 347 85 q 642 144 578 85 q 706 324 706 204 l 706 972 l 822 972 l 822 325 q 778 135 822 213 q 652 19 733 58 q 463 -19 571 -19 z "},"V":{"ha":860,"x_min":35,"x_max":825,"o":"m 328 0 l 35 972 l 156 972 l 421 71 l 439 71 l 704 972 l 825 972 l 532 0 l 328 0 z "},"W":{"ha":1215,"x_min":51,"x_max":1164,"o":"m 210 0 l 51 972 l 168 972 l 306 75 l 325 75 l 504 972 l 713 972 l 890 75 l 910 75 l 1047 972 l 1164 972 l 1006 0 l 797 0 l 618 903 l 599 903 l 419 0 l 210 0 z "},"X":{"ha":886,"x_min":44,"x_max":842,"o":"m 44 0 l 358 490 l 49 972 l 186 972 l 433 571 l 451 571 l 700 972 l 836 972 l 528 490 l 842 0 l 706 0 l 451 410 l 433 410 l 181 0 l 44 0 z "},"Y":{"ha":847,"x_min":19,"x_max":828,"o":"m 365 0 l 365 371 l 19 972 l 153 972 l 414 506 l 433 506 l 694 972 l 828 972 l 482 371 l 482 0 l 365 0 z "},"Z":{"ha":801,"x_min":69,"x_max":738,"o":"m 69 0 l 69 154 l 611 851 l 611 868 l 86 868 l 86 972 l 726 972 l 726 818 l 185 121 l 185 104 l 738 104 l 738 0 l 69 0 z "},"a":{"ha":799,"x_min":69,"x_max":764,"o":"m 324 -19 q 194 6 253 -19 q 103 78 136 31 q 69 193 69 125 q 103 308 69 263 q 194 376 136 353 q 325 399 253 399 l 554 399 l 554 449 q 512 563 554 521 q 386 604 469 604 q 258 565 304 604 q 196 458 213 525 l 93 492 q 146 595 110 549 q 242 670 182 642 q 388 699 303 699 q 590 631 518 699 q 663 442 663 564 l 663 135 q 701 93 663 93 l 764 93 l 764 0 l 668 0 q 594 26 622 0 q 567 94 567 51 l 567 101 l 550 101 q 509 47 535 75 q 439 -1 483 18 q 324 -19 394 -19 m 336 75 q 494 133 433 75 q 554 294 554 190 l 554 310 l 329 310 q 222 281 264 310 q 179 196 179 253 q 223 107 179 139 q 336 75 267 75 z "},"b":{"ha":894,"x_min":115,"x_max":813,"o":"m 492 -19 q 327 21 386 -19 q 242 113 268 61 l 222 113 l 222 0 l 115 0 l 115 972 l 225 972 l 225 572 l 244 572 q 292 633 261 604 q 372 680 322 661 q 492 699 421 699 q 653 656 581 699 q 769 535 726 614 q 813 349 813 457 l 813 331 q 769 143 813 222 q 652 22 725 64 q 492 -19 579 -19 m 463 78 q 634 145 568 78 q 700 333 700 213 l 700 346 q 634 534 700 467 q 463 601 568 601 q 291 534 358 601 q 224 346 224 467 l 224 333 q 291 145 224 213 q 463 78 358 78 z "},"c":{"ha":831,"x_min":82,"x_max":758,"o":"m 428 -19 q 251 23 329 -19 q 127 144 172 65 q 82 332 82 224 l 82 347 q 127 535 82 457 q 251 656 172 614 q 428 699 329 699 q 594 663 525 699 q 702 567 663 626 q 753 439 742 507 l 646 417 q 613 508 639 467 q 542 575 588 550 q 429 600 496 600 q 308 569 361 600 q 223 482 254 539 q 192 346 192 425 l 192 333 q 223 197 192 254 q 308 110 254 140 q 429 79 361 79 q 584 132 531 79 q 650 263 638 185 l 758 239 q 703 113 743 172 q 594 17 663 53 q 428 -19 525 -19 z "},"d":{"ha":894,"x_min":82,"x_max":779,"o":"m 403 -19 q 242 22 315 -19 q 125 143 168 64 q 82 331 82 222 l 82 349 q 125 535 82 457 q 241 656 168 614 q 403 699 314 699 q 523 680 474 699 q 603 633 572 661 q 650 572 633 604 l 669 572 l 669 972 l 779 972 l 779 0 l 672 0 l 672 113 l 653 113 q 567 21 625 61 q 403 -19 508 -19 m 432 78 q 603 145 538 78 q 669 333 669 213 l 669 346 q 603 534 669 467 q 432 601 538 601 q 260 534 328 601 q 193 346 193 467 l 193 333 q 260 145 193 213 q 432 78 328 78 z "},"e":{"ha":822,"x_min":82,"x_max":746,"o":"m 426 -19 q 246 24 324 -19 q 125 147 168 68 q 82 331 82 226 l 82 347 q 125 532 82 453 q 244 655 168 611 q 419 699 321 699 q 589 658 515 699 q 704 540 663 617 q 746 361 746 464 l 746 311 l 192 311 q 263 140 196 201 q 429 78 329 78 q 564 118 517 78 q 636 214 611 158 l 731 168 q 673 82 710 125 q 577 10 636 39 q 426 -19 518 -19 m 193 401 l 635 401 q 570 549 629 496 q 419 601 511 601 q 267 549 326 601 q 193 401 207 496 z "},"f":{"ha":614,"x_min":40,"x_max":572,"o":"m 249 0 l 249 583 l 40 583 l 40 679 l 249 679 l 249 853 q 280 940 249 908 q 369 972 311 972 l 540 972 l 540 878 l 400 878 q 358 836 358 878 l 358 679 l 572 679 l 572 583 l 358 583 l 358 0 l 249 0 z "},"g":{"ha":892,"x_min":82,"x_max":776,"o":"m 82 336 l 82 356 q 125 539 82 463 q 242 657 168 615 q 403 699 315 699 q 567 658 510 699 q 653 567 625 617 l 672 567 l 672 679 l 776 679 l 776 -158 q 746 -246 776 -214 q 657 -278 715 -278 l 196 -278 l 196 -181 l 628 -181 q 669 -139 669 -181 l 669 119 l 650 119 q 603 60 633 89 q 524 12 572 31 q 403 -7 475 -7 q 242 35 315 -7 q 125 153 168 76 q 82 336 82 231 m 432 90 q 603 157 538 90 q 669 340 669 224 l 669 351 q 603 535 669 469 q 432 601 538 601 q 260 535 328 601 q 193 351 193 469 l 193 340 q 260 157 193 224 q 432 90 328 90 z "},"h":{"ha":851,"x_min":115,"x_max":744,"o":"m 115 0 l 115 972 l 225 972 l 225 571 l 244 571 q 287 628 258 601 q 360 674 315 656 q 475 692 406 692 q 612 659 551 692 q 708 565 672 626 q 744 411 744 503 l 744 0 l 635 0 l 635 403 q 584 550 635 504 q 447 596 533 596 q 287 532 349 596 q 225 342 225 468 l 225 0 l 115 0 z "},"i":{"ha":340,"x_min":86,"x_max":254,"o":"m 115 0 l 115 679 l 225 679 l 225 0 l 115 0 m 171 785 q 110 808 135 785 q 86 868 86 832 q 110 929 86 906 q 171 953 135 953 q 231 929 207 953 q 254 868 254 906 q 231 808 254 832 q 171 785 207 785 z "},"j":{"ha":343,"x_min":-18,"x_max":257,"o":"m -18 -278 l -18 -181 l 76 -181 q 118 -139 118 -181 l 118 679 l 228 679 l 228 -158 q 197 -246 228 -214 q 107 -278 165 -278 l -18 -278 m 174 785 q 113 808 138 785 q 89 868 89 832 q 113 929 89 906 q 174 953 138 953 q 233 929 210 953 q 257 868 257 906 q 233 808 257 832 q 174 785 210 785 z "},"k":{"ha":747,"x_min":115,"x_max":719,"o":"m 115 0 l 115 972 l 225 972 l 225 400 l 244 400 l 556 679 l 708 679 l 332 349 l 719 0 l 568 0 l 244 296 l 225 296 l 225 0 l 115 0 z "},"l":{"ha":340,"x_min":115,"x_max":225,"o":"m 115 0 l 115 972 l 225 972 l 225 0 l 115 0 z "},"m":{"ha":1194,"x_min":115,"x_max":1086,"o":"m 115 0 l 115 679 l 222 679 l 222 594 l 242 594 q 306 661 261 631 q 431 692 350 692 q 559 657 510 692 q 631 572 608 622 l 650 572 q 722 657 674 622 q 856 692 769 692 q 975 664 924 692 q 1056 584 1026 636 q 1086 460 1086 532 l 1086 0 l 976 0 l 976 450 q 937 558 976 518 q 826 597 897 597 q 703 549 751 597 q 656 408 656 500 l 656 0 l 546 0 l 546 450 q 506 558 546 518 q 396 597 467 597 q 273 549 321 597 q 225 408 225 500 l 225 0 l 115 0 z "},"n":{"ha":851,"x_min":115,"x_max":744,"o":"m 115 0 l 115 679 l 222 679 l 222 564 l 242 564 q 317 652 264 613 q 475 692 371 692 q 612 660 551 692 q 708 565 672 628 q 744 411 744 503 l 744 0 l 635 0 l 635 403 q 584 550 635 504 q 447 596 533 596 q 287 532 349 596 q 225 342 225 468 l 225 0 l 115 0 z "},"o":{"ha":858,"x_min":82,"x_max":776,"o":"m 429 -19 q 248 24 326 -19 q 126 145 169 67 q 82 331 82 224 l 82 349 q 126 533 82 454 q 248 656 169 613 q 429 699 326 699 q 610 656 532 699 q 733 533 689 613 q 776 349 776 454 l 776 331 q 733 145 776 224 q 610 24 689 67 q 429 -19 532 -19 m 429 79 q 602 148 538 79 q 667 333 667 217 l 667 346 q 602 531 667 463 q 429 600 538 600 q 257 531 322 600 q 192 346 192 463 l 192 333 q 257 148 192 217 q 429 79 322 79 z "},"p":{"ha":894,"x_min":115,"x_max":813,"o":"m 115 -278 l 115 679 l 222 679 l 222 567 l 242 567 q 327 658 268 618 q 492 699 386 699 q 652 656 579 699 q 769 536 725 614 q 813 349 813 458 l 813 331 q 769 143 813 222 q 653 22 726 64 q 492 -19 581 -19 q 372 -1 421 -19 q 292 47 322 18 q 244 107 261 76 l 225 107 l 225 -278 l 115 -278 m 463 78 q 634 145 568 78 q 700 333 700 213 l 700 346 q 634 534 700 467 q 463 601 568 601 q 291 534 358 601 q 224 346 224 467 l 224 333 q 291 145 224 213 q 463 78 358 78 z "},"q":{"ha":894,"x_min":82,"x_max":779,"o":"m 669 -278 l 669 107 l 650 107 q 603 47 633 76 q 523 -1 572 18 q 403 -19 474 -19 q 241 22 314 -19 q 125 143 168 64 q 82 331 82 222 l 82 349 q 125 536 82 458 q 242 656 168 614 q 403 699 315 699 q 567 658 508 699 q 653 567 625 618 l 672 567 l 672 679 l 779 679 l 779 -278 l 669 -278 m 432 78 q 603 145 538 78 q 669 333 669 213 l 669 346 q 603 534 669 467 q 432 601 538 601 q 260 534 328 601 q 193 346 193 467 l 193 333 q 260 145 193 213 q 432 78 328 78 z "},"r":{"ha":524,"x_min":115,"x_max":476,"o":"m 115 0 l 115 679 l 222 679 l 222 596 l 242 596 q 297 661 260 640 q 396 682 335 682 l 476 682 l 476 582 l 389 582 q 270 541 315 582 q 225 414 225 500 l 225 0 l 115 0 z "},"s":{"ha":732,"x_min":71,"x_max":663,"o":"m 389 -19 q 176 39 263 -19 q 71 224 89 97 l 175 247 q 217 142 186 181 q 292 88 247 104 q 389 72 338 72 q 510 103 465 72 q 554 185 554 133 q 512 259 554 238 q 396 294 469 281 l 339 304 q 219 339 274 315 q 133 403 165 363 q 101 504 101 443 q 172 647 101 596 q 360 699 243 699 q 547 647 475 699 q 639 500 618 594 l 536 474 q 476 577 524 547 q 360 607 429 607 q 250 581 290 607 q 210 506 210 556 q 248 434 210 457 q 350 400 286 411 l 407 390 q 537 356 479 378 q 628 294 594 335 q 663 189 663 254 q 588 35 663 89 q 389 -19 514 -19 z "},"t":{"ha":639,"x_min":40,"x_max":576,"o":"m 365 0 q 276 32 307 0 q 244 119 244 64 l 244 583 l 40 583 l 40 679 l 244 679 l 244 921 l 354 921 l 354 679 l 576 679 l 576 583 l 354 583 l 354 136 q 394 94 354 94 l 546 94 l 546 0 l 365 0 z "},"u":{"ha":850,"x_min":107,"x_max":736,"o":"m 375 -12 q 240 19 301 -12 q 142 115 178 51 q 107 268 107 178 l 107 679 l 217 679 l 217 276 q 267 129 217 175 q 404 83 318 83 q 564 147 501 83 q 626 338 626 211 l 626 679 l 736 679 l 736 0 l 629 0 l 629 115 l 610 115 q 533 27 588 67 q 375 -12 479 -12 z "},"v":{"ha":749,"x_min":44,"x_max":706,"o":"m 288 0 l 44 679 l 161 679 l 365 82 l 385 82 l 589 679 l 706 679 l 463 0 l 288 0 z "},"w":{"ha":1113,"x_min":74,"x_max":1039,"o":"m 210 0 l 74 679 l 185 679 l 297 74 l 317 74 l 465 679 l 647 679 l 796 74 l 815 74 l 928 679 l 1039 679 l 903 0 l 715 0 l 565 606 l 547 606 l 397 0 l 210 0 z "},"x":{"ha":824,"x_min":60,"x_max":764,"o":"m 60 0 l 332 344 l 68 679 l 200 679 l 403 417 l 422 417 l 624 679 l 757 679 l 492 344 l 764 0 l 631 0 l 422 271 l 403 271 l 194 0 l 60 0 z "},"y":{"ha":850,"x_min":107,"x_max":736,"o":"m 197 -278 l 197 -181 l 586 -181 q 626 -139 626 -181 l 626 108 l 607 108 q 565 51 593 79 q 490 5 536 22 q 375 -12 444 -12 q 240 19 301 -12 q 142 114 178 51 q 107 267 107 176 l 107 679 l 217 679 l 217 275 q 267 129 217 175 q 404 83 318 83 q 564 147 501 83 q 626 338 626 211 l 626 679 l 736 679 l 736 -158 q 705 -246 736 -214 q 614 -278 674 -278 l 197 -278 z "},"z":{"ha":724,"x_min":85,"x_max":643,"o":"m 85 0 l 85 142 l 517 568 l 517 583 l 99 583 l 99 679 l 632 679 l 632 538 l 199 111 l 199 94 l 643 94 l 643 0 l 85 0 z "},"[":{"ha":465,"x_min":115,"x_max":439,"o":"m 224 -326 q 145 -295 175 -326 q 115 -217 115 -264 l 115 925 q 145 1003 115 972 q 224 1035 175 1035 l 439 1035 l 439 939 l 258 939 q 221 897 221 939 l 221 -189 q 258 -231 221 -231 l 439 -231 l 439 -326 l 224 -326 z "},"]":{"ha":465,"x_min":26,"x_max":350,"o":"m 26 -326 l 26 -231 l 207 -231 q 244 -189 244 -231 l 244 897 q 207 939 244 939 l 26 939 l 26 1035 l 243 1035 q 320 1003 290 1035 q 350 925 350 972 l 350 -217 q 320 -295 350 -264 q 243 -326 290 -326 l 26 -326 z "},"{":{"ha":600,"x_min":54,"x_max":574,"o":"m 357 -326 q 280 -295 311 -326 q 249 -217 249 -264 l 249 232 q 174 301 249 301 l 54 301 l 54 407 l 174 407 q 249 476 249 407 l 249 925 q 280 1003 249 972 q 357 1035 311 1035 l 574 1035 l 574 939 l 393 939 q 356 897 356 939 l 356 475 q 328 394 356 425 q 253 364 301 364 l 243 364 l 243 344 l 253 344 q 328 314 301 344 q 356 233 356 283 l 356 -189 q 393 -231 356 -231 l 574 -231 l 574 -326 l 357 -326 z "},"}":{"ha":600,"x_min":26,"x_max":546,"o":"m 26 -326 l 26 -231 l 207 -231 q 244 -189 244 -231 l 244 233 q 272 314 244 283 q 347 344 299 344 l 357 344 l 357 364 l 347 364 q 272 394 299 364 q 244 475 244 425 l 244 897 q 207 939 244 939 l 26 939 l 26 1035 l 243 1035 q 319 1003 289 1035 q 350 925 350 972 l 350 476 q 425 407 350 407 l 546 407 l 546 301 l 425 301 q 350 232 350 301 l 350 -217 q 319 -295 350 -264 q 243 -326 289 -326 l 26 -326 z "},"(":{"ha":526,"x_min":83,"x_max":513,"o":"m 513 -326 q 283 -279 379 -326 q 135 -131 186 -232 q 83 129 83 -31 l 83 579 q 135 840 83 740 q 283 988 186 940 q 513 1035 379 1035 l 513 939 q 268 848 347 938 q 189 572 189 758 l 189 136 q 268 -139 189 -49 q 513 -231 347 -229 l 513 -326 z "},")":{"ha":524,"x_min":10,"x_max":440,"o":"m 10 -326 l 10 -231 q 256 -139 178 -229 q 333 136 333 -49 l 333 572 q 256 848 333 758 q 10 939 178 938 l 10 1035 q 240 988 144 1035 q 388 840 336 940 q 440 579 440 740 l 440 129 q 388 -131 440 -31 q 240 -279 336 -232 q 10 -326 144 -326 z "},"/":{"ha":514,"x_min":0,"x_max":518,"o":"m 0 -278 l 408 972 l 518 972 l 110 -278 l 0 -278 z "},"|":{"ha":333,"x_min":111,"x_max":221,"o":"m 111 -342 l 111 1119 l 221 1119 l 221 -342 l 111 -342 z "},"¦":{"ha":333,"x_min":111,"x_max":221,"o":"m 111 508 l 111 1119 l 221 1119 l 221 508 l 111 508 m 111 -342 l 111 269 l 221 269 l 221 -342 l 111 -342 z "},"\\":{"ha":514,"x_min":-4,"x_max":515,"o":"m 404 -278 l -4 972 l 107 972 l 515 -278 l 404 -278 z "},"'":{"ha":349,"x_min":81,"x_max":268,"o":"m 104 650 l 104 719 l 144 719 q 194 769 194 719 l 194 814 l 175 814 q 108 839 135 814 q 81 901 81 864 q 108 967 81 942 q 175 992 135 992 q 242 965 215 992 q 268 899 268 939 l 268 769 q 149 650 268 650 l 104 650 z "},"\"":{"ha":590,"x_min":81,"x_max":508,"o":"m 104 650 l 104 719 l 144 719 q 194 769 194 719 l 194 814 l 175 814 q 108 839 135 814 q 81 901 81 864 q 108 967 81 942 q 175 992 135 992 q 242 965 215 992 q 268 899 268 939 l 268 769 q 149 650 268 650 l 104 650 m 344 650 l 344 719 l 385 719 q 435 769 435 719 l 435 814 l 415 814 q 348 839 375 814 q 321 901 321 864 q 348 967 321 942 q 415 992 375 992 q 482 965 456 992 q 508 899 508 939 l 508 769 q 389 650 508 650 l 344 650 z "},"‘":{"ha":349,"x_min":81,"x_max":268,"o":"m 244 992 l 244 922 l 204 922 q 154 872 154 922 l 154 828 l 174 828 q 241 803 214 828 q 268 740 268 778 q 241 675 268 700 q 174 650 214 650 q 107 676 133 650 q 81 743 81 703 l 81 872 q 200 992 81 992 l 244 992 z "},"’":{"ha":349,"x_min":81,"x_max":268,"o":"m 104 650 l 104 719 l 144 719 q 194 769 194 719 l 194 814 l 175 814 q 108 839 135 814 q 81 901 81 864 q 108 967 81 942 q 175 992 135 992 q 242 965 215 992 q 268 899 268 939 l 268 769 q 149 650 268 650 l 104 650 z "},"“":{"ha":590,"x_min":81,"x_max":508,"o":"m 486 992 l 486 922 l 446 922 q 396 872 396 922 l 396 828 l 415 828 q 483 803 456 828 q 510 740 510 778 q 483 675 510 700 q 415 650 456 650 q 349 676 375 650 q 322 743 322 703 l 322 872 q 442 992 322 992 l 486 992 m 244 992 l 244 922 l 204 922 q 154 872 154 922 l 154 828 l 174 828 q 241 803 214 828 q 268 740 268 778 q 241 675 268 700 q 174 650 214 650 q 107 676 133 650 q 81 743 81 703 l 81 872 q 200 992 81 992 l 244 992 z "},"”":{"ha":590,"x_min":81,"x_max":508,"o":"m 104 650 l 104 719 l 144 719 q 194 769 194 719 l 194 814 l 175 814 q 108 839 135 814 q 81 901 81 864 q 108 967 81 942 q 175 992 135 992 q 242 965 215 992 q 268 899 268 939 l 268 769 q 149 650 268 650 l 104 650 m 344 650 l 344 719 l 385 719 q 435 769 435 719 l 435 814 l 415 814 q 348 839 375 814 q 321 901 321 864 q 348 967 321 942 q 415 992 375 992 q 482 965 456 992 q 508 899 508 939 l 508 769 q 389 650 508 650 l 344 650 z "},"‚":{"ha":349,"x_min":81,"x_max":268,"o":"m 104 -174 l 104 -104 l 144 -104 q 194 -54 194 -104 l 194 -10 l 175 -10 q 108 15 135 -10 q 81 78 81 40 q 108 143 81 118 q 175 168 135 168 q 242 142 215 168 q 268 75 268 115 l 268 -54 q 149 -174 268 -174 l 104 -174 z "},"„":{"ha":590,"x_min":81,"x_max":508,"o":"m 104 -174 l 104 -104 l 144 -104 q 194 -54 194 -104 l 194 -10 l 175 -10 q 108 15 135 -10 q 81 78 81 40 q 108 143 81 118 q 175 168 135 168 q 242 142 215 168 q 268 75 268 115 l 268 -54 q 149 -174 268 -174 l 104 -174 m 344 -174 l 344 -104 l 385 -104 q 435 -54 435 -104 l 435 -10 l 415 -10 q 348 15 375 -10 q 321 78 321 40 q 348 143 321 118 q 415 168 375 168 q 482 142 456 168 q 508 75 508 115 l 508 -54 q 389 -174 508 -174 l 344 -174 z "},".":{"ha":351,"x_min":81,"x_max":269,"o":"m 175 -19 q 108 7 135 -19 q 81 75 81 33 q 108 143 81 117 q 175 169 135 169 q 243 143 217 169 q 269 75 269 117 q 243 7 269 33 q 175 -19 217 -19 z "},",":{"ha":349,"x_min":81,"x_max":268,"o":"m 104 -174 l 104 -104 l 144 -104 q 194 -54 194 -104 l 194 -10 l 175 -10 q 108 15 135 -10 q 81 78 81 40 q 108 143 81 118 q 175 168 135 168 q 242 142 215 168 q 268 75 268 115 l 268 -54 q 149 -174 268 -174 l 104 -174 z "},":":{"ha":351,"x_min":81,"x_max":269,"o":"m 175 -19 q 108 7 135 -19 q 81 75 81 33 q 108 143 81 117 q 175 169 135 169 q 243 143 217 169 q 269 75 269 117 q 243 7 269 33 q 175 -19 217 -19 m 175 510 q 108 536 135 510 q 81 604 81 563 q 108 672 81 646 q 175 699 135 699 q 243 672 217 699 q 269 604 269 646 q 243 536 269 563 q 175 510 217 510 z "},";":{"ha":351,"x_min":81,"x_max":269,"o":"m 175 510 q 108 536 135 510 q 81 604 81 563 q 108 672 81 646 q 175 699 135 699 q 243 672 217 699 q 269 604 269 646 q 243 536 269 563 q 175 510 217 510 m 106 -174 l 106 -104 l 146 -104 q 196 -54 196 -104 l 196 -10 l 176 -10 q 109 15 136 -10 q 82 78 82 40 q 109 143 82 118 q 176 168 136 168 q 243 142 217 168 q 269 75 269 115 l 269 -54 q 150 -174 269 -174 l 106 -174 z "},"…":{"ha":943,"x_min":81,"x_max":861,"o":"m 175 -19 q 108 7 135 -19 q 81 75 81 33 q 108 143 81 117 q 175 169 135 169 q 243 143 217 169 q 269 75 269 117 q 243 7 269 33 q 175 -19 217 -19 m 471 -19 q 403 7 431 -19 q 376 75 376 33 q 403 143 376 117 q 471 169 431 169 q 539 143 513 169 q 565 75 565 117 q 539 7 565 33 q 471 -19 513 -19 m 767 -19 q 699 7 726 -19 q 672 75 672 33 q 699 143 672 117 q 767 169 726 169 q 835 143 808 169 q 861 75 861 117 q 835 7 861 33 q 767 -19 808 -19 z "},"!":{"ha":351,"x_min":81,"x_max":269,"o":"m 119 260 l 119 972 l 232 972 l 232 260 l 119 260 m 175 -19 q 108 7 135 -19 q 81 75 81 33 q 108 143 81 117 q 175 169 135 169 q 243 143 217 169 q 269 75 269 117 q 243 7 269 33 q 175 -19 217 -19 z "},"¡":{"ha":351,"x_min":81,"x_max":269,"o":"m 119 -278 l 119 419 l 232 419 l 232 -278 l 119 -278 m 175 699 q 243 672 217 699 q 269 604 269 646 q 243 536 269 563 q 175 510 217 510 q 108 536 135 510 q 81 604 81 563 q 108 672 81 646 q 175 699 135 699 z "},"?":{"ha":806,"x_min":60,"x_max":742,"o":"m 329 260 l 329 344 q 353 445 329 408 q 436 508 376 482 l 475 525 q 588 598 547 556 q 628 717 628 640 q 599 813 628 774 q 519 872 569 851 q 407 893 469 893 q 291 872 344 893 q 205 806 238 850 q 172 696 172 763 l 172 647 l 60 647 l 60 696 q 105 858 60 792 q 228 958 150 924 q 407 992 307 992 q 581 956 506 992 q 699 859 657 921 q 742 717 742 797 q 712 585 742 638 q 635 499 682 533 q 531 440 588 465 l 493 424 q 456 394 467 413 q 444 343 444 376 l 444 260 l 329 260 m 389 -19 q 321 7 347 -19 q 294 75 294 33 q 321 143 294 117 q 389 169 347 169 q 456 143 429 169 q 483 75 483 117 q 456 7 483 33 q 389 -19 429 -19 z "},"¿":{"ha":806,"x_min":64,"x_max":747,"o":"m 399 -299 q 224 -263 300 -299 q 106 -165 149 -228 q 64 -24 64 -103 q 94 106 64 54 q 172 193 124 158 q 275 253 219 228 l 314 269 q 351 299 340 281 q 361 350 361 317 l 361 419 l 476 419 l 476 349 q 453 248 476 285 q 369 185 431 211 l 331 167 q 219 95 260 136 q 178 -24 178 54 q 207 -119 178 -79 q 287 -181 236 -160 q 399 -201 338 -201 q 515 -180 463 -201 q 601 -114 568 -158 q 633 -4 633 -69 l 633 46 l 747 46 l 747 -4 q 701 -164 747 -97 q 577 -265 656 -231 q 399 -299 499 -299 m 417 699 q 484 672 457 699 q 511 604 511 646 q 484 536 511 563 q 417 510 457 510 q 349 536 375 510 q 322 604 322 563 q 349 672 322 646 q 417 699 375 699 z "},"‹":{"ha":642,"x_min":72,"x_max":544,"o":"m 536 31 l 72 278 l 72 408 l 536 657 l 544 657 l 544 540 l 181 351 l 181 335 l 544 146 l 544 31 l 536 31 z "},"›":{"ha":642,"x_min":96,"x_max":569,"o":"m 96 31 l 96 146 l 461 335 l 461 351 l 96 540 l 96 657 l 104 657 l 569 408 l 569 278 l 104 31 l 96 31 z "},"-":{"ha":632,"x_min":110,"x_max":521,"o":"m 110 307 l 110 408 l 521 408 l 521 307 l 110 307 z "},"–":{"ha":843,"x_min":110,"x_max":732,"o":"m 110 307 l 110 408 l 732 408 l 732 307 l 110 307 z "},"—":{"ha":1265,"x_min":110,"x_max":1154,"o":"m 110 307 l 110 408 l 1154 408 l 1154 307 l 110 307 z "},"·":{"ha":260,"x_min":35,"x_max":224,"o":"m 129 304 q 62 331 89 304 q 35 399 35 357 q 62 467 35 440 q 129 493 89 493 q 197 467 171 493 q 224 399 224 440 q 197 331 224 357 q 129 304 171 304 z "},"•":{"ha":500,"x_min":83,"x_max":417,"o":"m 250 193 q 166 215 204 193 q 106 274 128 236 q 83 357 83 311 q 106 442 83 404 q 165 501 128 479 q 250 522 203 522 q 335 501 297 522 q 395 442 374 479 q 417 357 417 404 q 394 272 417 310 q 334 214 372 235 q 250 193 296 193 z "},"_":{"ha":861,"x_min":107,"x_max":754,"o":"m 107 -169 l 107 -68 l 754 -68 l 754 -169 l 107 -169 z "},"@":{"ha":1425,"x_min":107,"x_max":1324,"o":"m 739 -278 q 410 -206 553 -278 q 188 3 268 -133 q 107 336 107 140 l 107 365 q 183 697 107 560 q 397 906 260 833 q 714 978 533 978 l 743 978 q 1046 908 915 978 q 1250 708 1176 838 q 1324 399 1324 579 l 1324 351 q 1259 88 1324 175 q 1076 0 1194 0 l 1031 0 q 944 26 974 0 q 915 94 915 51 l 915 108 l 896 108 q 860 51 885 79 q 795 3 836 22 q 690 -17 754 -17 q 543 28 608 -17 q 441 150 478 72 q 404 324 404 228 l 404 349 q 440 524 404 447 q 540 644 476 600 q 686 689 604 689 q 789 672 749 689 q 853 628 829 654 q 890 575 876 601 l 910 575 l 910 672 l 1017 672 l 1017 133 q 1024 104 1017 113 q 1051 96 1032 96 l 1068 96 q 1180 156 1146 96 q 1214 357 1214 217 l 1214 396 q 1157 658 1214 550 q 994 822 1100 765 q 742 879 889 879 l 718 879 q 454 821 567 879 q 279 647 342 763 q 217 361 217 532 l 217 339 q 283 53 217 169 q 468 -121 349 -62 q 744 -179 588 -179 l 1017 -179 l 1017 -278 l 739 -278 m 711 82 q 854 147 799 82 q 910 329 910 213 l 910 343 q 854 526 910 460 q 711 592 799 592 q 568 525 624 592 q 513 344 513 458 l 513 328 q 568 149 513 215 q 711 82 624 82 z "},"&":{"ha":839,"x_min":61,"x_max":804,"o":"m 347 0 q 201 31 267 0 q 99 118 136 61 q 61 257 61 175 q 85 364 61 318 q 147 440 108 410 q 228 485 185 469 l 228 500 q 117 572 164 519 q 69 714 69 624 q 108 856 69 797 q 211 943 147 914 q 353 972 275 972 l 528 972 l 528 878 l 367 878 q 235 835 289 878 q 182 707 182 793 q 208 611 182 649 q 275 556 233 574 q 367 539 317 539 l 558 539 l 558 688 l 668 688 l 668 539 l 804 539 l 804 443 l 668 443 l 668 0 l 347 0 m 361 94 l 558 94 l 558 443 l 361 443 q 227 401 282 443 q 172 269 172 358 q 228 138 172 181 q 361 94 285 94 z "},"*":{"ha":722,"x_min":65,"x_max":657,"o":"m 65 639 l 65 714 l 183 714 l 279 701 l 286 717 l 208 775 l 125 860 l 178 911 l 261 828 l 321 751 l 336 758 l 324 854 l 324 972 l 399 972 l 399 854 l 386 758 l 401 751 l 461 828 l 544 911 l 597 860 l 514 775 l 436 717 l 443 701 l 539 714 l 657 714 l 657 639 l 539 639 l 443 650 l 436 636 l 514 576 l 597 493 l 544 440 l 461 524 l 401 601 l 386 594 l 399 499 l 399 381 l 324 381 l 324 499 l 336 594 l 321 601 l 261 524 l 178 440 l 125 493 l 208 576 l 286 636 l 279 650 l 183 639 l 65 639 z "},"À":{"ha":875,"x_min":35,"x_max":840,"o":"m 35 0 l 335 972 l 540 972 l 840 0 l 719 0 l 644 246 l 231 246 l 156 0 l 35 0 m 260 351 l 614 351 l 447 901 l 428 901 l 260 351 m 410 1057 l 286 1225 l 422 1225 l 515 1057 l 410 1057 z "},"Á":{"ha":875,"x_min":35,"x_max":840,"o":"m 35 0 l 335 972 l 540 972 l 840 0 l 719 0 l 644 246 l 231 246 l 156 0 l 35 0 m 260 351 l 614 351 l 447 901 l 428 901 l 260 351 m 360 1053 l 453 1221 l 589 1221 l 467 1053 l 360 1053 z "},"Â":{"ha":875,"x_min":35,"x_max":840,"o":"m 35 0 l 335 972 l 540 972 l 840 0 l 719 0 l 644 246 l 231 246 l 156 0 l 35 0 m 260 351 l 614 351 l 447 901 l 428 901 l 260 351 m 194 1053 l 371 1221 l 503 1221 l 679 1053 l 544 1053 l 446 1154 l 428 1154 l 329 1053 l 194 1053 z "},"Ã":{"ha":875,"x_min":35,"x_max":840,"o":"m 35 0 l 335 972 l 540 972 l 840 0 l 719 0 l 644 246 l 231 246 l 156 0 l 35 0 m 260 351 l 614 351 l 447 901 l 428 901 l 260 351 m 272 1053 l 207 1097 l 251 1167 q 293 1210 269 1193 q 353 1228 317 1228 q 409 1214 385 1228 q 460 1172 433 1200 q 490 1144 478 1154 q 519 1133 503 1133 q 547 1143 536 1133 q 567 1167 557 1153 l 603 1224 l 668 1179 l 624 1110 q 583 1067 607 1085 q 524 1049 560 1049 q 467 1063 490 1049 q 417 1104 443 1076 q 386 1132 399 1122 q 357 1142 374 1142 q 329 1132 340 1142 q 308 1108 318 1122 l 272 1053 z "},"Ä":{"ha":875,"x_min":35,"x_max":840,"o":"m 35 0 l 335 972 l 540 972 l 840 0 l 719 0 l 644 246 l 231 246 l 156 0 l 35 0 m 260 351 l 614 351 l 447 901 l 428 901 l 260 351 m 575 1056 q 515 1078 539 1056 q 492 1138 492 1101 q 515 1197 492 1175 q 575 1219 539 1219 q 634 1197 611 1219 q 657 1138 657 1175 q 634 1078 657 1101 q 575 1056 611 1056 m 300 1056 q 240 1078 264 1056 q 217 1138 217 1101 q 240 1197 217 1175 q 300 1219 264 1219 q 360 1197 336 1219 q 383 1138 383 1175 q 360 1078 383 1101 q 300 1056 336 1056 z "},"Ā":{"ha":875,"x_min":35,"x_max":840,"o":"m 35 0 l 335 972 l 540 972 l 840 0 l 719 0 l 644 246 l 231 246 l 156 0 l 35 0 m 260 351 l 614 351 l 447 901 l 428 901 l 260 351 m 224 1071 l 224 1161 l 651 1161 l 651 1071 l 224 1071 z "},"Ă":{"ha":875,"x_min":35,"x_max":840,"o":"m 35 0 l 335 972 l 540 972 l 840 0 l 719 0 l 644 246 l 231 246 l 156 0 l 35 0 m 260 351 l 614 351 l 447 901 l 428 901 l 260 351 m 438 1044 q 285 1093 340 1044 q 231 1219 231 1142 l 231 1224 l 328 1224 l 328 1219 q 355 1149 328 1176 q 438 1122 382 1122 q 522 1149 494 1122 q 550 1219 550 1176 l 550 1224 l 646 1224 l 646 1219 q 591 1093 646 1142 q 438 1044 536 1044 z "},"Å":{"ha":875,"x_min":35,"x_max":840,"o":"m 35 0 l 335 972 l 540 972 l 840 0 l 719 0 l 644 246 l 231 246 l 156 0 l 35 0 m 260 351 l 614 351 l 447 901 l 428 901 l 260 351 m 438 1039 q 340 1076 381 1039 q 300 1172 300 1113 q 340 1267 300 1231 q 436 1304 381 1304 q 535 1267 494 1304 q 575 1172 575 1231 q 535 1076 575 1113 q 438 1039 494 1039 m 438 1113 q 481 1129 465 1113 q 497 1172 497 1146 q 481 1215 497 1197 q 438 1232 465 1232 q 394 1215 410 1232 q 378 1172 378 1197 q 394 1129 378 1146 q 438 1113 410 1113 z "},"Ą":{"ha":875,"x_min":35,"x_max":892,"o":"m 35 0 l 335 972 l 540 972 l 840 0 l 719 0 l 644 246 l 231 246 l 156 0 l 35 0 m 260 351 l 614 351 l 447 901 l 428 901 l 260 351 m 813 -228 q 741 -204 768 -228 q 714 -137 714 -181 q 717 -97 714 -118 q 726 -54 721 -76 l 743 19 l 825 19 l 808 -78 q 805 -98 807 -90 q 803 -115 803 -106 q 833 -143 803 -143 l 892 -143 l 892 -228 l 813 -228 z "},"Æ":{"ha":1154,"x_min":35,"x_max":1088,"o":"m 539 0 l 539 972 l 1082 972 l 1082 867 l 656 867 l 656 542 l 1043 542 l 1043 436 l 656 436 l 656 106 l 1088 106 l 1088 0 l 539 0 m 35 0 l 431 972 l 539 972 l 539 907 l 521 907 l 297 351 l 539 351 l 539 246 l 257 246 l 158 0 l 35 0 z "},"Ç":{"ha":892,"x_min":83,"x_max":819,"o":"m 463 -19 q 186 81 289 -19 q 83 375 83 182 l 83 597 q 186 891 83 790 q 463 992 289 992 q 727 896 635 992 q 819 633 819 800 l 819 626 l 704 626 l 704 638 q 645 817 704 747 q 463 888 586 888 q 269 812 339 888 q 200 600 200 736 l 200 372 q 269 160 200 236 q 463 85 339 85 q 645 155 586 85 q 704 335 704 225 l 704 357 l 819 357 l 819 339 q 727 76 819 172 q 463 -19 635 -19 m 464 -285 q 385 -274 422 -285 q 318 -244 347 -262 l 351 -175 q 402 -199 375 -189 q 463 -208 429 -208 q 510 -197 490 -208 q 529 -161 529 -186 q 512 -128 529 -139 q 461 -117 494 -117 l 410 -117 l 424 29 l 504 29 l 496 -62 q 583 -90 550 -62 q 617 -171 617 -118 q 596 -235 617 -210 q 540 -273 575 -261 q 464 -285 506 -285 z "},"Ć":{"ha":892,"x_min":83,"x_max":819,"o":"m 463 -19 q 186 81 289 -19 q 83 375 83 182 l 83 597 q 186 891 83 790 q 463 992 289 992 q 727 896 635 992 q 819 633 819 800 l 819 626 l 704 626 l 704 638 q 645 817 704 747 q 463 888 586 888 q 269 812 339 888 q 200 600 200 736 l 200 372 q 269 160 200 236 q 463 85 339 85 q 645 155 586 85 q 704 335 704 225 l 704 357 l 819 357 l 819 339 q 727 76 819 172 q 463 -19 635 -19 m 385 1053 l 478 1221 l 614 1221 l 492 1053 l 385 1053 z "},"Ĉ":{"ha":892,"x_min":83,"x_max":819,"o":"m 463 -19 q 186 81 289 -19 q 83 375 83 182 l 83 597 q 186 891 83 790 q 463 992 289 992 q 727 896 635 992 q 819 633 819 800 l 819 626 l 704 626 l 704 638 q 645 817 704 747 q 463 888 586 888 q 269 812 339 888 q 200 600 200 736 l 200 372 q 269 160 200 236 q 463 85 339 85 q 645 155 586 85 q 704 335 704 225 l 704 357 l 819 357 l 819 339 q 727 76 819 172 q 463 -19 635 -19 m 221 1053 l 397 1221 l 529 1221 l 706 1053 l 571 1053 l 472 1154 l 454 1154 l 356 1053 l 221 1053 z "},"Č":{"ha":892,"x_min":83,"x_max":819,"o":"m 463 -19 q 186 81 289 -19 q 83 375 83 182 l 83 597 q 186 891 83 790 q 463 992 289 992 q 727 896 635 992 q 819 633 819 800 l 819 626 l 704 626 l 704 638 q 645 817 704 747 q 463 888 586 888 q 269 812 339 888 q 200 600 200 736 l 200 372 q 269 160 200 236 q 463 85 339 85 q 645 155 586 85 q 704 335 704 225 l 704 357 l 819 357 l 819 339 q 727 76 819 172 q 463 -19 635 -19 m 397 1053 l 221 1221 l 356 1221 l 454 1119 l 472 1119 l 571 1221 l 706 1221 l 529 1053 l 397 1053 z "},"Ċ":{"ha":892,"x_min":83,"x_max":819,"o":"m 463 -19 q 186 81 289 -19 q 83 375 83 182 l 83 597 q 186 891 83 790 q 463 992 289 992 q 727 896 635 992 q 819 633 819 800 l 819 626 l 704 626 l 704 638 q 645 817 704 747 q 463 888 586 888 q 269 812 339 888 q 200 600 200 736 l 200 372 q 269 160 200 236 q 463 85 339 85 q 645 155 586 85 q 704 335 704 225 l 704 357 l 819 357 l 819 339 q 727 76 819 172 q 463 -19 635 -19 m 464 1056 q 403 1079 428 1056 q 379 1139 379 1103 q 403 1199 379 1176 q 464 1222 428 1222 q 524 1199 500 1222 q 547 1139 547 1176 q 524 1079 547 1103 q 464 1056 500 1056 z "},"Ð":{"ha":921,"x_min":65,"x_max":846,"o":"m 65 0 l 65 104 l 201 104 l 201 868 l 65 868 l 65 972 l 444 972 q 741 875 636 972 q 846 576 846 778 l 846 396 q 741 97 846 193 q 444 0 636 0 l 65 0 m 318 106 l 444 106 q 658 175 586 106 q 731 390 731 244 l 731 581 q 658 797 731 729 q 444 865 586 865 l 318 865 l 318 106 m 65 439 l 65 525 l 486 525 l 486 439 l 65 439 z "},"Ď":{"ha":921,"x_min":65,"x_max":846,"o":"m 65 0 l 65 104 l 201 104 l 201 868 l 65 868 l 65 972 l 444 972 q 741 875 636 972 q 846 576 846 778 l 846 396 q 741 97 846 193 q 444 0 636 0 l 65 0 m 318 106 l 444 106 q 658 175 586 106 q 731 390 731 244 l 731 581 q 658 797 731 729 q 444 865 586 865 l 318 865 l 318 106 m 375 1053 l 199 1221 l 333 1221 l 432 1119 l 450 1119 l 549 1221 l 683 1221 l 507 1053 l 375 1053 z "},"Đ":{"ha":921,"x_min":65,"x_max":846,"o":"m 65 0 l 65 104 l 201 104 l 201 868 l 65 868 l 65 972 l 444 972 q 741 875 636 972 q 846 576 846 778 l 846 396 q 741 97 846 193 q 444 0 636 0 l 65 0 m 318 106 l 444 106 q 658 175 586 106 q 731 390 731 244 l 731 581 q 658 797 731 729 q 444 865 586 865 l 318 865 l 318 106 m 65 439 l 65 525 l 486 525 l 486 439 l 65 439 z "},"È":{"ha":782,"x_min":111,"x_max":717,"o":"m 111 0 l 111 972 l 710 972 l 710 867 l 228 867 l 228 542 l 671 542 l 671 436 l 228 436 l 228 106 l 717 106 l 717 0 l 111 0 m 392 1057 l 268 1225 l 404 1225 l 497 1057 l 392 1057 z "},"É":{"ha":782,"x_min":111,"x_max":717,"o":"m 111 0 l 111 972 l 710 972 l 710 867 l 228 867 l 228 542 l 671 542 l 671 436 l 228 436 l 228 106 l 717 106 l 717 0 l 111 0 m 340 1053 l 433 1221 l 569 1221 l 447 1053 l 340 1053 z "},"Ê":{"ha":782,"x_min":111,"x_max":717,"o":"m 111 0 l 111 972 l 710 972 l 710 867 l 228 867 l 228 542 l 671 542 l 671 436 l 228 436 l 228 106 l 717 106 l 717 0 l 111 0 m 176 1053 l 353 1221 l 485 1221 l 661 1053 l 526 1053 l 428 1154 l 410 1154 l 311 1053 l 176 1053 z "},"Ě":{"ha":782,"x_min":111,"x_max":717,"o":"m 111 0 l 111 972 l 710 972 l 710 867 l 228 867 l 228 542 l 671 542 l 671 436 l 228 436 l 228 106 l 717 106 l 717 0 l 111 0 m 353 1053 l 176 1221 l 311 1221 l 410 1119 l 428 1119 l 526 1221 l 661 1221 l 485 1053 l 353 1053 z "},"Ë":{"ha":782,"x_min":111,"x_max":717,"o":"m 111 0 l 111 972 l 710 972 l 710 867 l 228 867 l 228 542 l 671 542 l 671 436 l 228 436 l 228 106 l 717 106 l 717 0 l 111 0 m 557 1056 q 497 1078 521 1056 q 474 1138 474 1101 q 497 1197 474 1175 q 557 1219 521 1219 q 616 1197 593 1219 q 639 1138 639 1175 q 616 1078 639 1101 q 557 1056 593 1056 m 282 1056 q 222 1078 246 1056 q 199 1138 199 1101 q 222 1197 199 1175 q 282 1219 246 1219 q 342 1197 318 1219 q 365 1138 365 1175 q 342 1078 365 1101 q 282 1056 318 1056 z "},"Ē":{"ha":782,"x_min":111,"x_max":717,"o":"m 111 0 l 111 972 l 710 972 l 710 867 l 228 867 l 228 542 l 671 542 l 671 436 l 228 436 l 228 106 l 717 106 l 717 0 l 111 0 m 204 1071 l 204 1161 l 632 1161 l 632 1071 l 204 1071 z "},"Ĕ":{"ha":782,"x_min":111,"x_max":717,"o":"m 111 0 l 111 972 l 710 972 l 710 867 l 228 867 l 228 542 l 671 542 l 671 436 l 228 436 l 228 106 l 717 106 l 717 0 l 111 0 m 418 1044 q 266 1093 321 1044 q 211 1219 211 1142 l 211 1224 l 308 1224 l 308 1219 q 335 1149 308 1176 q 418 1122 363 1122 q 503 1149 475 1122 q 531 1219 531 1176 l 531 1224 l 626 1224 l 626 1219 q 572 1093 626 1142 q 418 1044 517 1044 z "},"Ė":{"ha":782,"x_min":111,"x_max":717,"o":"m 111 0 l 111 972 l 710 972 l 710 867 l 228 867 l 228 542 l 671 542 l 671 436 l 228 436 l 228 106 l 717 106 l 717 0 l 111 0 m 419 1056 q 359 1079 383 1056 q 335 1139 335 1103 q 359 1199 335 1176 q 419 1222 383 1222 q 479 1199 456 1222 q 503 1139 503 1176 q 479 1079 503 1103 q 419 1056 456 1056 z "},"Ę":{"ha":782,"x_min":111,"x_max":717,"o":"m 111 0 l 111 972 l 710 972 l 710 867 l 228 867 l 228 542 l 671 542 l 671 436 l 228 436 l 228 106 l 717 106 l 717 0 l 111 0 m 636 -228 q 565 -204 592 -228 q 538 -137 538 -181 q 541 -97 538 -118 q 550 -54 544 -76 l 567 19 l 649 19 l 632 -78 q 628 -98 631 -90 q 626 -115 626 -106 q 657 -143 626 -143 l 715 -143 l 715 -228 l 636 -228 z "},"Ĝ":{"ha":917,"x_min":83,"x_max":815,"o":"m 450 -19 q 259 26 342 -19 q 130 158 176 71 q 83 375 83 246 l 83 597 q 186 891 83 790 q 463 992 289 992 q 725 897 635 992 q 815 644 815 803 l 815 638 l 700 638 l 700 647 q 675 771 700 717 q 597 856 650 825 q 463 888 544 888 q 269 812 339 888 q 200 600 200 736 l 200 372 q 269 160 200 236 q 464 85 339 85 q 644 154 586 85 q 701 339 701 224 l 701 363 l 407 363 l 407 463 l 815 463 l 815 0 l 710 0 l 710 106 l 690 106 q 647 46 675 75 q 572 -1 619 17 q 450 -19 525 -19 m 224 1053 l 400 1221 l 532 1221 l 708 1053 l 574 1053 l 475 1154 l 457 1154 l 358 1053 l 224 1053 z "},"Ğ":{"ha":917,"x_min":83,"x_max":815,"o":"m 450 -19 q 259 26 342 -19 q 130 158 176 71 q 83 375 83 246 l 83 597 q 186 891 83 790 q 463 992 289 992 q 725 897 635 992 q 815 644 815 803 l 815 638 l 700 638 l 700 647 q 675 771 700 717 q 597 856 650 825 q 463 888 544 888 q 269 812 339 888 q 200 600 200 736 l 200 372 q 269 160 200 236 q 464 85 339 85 q 644 154 586 85 q 701 339 701 224 l 701 363 l 407 363 l 407 463 l 815 463 l 815 0 l 710 0 l 710 106 l 690 106 q 647 46 675 75 q 572 -1 619 17 q 450 -19 525 -19 m 465 1044 q 313 1093 368 1044 q 258 1219 258 1142 l 258 1224 l 356 1224 l 356 1219 q 383 1149 356 1176 q 465 1122 410 1122 q 550 1149 522 1122 q 578 1219 578 1176 l 578 1224 l 674 1224 l 674 1219 q 619 1093 674 1142 q 465 1044 564 1044 z "},"Ġ":{"ha":917,"x_min":83,"x_max":815,"o":"m 450 -19 q 259 26 342 -19 q 130 158 176 71 q 83 375 83 246 l 83 597 q 186 891 83 790 q 463 992 289 992 q 725 897 635 992 q 815 644 815 803 l 815 638 l 700 638 l 700 647 q 675 771 700 717 q 597 856 650 825 q 463 888 544 888 q 269 812 339 888 q 200 600 200 736 l 200 372 q 269 160 200 236 q 464 85 339 85 q 644 154 586 85 q 701 339 701 224 l 701 363 l 407 363 l 407 463 l 815 463 l 815 0 l 710 0 l 710 106 l 690 106 q 647 46 675 75 q 572 -1 619 17 q 450 -19 525 -19 m 465 1056 q 405 1079 429 1056 q 381 1139 381 1103 q 405 1199 381 1176 q 465 1222 429 1222 q 525 1199 501 1222 q 549 1139 549 1176 q 525 1079 549 1103 q 465 1056 501 1056 z "},"Ĥ":{"ha":911,"x_min":111,"x_max":800,"o":"m 111 0 l 111 972 l 228 972 l 228 540 l 683 540 l 683 972 l 800 972 l 800 0 l 683 0 l 683 435 l 228 435 l 228 0 l 111 0 m 214 1053 l 390 1221 l 522 1221 l 699 1053 l 564 1053 l 465 1154 l 447 1154 l 349 1053 l 214 1053 z "},"Ħ":{"ha":911,"x_min":17,"x_max":896,"o":"m 111 0 l 111 972 l 228 972 l 228 540 l 683 540 l 683 972 l 800 972 l 800 0 l 683 0 l 683 435 l 228 435 l 228 0 l 111 0 m 17 707 l 17 792 l 896 792 l 896 707 l 17 707 z "},"Ì":{"ha":339,"x_min":18,"x_max":247,"o":"m 111 0 l 111 972 l 228 972 l 228 0 l 111 0 m 142 1057 l 18 1225 l 154 1225 l 247 1057 l 142 1057 z "},"Í":{"ha":339,"x_min":92,"x_max":321,"o":"m 111 0 l 111 972 l 228 972 l 228 0 l 111 0 m 92 1053 l 185 1221 l 321 1221 l 199 1053 l 92 1053 z "},"Î":{"ha":339,"x_min":-72,"x_max":411,"o":"m 111 0 l 111 972 l 228 972 l 228 0 l 111 0 m -72 1053 l 104 1221 l 236 1221 l 413 1053 l 278 1053 l 179 1154 l 161 1154 l 63 1053 l -72 1053 z "},"Ĩ":{"ha":339,"x_min":-61,"x_max":400,"o":"m 111 0 l 111 972 l 228 972 l 228 0 l 111 0 m 4 1053 l -61 1097 l -17 1167 q 25 1210 1 1193 q 85 1228 49 1228 q 141 1214 117 1228 q 192 1172 165 1200 q 222 1144 210 1154 q 251 1133 235 1133 q 278 1143 268 1133 q 299 1167 289 1153 l 335 1224 l 400 1179 l 356 1110 q 315 1067 339 1085 q 256 1049 292 1049 q 199 1063 222 1049 q 149 1104 175 1076 q 118 1132 131 1122 q 89 1142 106 1142 q 61 1132 72 1142 q 40 1108 50 1122 l 4 1053 z "},"Ï":{"ha":339,"x_min":-51,"x_max":390,"o":"m 111 0 l 111 972 l 228 972 l 228 0 l 111 0 m 307 1056 q 247 1078 271 1056 q 224 1138 224 1101 q 247 1197 224 1175 q 307 1219 271 1219 q 366 1197 343 1219 q 389 1138 389 1175 q 366 1078 389 1101 q 307 1056 343 1056 m 32 1056 q -28 1078 -4 1056 q -51 1138 -51 1101 q -28 1197 -51 1175 q 32 1219 -4 1219 q 92 1197 68 1219 q 115 1138 115 1175 q 92 1078 115 1101 q 32 1056 68 1056 z "},"Ī":{"ha":339,"x_min":-44,"x_max":383,"o":"m 111 0 l 111 972 l 228 972 l 228 0 l 111 0 m -44 1071 l -44 1161 l 383 1161 l 383 1071 l -44 1071 z "},"İ":{"ha":339,"x_min":86,"x_max":253,"o":"m 111 0 l 111 972 l 228 972 l 228 0 l 111 0 m 169 1056 q 109 1079 133 1056 q 85 1139 85 1103 q 109 1199 85 1176 q 169 1222 133 1222 q 229 1199 206 1222 q 253 1139 253 1176 q 229 1079 253 1103 q 169 1056 206 1056 z "},"Į":{"ha":339,"x_min":103,"x_max":281,"o":"m 111 0 l 111 972 l 228 972 l 228 0 l 111 0 m 200 -228 q 128 -204 156 -228 q 101 -137 101 -181 q 105 -97 101 -118 q 114 -54 108 -76 l 131 19 l 213 19 l 196 -78 q 192 -98 194 -90 q 190 -115 190 -106 q 221 -143 190 -143 l 279 -143 l 279 -228 l 200 -228 z "},"Ĭ":{"ha":339,"x_min":-37,"x_max":378,"o":"m 111 0 l 111 972 l 228 972 l 228 0 l 111 0 m 169 1044 q 17 1093 72 1044 q -37 1219 -37 1142 l -37 1224 l 60 1224 l 60 1219 q 87 1149 60 1176 q 169 1122 114 1122 q 254 1149 226 1122 q 282 1219 282 1176 l 282 1224 l 378 1224 l 378 1219 q 323 1093 378 1142 q 169 1044 268 1044 z "},"Ĵ":{"ha":825,"x_min":57,"x_max":810,"o":"m 365 -19 q 140 61 222 -19 q 57 292 57 142 l 57 367 l 172 367 l 172 292 q 220 144 172 201 q 364 88 268 88 q 501 144 461 88 q 542 292 542 200 l 542 867 l 371 867 l 371 972 l 764 972 l 764 867 l 658 867 l 658 292 q 583 60 658 140 q 365 -19 508 -19 m 325 1053 l 501 1221 l 633 1221 l 810 1053 l 675 1053 l 576 1154 l 558 1154 l 460 1053 l 325 1053 z "},"Ĺ":{"ha":758,"x_min":90,"x_max":719,"o":"m 111 0 l 111 972 l 228 972 l 228 106 l 719 106 l 719 0 l 111 0 m 90 1053 l 183 1221 l 319 1221 l 197 1053 l 90 1053 z "},"Ľ":{"ha":758,"x_min":111,"x_max":719,"o":"m 111 0 l 111 972 l 228 972 l 228 106 l 719 106 l 719 0 l 111 0 m 329 714 l 342 972 l 454 972 l 411 714 l 329 714 z "},"Ḹ":{"ha":758,"x_min":-46,"x_max":719,"o":"m 111 0 l 111 972 l 228 972 l 228 106 l 719 106 l 719 0 l 111 0 m 415 -272 q 355 -248 379 -272 q 331 -187 331 -224 q 355 -128 331 -151 q 415 -104 379 -104 q 475 -128 451 -104 q 499 -187 499 -151 q 475 -248 499 -224 q 415 -272 451 -272 m -46 1071 l -46 1161 l 382 1161 l 382 1071 l -46 1071 z "},"Ł":{"ha":833,"x_min":24,"x_max":794,"o":"m 188 0 l 188 972 l 303 972 l 303 106 l 794 106 l 794 0 l 188 0 m 63 333 l 24 410 l 428 622 l 467 546 l 63 333 z "},"Ŀ":{"ha":758,"x_min":111,"x_max":719,"o":"m 111 0 l 111 972 l 228 972 l 228 106 l 719 106 l 719 0 l 111 0 m 543 411 q 483 435 507 411 q 458 494 458 458 q 483 556 458 532 q 543 579 507 579 q 603 556 579 579 q 626 494 626 532 q 603 435 626 458 q 543 411 579 411 z "},"Ń":{"ha":922,"x_min":111,"x_max":810,"o":"m 111 0 l 111 972 l 338 972 l 676 74 l 694 74 l 694 972 l 810 972 l 810 0 l 583 0 l 246 900 l 226 900 l 226 0 l 111 0 m 388 1053 l 481 1221 l 617 1221 l 494 1053 l 388 1053 z "},"Ň":{"ha":922,"x_min":111,"x_max":810,"o":"m 111 0 l 111 972 l 338 972 l 676 74 l 694 74 l 694 972 l 810 972 l 810 0 l 583 0 l 246 900 l 226 900 l 226 0 l 111 0 m 399 1053 l 222 1221 l 357 1221 l 456 1119 l 474 1119 l 572 1221 l 707 1221 l 531 1053 l 399 1053 z "},"Ñ":{"ha":922,"x_min":111,"x_max":810,"o":"m 111 0 l 111 972 l 338 972 l 676 74 l 694 74 l 694 972 l 810 972 l 810 0 l 583 0 l 246 900 l 226 900 l 226 0 l 111 0 m 299 1053 l 233 1097 l 278 1167 q 319 1210 296 1193 q 379 1228 343 1228 q 435 1214 411 1228 q 486 1172 460 1200 q 517 1144 504 1154 q 546 1133 529 1133 q 573 1143 563 1133 q 593 1167 583 1153 l 629 1224 l 694 1179 l 650 1110 q 610 1067 633 1085 q 550 1049 586 1049 q 493 1063 517 1049 q 443 1104 469 1076 q 413 1132 425 1122 q 383 1142 400 1142 q 356 1132 367 1142 q 335 1108 344 1122 l 299 1053 z "},"Ò":{"ha":929,"x_min":83,"x_max":846,"o":"m 464 -19 q 187 81 290 -19 q 83 375 83 182 l 83 597 q 187 891 83 790 q 464 992 290 992 q 742 891 639 992 q 846 597 846 790 l 846 375 q 742 81 846 182 q 464 -19 639 -19 m 464 85 q 660 160 590 85 q 729 371 729 236 l 729 601 q 660 812 729 736 q 464 888 590 888 q 269 812 339 888 q 200 601 200 736 l 200 371 q 269 160 200 236 q 464 85 339 85 m 436 1057 l 313 1225 l 449 1225 l 542 1057 l 436 1057 z "},"Ó":{"ha":929,"x_min":83,"x_max":846,"o":"m 464 -19 q 187 81 290 -19 q 83 375 83 182 l 83 597 q 187 891 83 790 q 464 992 290 992 q 742 891 639 992 q 846 597 846 790 l 846 375 q 742 81 846 182 q 464 -19 639 -19 m 464 85 q 660 160 590 85 q 729 371 729 236 l 729 601 q 660 812 729 736 q 464 888 590 888 q 269 812 339 888 q 200 601 200 736 l 200 371 q 269 160 200 236 q 464 85 339 85 m 386 1053 l 479 1221 l 615 1221 l 493 1053 l 386 1053 z "},"Ô":{"ha":929,"x_min":83,"x_max":846,"o":"m 464 -19 q 187 81 290 -19 q 83 375 83 182 l 83 597 q 187 891 83 790 q 464 992 290 992 q 742 891 639 992 q 846 597 846 790 l 846 375 q 742 81 846 182 q 464 -19 639 -19 m 464 85 q 660 160 590 85 q 729 371 729 236 l 729 601 q 660 812 729 736 q 464 888 590 888 q 269 812 339 888 q 200 601 200 736 l 200 371 q 269 160 200 236 q 464 85 339 85 m 222 1053 l 399 1221 l 531 1221 l 707 1053 l 572 1053 l 474 1154 l 456 1154 l 357 1053 l 222 1053 z "},"Õ":{"ha":929,"x_min":83,"x_max":846,"o":"m 464 -19 q 187 81 290 -19 q 83 375 83 182 l 83 597 q 187 891 83 790 q 464 992 290 992 q 742 891 639 992 q 846 597 846 790 l 846 375 q 742 81 846 182 q 464 -19 639 -19 m 464 85 q 660 160 590 85 q 729 371 729 236 l 729 601 q 660 812 729 736 q 464 888 590 888 q 269 812 339 888 q 200 601 200 736 l 200 371 q 269 160 200 236 q 464 85 339 85 m 299 1053 l 233 1097 l 278 1167 q 319 1210 296 1193 q 379 1228 343 1228 q 435 1214 411 1228 q 486 1172 460 1200 q 517 1144 504 1154 q 546 1133 529 1133 q 573 1143 563 1133 q 593 1167 583 1153 l 629 1224 l 694 1179 l 650 1110 q 610 1067 633 1085 q 550 1049 586 1049 q 493 1063 517 1049 q 443 1104 469 1076 q 413 1132 425 1122 q 383 1142 400 1142 q 356 1132 367 1142 q 335 1108 344 1122 l 299 1053 z "},"Ö":{"ha":929,"x_min":83,"x_max":846,"o":"m 464 -19 q 187 81 290 -19 q 83 375 83 182 l 83 597 q 187 891 83 790 q 464 992 290 992 q 742 891 639 992 q 846 597 846 790 l 846 375 q 742 81 846 182 q 464 -19 639 -19 m 464 85 q 660 160 590 85 q 729 371 729 236 l 729 601 q 660 812 729 736 q 464 888 590 888 q 269 812 339 888 q 200 601 200 736 l 200 371 q 269 160 200 236 q 464 85 339 85 m 603 1056 q 543 1078 567 1056 q 519 1138 519 1101 q 543 1197 519 1175 q 603 1219 567 1219 q 662 1197 639 1219 q 685 1138 685 1175 q 662 1078 685 1101 q 603 1056 639 1056 m 328 1056 q 268 1078 292 1056 q 244 1138 244 1101 q 268 1197 244 1175 q 328 1219 292 1219 q 388 1197 364 1219 q 411 1138 411 1175 q 388 1078 411 1101 q 328 1056 364 1056 z "},"Ō":{"ha":929,"x_min":83,"x_max":846,"o":"m 464 -19 q 187 81 290 -19 q 83 375 83 182 l 83 597 q 187 891 83 790 q 464 992 290 992 q 742 891 639 992 q 846 597 846 790 l 846 375 q 742 81 846 182 q 464 -19 639 -19 m 464 85 q 660 160 590 85 q 729 371 729 236 l 729 601 q 660 812 729 736 q 464 888 590 888 q 269 812 339 888 q 200 601 200 736 l 200 371 q 269 160 200 236 q 464 85 339 85 m 250 1071 l 250 1161 l 678 1161 l 678 1071 l 250 1071 z "},"Ő":{"ha":929,"x_min":83,"x_max":846,"o":"m 464 -19 q 187 81 290 -19 q 83 375 83 182 l 83 597 q 187 891 83 790 q 464 992 290 992 q 742 891 639 992 q 846 597 846 790 l 846 375 q 742 81 846 182 q 464 -19 639 -19 m 464 85 q 660 160 590 85 q 729 371 729 236 l 729 601 q 660 812 729 736 q 464 888 590 888 q 269 812 339 888 q 200 601 200 736 l 200 371 q 269 160 200 236 q 464 85 339 85 m 485 1057 l 583 1225 l 715 1225 l 585 1057 l 485 1057 m 290 1057 l 369 1225 l 488 1225 l 382 1057 l 290 1057 z "},"Ŏ":{"ha":929,"x_min":83,"x_max":846,"o":"m 464 -19 q 187 81 290 -19 q 83 375 83 182 l 83 597 q 187 891 83 790 q 464 992 290 992 q 742 891 639 992 q 846 597 846 790 l 846 375 q 742 81 846 182 q 464 -19 639 -19 m 464 85 q 660 160 590 85 q 729 371 729 236 l 729 601 q 660 812 729 736 q 464 888 590 888 q 269 812 339 888 q 200 601 200 736 l 200 371 q 269 160 200 236 q 464 85 339 85 m 464 1044 q 312 1093 367 1044 q 257 1219 257 1142 l 257 1224 l 354 1224 l 354 1219 q 381 1149 354 1176 q 464 1122 408 1122 q 549 1149 521 1122 q 576 1219 576 1176 l 576 1224 l 672 1224 l 672 1219 q 617 1093 672 1142 q 464 1044 563 1044 z "},"Ø":{"ha":929,"x_min":83,"x_max":846,"o":"m 464 -19 q 187 81 290 -19 q 83 375 83 182 l 83 597 q 187 891 83 790 q 464 992 290 992 q 742 891 639 992 q 846 597 846 790 l 846 375 q 742 81 846 182 q 464 -19 639 -19 m 464 85 q 660 160 590 85 q 729 371 729 236 l 729 601 q 660 812 729 736 q 464 888 590 888 q 269 812 339 888 q 200 601 200 736 l 200 371 q 269 160 200 236 q 464 85 339 85 m 275 -121 l 194 -89 l 656 1076 l 735 1044 l 275 -121 z "},"Œ":{"ha":1164,"x_min":83,"x_max":1099,"o":"m 550 0 l 550 972 l 1092 972 l 1092 867 l 665 867 l 665 542 l 1053 542 l 1053 436 l 665 436 l 665 106 l 1099 106 l 1099 0 l 550 0 m 550 0 q 206 112 329 0 q 83 439 83 224 l 83 533 q 206 860 83 749 q 550 972 329 972 l 550 872 q 285 785 371 872 q 200 543 200 697 l 200 429 q 285 188 200 275 q 550 100 371 100 l 550 0 z "},"Ŕ":{"ha":876,"x_min":111,"x_max":810,"o":"m 111 0 l 111 972 l 504 972 q 663 941 594 972 q 771 852 732 910 q 810 714 810 794 l 810 699 q 764 547 810 603 q 656 472 718 492 l 656 453 q 738 420 706 451 q 771 326 771 389 l 771 0 l 656 0 l 656 313 q 633 376 656 354 q 564 399 610 399 l 228 399 l 228 0 l 111 0 m 228 504 l 493 504 q 641 551 589 504 q 693 681 693 597 l 693 690 q 642 820 693 774 q 493 867 590 867 l 228 867 l 228 504 m 349 1053 l 442 1221 l 578 1221 l 456 1053 l 349 1053 z "},"Ř":{"ha":876,"x_min":111,"x_max":810,"o":"m 111 0 l 111 972 l 504 972 q 663 941 594 972 q 771 852 732 910 q 810 714 810 794 l 810 699 q 764 547 810 603 q 656 472 718 492 l 656 453 q 738 420 706 451 q 771 326 771 389 l 771 0 l 656 0 l 656 313 q 633 376 656 354 q 564 399 610 399 l 228 399 l 228 0 l 111 0 m 228 504 l 493 504 q 641 551 589 504 q 693 681 693 597 l 693 690 q 642 820 693 774 q 493 867 590 867 l 228 867 l 228 504 m 361 1053 l 185 1221 l 319 1221 l 418 1119 l 436 1119 l 535 1221 l 669 1221 l 493 1053 l 361 1053 z "},"Ṝ":{"ha":876,"x_min":111,"x_max":810,"o":"m 111 0 l 111 972 l 504 972 q 663 941 594 972 q 771 852 732 910 q 810 714 810 794 l 810 699 q 764 547 810 603 q 656 472 718 492 l 656 453 q 738 420 706 451 q 771 326 771 389 l 771 0 l 656 0 l 656 313 q 633 376 656 354 q 564 399 610 399 l 228 399 l 228 0 l 111 0 m 228 504 l 493 504 q 641 551 589 504 q 693 681 693 597 l 693 690 q 642 820 693 774 q 493 867 590 867 l 228 867 l 228 504 m 442 -272 q 381 -248 406 -272 q 357 -187 357 -224 q 381 -128 357 -151 q 442 -104 406 -104 q 501 -128 478 -104 q 525 -187 525 -151 q 501 -248 525 -224 q 442 -272 478 -272 m 213 1071 l 213 1161 l 640 1161 l 640 1071 l 213 1071 z "},"Ś":{"ha":851,"x_min":67,"x_max":783,"o":"m 435 -19 q 246 18 329 -19 q 115 131 163 56 q 67 321 67 207 l 67 350 l 182 350 l 182 321 q 253 141 182 200 q 435 82 324 82 q 608 133 549 82 q 668 263 668 185 q 641 349 668 317 q 565 401 614 381 q 451 436 517 421 l 379 454 q 229 508 294 476 q 127 592 164 540 q 90 726 90 644 q 131 868 90 808 q 247 960 172 928 q 418 992 321 992 q 595 958 517 992 q 719 858 674 924 q 764 692 764 792 l 764 633 l 649 633 l 649 692 q 619 806 649 763 q 537 869 589 849 q 418 890 485 890 q 264 848 322 890 q 206 728 206 806 q 231 644 206 676 q 301 592 256 613 q 411 557 347 572 l 483 539 q 635 490 568 521 q 743 405 703 458 q 783 265 783 351 q 740 115 783 179 q 619 16 697 51 q 435 -19 540 -19 m 346 1053 l 439 1221 l 575 1221 l 453 1053 l 346 1053 z "},"Ŝ":{"ha":851,"x_min":67,"x_max":783,"o":"m 435 -19 q 246 18 329 -19 q 115 131 163 56 q 67 321 67 207 l 67 350 l 182 350 l 182 321 q 253 141 182 200 q 435 82 324 82 q 608 133 549 82 q 668 263 668 185 q 641 349 668 317 q 565 401 614 381 q 451 436 517 421 l 379 454 q 229 508 294 476 q 127 592 164 540 q 90 726 90 644 q 131 868 90 808 q 247 960 172 928 q 418 992 321 992 q 595 958 517 992 q 719 858 674 924 q 764 692 764 792 l 764 633 l 649 633 l 649 692 q 619 806 649 763 q 537 869 589 849 q 418 890 485 890 q 264 848 322 890 q 206 728 206 806 q 231 644 206 676 q 301 592 256 613 q 411 557 347 572 l 483 539 q 635 490 568 521 q 743 405 703 458 q 783 265 783 351 q 740 115 783 179 q 619 16 697 51 q 435 -19 540 -19 m 182 1053 l 358 1221 l 490 1221 l 667 1053 l 532 1053 l 433 1154 l 415 1154 l 317 1053 l 182 1053 z "},"Š":{"ha":851,"x_min":67,"x_max":783,"o":"m 435 -19 q 246 18 329 -19 q 115 131 163 56 q 67 321 67 207 l 67 350 l 182 350 l 182 321 q 253 141 182 200 q 435 82 324 82 q 608 133 549 82 q 668 263 668 185 q 641 349 668 317 q 565 401 614 381 q 451 436 517 421 l 379 454 q 229 508 294 476 q 127 592 164 540 q 90 726 90 644 q 131 868 90 808 q 247 960 172 928 q 418 992 321 992 q 595 958 517 992 q 719 858 674 924 q 764 692 764 792 l 764 633 l 649 633 l 649 692 q 619 806 649 763 q 537 869 589 849 q 418 890 485 890 q 264 848 322 890 q 206 728 206 806 q 231 644 206 676 q 301 592 256 613 q 411 557 347 572 l 483 539 q 635 490 568 521 q 743 405 703 458 q 783 265 783 351 q 740 115 783 179 q 619 16 697 51 q 435 -19 540 -19 m 358 1053 l 182 1221 l 317 1221 l 415 1119 l 433 1119 l 532 1221 l 667 1221 l 490 1053 l 358 1053 z "},"Ş":{"ha":851,"x_min":67,"x_max":783,"o":"m 435 -19 q 246 18 329 -19 q 115 131 163 56 q 67 321 67 207 l 67 350 l 182 350 l 182 321 q 253 141 182 200 q 435 82 324 82 q 608 133 549 82 q 668 263 668 185 q 641 349 668 317 q 565 401 614 381 q 451 436 517 421 l 379 454 q 229 508 294 476 q 127 592 164 540 q 90 726 90 644 q 131 868 90 808 q 247 960 172 928 q 418 992 321 992 q 595 958 517 992 q 719 858 674 924 q 764 692 764 792 l 764 633 l 649 633 l 649 692 q 619 806 649 763 q 537 869 589 849 q 418 890 485 890 q 264 848 322 890 q 206 728 206 806 q 231 644 206 676 q 301 592 256 613 q 411 557 347 572 l 483 539 q 635 490 568 521 q 743 405 703 458 q 783 265 783 351 q 740 115 783 179 q 619 16 697 51 q 435 -19 540 -19 m 446 -285 q 367 -274 404 -285 q 300 -244 329 -262 l 333 -175 q 384 -199 357 -189 q 444 -208 411 -208 q 492 -197 472 -208 q 511 -161 511 -186 q 494 -128 511 -139 q 443 -117 476 -117 l 392 -117 l 406 29 l 486 29 l 478 -62 q 565 -90 532 -62 q 599 -171 599 -118 q 578 -235 599 -210 q 522 -273 557 -261 q 446 -285 488 -285 z "},"Ť":{"ha":817,"x_min":38,"x_max":779,"o":"m 350 0 l 350 867 l 38 867 l 38 972 l 779 972 l 779 867 l 467 867 l 467 0 l 350 0 m 343 1053 l 167 1221 l 301 1221 l 400 1119 l 418 1119 l 517 1221 l 651 1221 l 475 1053 l 343 1053 z "},"Ŧ":{"ha":817,"x_min":38,"x_max":779,"o":"m 350 0 l 350 867 l 38 867 l 38 972 l 779 972 l 779 867 l 467 867 l 467 0 l 350 0 m 197 439 l 197 525 l 618 525 l 618 439 l 197 439 z "},"Ù":{"ha":925,"x_min":104,"x_max":822,"o":"m 463 -19 q 274 19 354 -19 q 149 135 193 58 q 104 325 104 213 l 104 972 l 219 972 l 219 324 q 283 144 219 204 q 463 85 347 85 q 642 144 578 85 q 706 324 706 204 l 706 972 l 822 972 l 822 325 q 778 135 822 213 q 652 19 733 58 q 463 -19 571 -19 m 435 1057 l 311 1225 l 447 1225 l 540 1057 l 435 1057 z "},"Ú":{"ha":925,"x_min":104,"x_max":822,"o":"m 463 -19 q 274 19 354 -19 q 149 135 193 58 q 104 325 104 213 l 104 972 l 219 972 l 219 324 q 283 144 219 204 q 463 85 347 85 q 642 144 578 85 q 706 324 706 204 l 706 972 l 822 972 l 822 325 q 778 135 822 213 q 652 19 733 58 q 463 -19 571 -19 m 385 1053 l 478 1221 l 614 1221 l 492 1053 l 385 1053 z "},"Û":{"ha":925,"x_min":104,"x_max":822,"o":"m 463 -19 q 274 19 354 -19 q 149 135 193 58 q 104 325 104 213 l 104 972 l 219 972 l 219 324 q 283 144 219 204 q 463 85 347 85 q 642 144 578 85 q 706 324 706 204 l 706 972 l 822 972 l 822 325 q 778 135 822 213 q 652 19 733 58 q 463 -19 571 -19 m 221 1053 l 397 1221 l 529 1221 l 706 1053 l 571 1053 l 472 1154 l 454 1154 l 356 1053 l 221 1053 z "},"Ũ":{"ha":925,"x_min":104,"x_max":822,"o":"m 463 -19 q 274 19 354 -19 q 149 135 193 58 q 104 325 104 213 l 104 972 l 219 972 l 219 324 q 283 144 219 204 q 463 85 347 85 q 642 144 578 85 q 706 324 706 204 l 706 972 l 822 972 l 822 325 q 778 135 822 213 q 652 19 733 58 q 463 -19 571 -19 m 297 1053 l 232 1097 l 276 1167 q 318 1210 294 1193 q 378 1228 342 1228 q 434 1214 410 1228 q 485 1172 458 1200 q 515 1144 503 1154 q 544 1133 528 1133 q 572 1143 561 1133 q 592 1167 582 1153 l 628 1224 l 693 1179 l 649 1110 q 608 1067 632 1085 q 549 1049 585 1049 q 492 1063 515 1049 q 442 1104 468 1076 q 411 1132 424 1122 q 382 1142 399 1142 q 354 1132 365 1142 q 333 1108 343 1122 l 297 1053 z "},"Ü":{"ha":925,"x_min":104,"x_max":822,"o":"m 463 -19 q 274 19 354 -19 q 149 135 193 58 q 104 325 104 213 l 104 972 l 219 972 l 219 324 q 283 144 219 204 q 463 85 347 85 q 642 144 578 85 q 706 324 706 204 l 706 972 l 822 972 l 822 325 q 778 135 822 213 q 652 19 733 58 q 463 -19 571 -19 m 600 1056 q 540 1078 564 1056 q 517 1138 517 1101 q 540 1197 517 1175 q 600 1219 564 1219 q 659 1197 636 1219 q 682 1138 682 1175 q 659 1078 682 1101 q 600 1056 636 1056 m 325 1056 q 265 1078 289 1056 q 242 1138 242 1101 q 265 1197 242 1175 q 325 1219 289 1219 q 385 1197 361 1219 q 408 1138 408 1175 q 385 1078 408 1101 q 325 1056 361 1056 z "},"Ū":{"ha":925,"x_min":104,"x_max":822,"o":"m 463 -19 q 274 19 354 -19 q 149 135 193 58 q 104 325 104 213 l 104 972 l 219 972 l 219 324 q 283 144 219 204 q 463 85 347 85 q 642 144 578 85 q 706 324 706 204 l 706 972 l 822 972 l 822 325 q 778 135 822 213 q 652 19 733 58 q 463 -19 571 -19 m 249 1071 l 249 1161 l 676 1161 l 676 1071 l 249 1071 z "},"Ŭ":{"ha":925,"x_min":104,"x_max":822,"o":"m 463 -19 q 274 19 354 -19 q 149 135 193 58 q 104 325 104 213 l 104 972 l 219 972 l 219 324 q 283 144 219 204 q 463 85 347 85 q 642 144 578 85 q 706 324 706 204 l 706 972 l 822 972 l 822 325 q 778 135 822 213 q 652 19 733 58 q 463 -19 571 -19 m 463 1044 q 310 1093 365 1044 q 256 1219 256 1142 l 256 1224 l 353 1224 l 353 1219 q 380 1149 353 1176 q 463 1122 407 1122 q 547 1149 519 1122 q 575 1219 575 1176 l 575 1224 l 671 1224 l 671 1219 q 616 1093 671 1142 q 463 1044 561 1044 z "},"Ů":{"ha":925,"x_min":104,"x_max":822,"o":"m 463 -19 q 274 19 354 -19 q 149 135 193 58 q 104 325 104 213 l 104 972 l 219 972 l 219 324 q 283 144 219 204 q 463 85 347 85 q 642 144 578 85 q 706 324 706 204 l 706 972 l 822 972 l 822 325 q 778 135 822 213 q 652 19 733 58 q 463 -19 571 -19 m 464 1039 q 367 1076 407 1039 q 326 1172 326 1113 q 367 1267 326 1231 q 463 1304 407 1304 q 561 1267 521 1304 q 601 1172 601 1231 q 561 1076 601 1113 q 464 1039 521 1039 m 464 1113 q 508 1129 492 1113 q 524 1172 524 1146 q 508 1215 524 1197 q 464 1232 492 1232 q 420 1215 436 1232 q 404 1172 404 1197 q 420 1129 404 1146 q 464 1113 436 1113 z "},"Ű":{"ha":925,"x_min":104,"x_max":822,"o":"m 463 -19 q 274 19 354 -19 q 149 135 193 58 q 104 325 104 213 l 104 972 l 219 972 l 219 324 q 283 144 219 204 q 463 85 347 85 q 642 144 578 85 q 706 324 706 204 l 706 972 l 822 972 l 822 325 q 778 135 822 213 q 652 19 733 58 q 463 -19 571 -19 m 483 1057 l 582 1225 l 714 1225 l 583 1057 l 483 1057 m 289 1057 l 368 1225 l 486 1225 l 381 1057 l 289 1057 z "},"Ų":{"ha":925,"x_min":104,"x_max":822,"o":"m 463 -19 q 274 19 354 -19 q 149 135 193 58 q 104 325 104 213 l 104 972 l 219 972 l 219 324 q 283 144 219 204 q 463 85 347 85 q 642 144 578 85 q 706 324 706 204 l 706 972 l 822 972 l 822 325 q 778 135 822 213 q 652 19 733 58 q 463 -19 571 -19 m 596 -228 q 524 -204 551 -228 q 497 -137 497 -181 q 501 -97 497 -118 q 510 -54 504 -76 l 526 19 l 608 19 l 592 -78 q 588 -98 590 -90 q 586 -115 586 -106 q 617 -143 586 -143 l 675 -143 l 675 -228 l 596 -228 z "},"Ŵ":{"ha":1215,"x_min":51,"x_max":1164,"o":"m 210 0 l 51 972 l 168 972 l 306 75 l 325 75 l 504 972 l 713 972 l 890 75 l 910 75 l 1047 972 l 1164 972 l 1006 0 l 797 0 l 618 903 l 599 903 l 419 0 l 210 0 m 365 1053 l 542 1221 l 674 1221 l 850 1053 l 715 1053 l 617 1154 l 599 1154 l 500 1053 l 365 1053 z "},"Ý":{"ha":847,"x_min":19,"x_max":828,"o":"m 365 0 l 365 371 l 19 972 l 153 972 l 414 506 l 433 506 l 694 972 l 828 972 l 482 371 l 482 0 l 365 0 m 346 1053 l 439 1221 l 575 1221 l 453 1053 l 346 1053 z "},"Ŷ":{"ha":847,"x_min":19,"x_max":828,"o":"m 365 0 l 365 371 l 19 972 l 153 972 l 414 506 l 433 506 l 694 972 l 828 972 l 482 371 l 482 0 l 365 0 m 181 1053 l 357 1221 l 489 1221 l 665 1053 l 531 1053 l 432 1154 l 414 1154 l 315 1053 l 181 1053 z "},"Ÿ":{"ha":847,"x_min":19,"x_max":828,"o":"m 365 0 l 365 371 l 19 972 l 153 972 l 414 506 l 433 506 l 694 972 l 828 972 l 482 371 l 482 0 l 365 0 m 561 1056 q 501 1078 525 1056 q 478 1138 478 1101 q 501 1197 478 1175 q 561 1219 525 1219 q 620 1197 597 1219 q 643 1138 643 1175 q 620 1078 643 1101 q 561 1056 597 1056 m 286 1056 q 226 1078 250 1056 q 203 1138 203 1101 q 226 1197 203 1175 q 286 1219 250 1219 q 346 1197 322 1219 q 369 1138 369 1175 q 346 1078 369 1101 q 286 1056 322 1056 z "},"Ź":{"ha":801,"x_min":69,"x_max":738,"o":"m 69 0 l 69 154 l 611 851 l 611 868 l 86 868 l 86 972 l 726 972 l 726 818 l 185 121 l 185 104 l 738 104 l 738 0 l 69 0 m 319 1053 l 413 1221 l 549 1221 l 426 1053 l 319 1053 z "},"Ž":{"ha":801,"x_min":69,"x_max":738,"o":"m 69 0 l 69 154 l 611 851 l 611 868 l 86 868 l 86 972 l 726 972 l 726 818 l 185 121 l 185 104 l 738 104 l 738 0 l 69 0 m 331 1053 l 154 1221 l 289 1221 l 388 1119 l 406 1119 l 504 1221 l 639 1221 l 463 1053 l 331 1053 z "},"Ż":{"ha":801,"x_min":69,"x_max":738,"o":"m 69 0 l 69 154 l 611 851 l 611 868 l 86 868 l 86 972 l 726 972 l 726 818 l 185 121 l 185 104 l 738 104 l 738 0 l 69 0 m 397 1056 q 337 1079 361 1056 q 313 1139 313 1103 q 337 1199 313 1176 q 397 1222 361 1222 q 457 1199 433 1222 q 481 1139 481 1176 q 457 1079 481 1103 q 397 1056 433 1056 z "},"Þ":{"ha":835,"x_min":111,"x_max":789,"o":"m 228 211 l 228 317 l 471 317 q 618 364 564 317 q 672 494 672 411 l 672 508 q 619 640 672 593 q 471 686 565 686 l 228 686 l 228 792 l 483 792 q 640 758 571 792 q 749 661 708 724 q 789 510 789 599 l 789 493 q 748 342 789 406 q 638 244 707 278 q 483 211 568 211 l 228 211 m 111 0 l 111 972 l 228 972 l 228 0 l 111 0 z "},"Ŋ":{"ha":922,"x_min":111,"x_max":810,"o":"m 111 0 l 111 972 l 338 972 l 675 74 l 694 74 l 694 972 l 810 972 l 810 0 l 583 0 l 247 900 l 228 900 l 228 0 l 111 0 m 514 -278 l 514 -183 l 658 -183 q 697 -142 697 -183 l 697 0 l 810 0 l 810 -160 q 778 -248 810 -218 q 692 -278 746 -278 l 514 -278 z "},"Ĳ":{"ha":996,"x_min":60,"x_max":933,"o":"m 504 -21 q 267 61 354 -21 q 179 297 179 143 l 179 318 l 294 318 l 294 297 q 347 144 294 203 q 504 86 400 86 q 654 144 610 86 q 699 297 699 203 l 699 865 l 579 865 l 579 971 l 933 971 l 933 865 l 815 865 l 815 297 q 736 60 815 142 q 504 -21 657 -21 m 179 482 l 179 867 l 60 867 l 60 972 l 414 972 l 414 867 l 294 867 l 294 482 l 179 482 z "},"":{"ha":997,"x_min":60,"x_max":933,"o":"m 504 -21 q 267 61 354 -21 q 179 297 179 143 l 179 318 l 294 318 l 294 297 q 347 144 294 203 q 504 86 400 86 q 654 144 610 86 q 699 297 699 203 l 699 865 l 579 865 l 579 971 l 933 971 l 933 865 l 815 865 l 815 297 q 736 60 815 142 q 504 -21 657 -21 m 179 482 l 179 867 l 60 867 l 60 972 l 414 972 l 414 867 l 294 867 l 294 482 l 179 482 m 160 1053 l 253 1221 l 389 1221 l 265 1053 l 160 1053 m 679 1053 l 776 1221 l 913 1221 l 785 1053 l 679 1053 z "},"à":{"ha":799,"x_min":69,"x_max":764,"o":"m 324 -19 q 194 6 253 -19 q 103 78 136 31 q 69 193 69 125 q 103 308 69 263 q 194 376 136 353 q 325 399 253 399 l 554 399 l 554 449 q 512 563 554 521 q 386 604 469 604 q 258 565 304 604 q 196 458 213 525 l 93 492 q 146 595 110 549 q 242 670 182 642 q 388 699 303 699 q 590 631 518 699 q 663 442 663 564 l 663 135 q 701 93 663 93 l 764 93 l 764 0 l 668 0 q 594 26 622 0 q 567 94 567 51 l 567 101 l 550 101 q 509 47 535 75 q 439 -1 483 18 q 324 -19 394 -19 m 336 75 q 494 133 433 75 q 554 294 554 190 l 554 310 l 329 310 q 222 281 264 310 q 179 196 179 253 q 223 107 179 139 q 336 75 267 75 m 358 782 l 225 972 l 358 972 l 464 782 l 358 782 z "},"á":{"ha":799,"x_min":69,"x_max":764,"o":"m 324 -19 q 194 6 253 -19 q 103 78 136 31 q 69 193 69 125 q 103 308 69 263 q 194 376 136 353 q 325 399 253 399 l 554 399 l 554 449 q 512 563 554 521 q 386 604 469 604 q 258 565 304 604 q 196 458 213 525 l 93 492 q 146 595 110 549 q 242 670 182 642 q 388 699 303 699 q 590 631 518 699 q 663 442 663 564 l 663 135 q 701 93 663 93 l 764 93 l 764 0 l 668 0 q 594 26 622 0 q 567 94 567 51 l 567 101 l 550 101 q 509 47 535 75 q 439 -1 483 18 q 324 -19 394 -19 m 336 75 q 494 133 433 75 q 554 294 554 190 l 554 310 l 329 310 q 222 281 264 310 q 179 196 179 253 q 223 107 179 139 q 336 75 267 75 m 318 771 l 425 960 l 557 960 l 424 771 l 318 771 z "},"â":{"ha":799,"x_min":69,"x_max":764,"o":"m 324 -19 q 194 6 253 -19 q 103 78 136 31 q 69 193 69 125 q 103 308 69 263 q 194 376 136 353 q 325 399 253 399 l 554 399 l 554 449 q 512 563 554 521 q 386 604 469 604 q 258 565 304 604 q 196 458 213 525 l 93 492 q 146 595 110 549 q 242 670 182 642 q 388 699 303 699 q 590 631 518 699 q 663 442 663 564 l 663 135 q 701 93 663 93 l 764 93 l 764 0 l 668 0 q 594 26 622 0 q 567 94 567 51 l 567 101 l 550 101 q 509 47 535 75 q 439 -1 483 18 q 324 -19 394 -19 m 336 75 q 494 133 433 75 q 554 294 554 190 l 554 310 l 329 310 q 222 281 264 310 q 179 196 179 253 q 223 107 179 139 q 336 75 267 75 m 151 771 l 324 960 l 458 960 l 629 771 l 506 771 l 400 888 l 381 888 l 276 771 l 151 771 z "},"ã":{"ha":799,"x_min":69,"x_max":764,"o":"m 324 -19 q 194 6 253 -19 q 103 78 136 31 q 69 193 69 125 q 103 308 69 263 q 194 376 136 353 q 325 399 253 399 l 554 399 l 554 449 q 512 563 554 521 q 386 604 469 604 q 258 565 304 604 q 196 458 213 525 l 93 492 q 146 595 110 549 q 242 670 182 642 q 388 699 303 699 q 590 631 518 699 q 663 442 663 564 l 663 135 q 701 93 663 93 l 764 93 l 764 0 l 668 0 q 594 26 622 0 q 567 94 567 51 l 567 101 l 550 101 q 509 47 535 75 q 439 -1 483 18 q 324 -19 394 -19 m 336 75 q 494 133 433 75 q 554 294 554 190 l 554 310 l 329 310 q 222 281 264 310 q 179 196 179 253 q 223 107 179 139 q 336 75 267 75 m 238 758 l 168 799 l 211 876 q 252 920 228 904 q 308 936 276 936 q 359 924 338 936 q 406 886 381 913 q 436 853 422 867 q 465 840 450 840 q 490 849 481 840 q 508 872 500 858 l 542 932 l 611 892 l 568 813 q 529 769 553 785 q 472 753 506 753 q 421 765 443 753 q 375 804 399 776 q 344 835 358 822 q 315 849 331 849 q 289 840 299 849 q 272 818 279 831 l 238 758 z "},"ä":{"ha":799,"x_min":69,"x_max":764,"o":"m 324 -19 q 194 6 253 -19 q 103 78 136 31 q 69 193 69 125 q 103 308 69 263 q 194 376 136 353 q 325 399 253 399 l 554 399 l 554 449 q 512 563 554 521 q 386 604 469 604 q 258 565 304 604 q 196 458 213 525 l 93 492 q 146 595 110 549 q 242 670 182 642 q 388 699 303 699 q 590 631 518 699 q 663 442 663 564 l 663 135 q 701 93 663 93 l 764 93 l 764 0 l 668 0 q 594 26 622 0 q 567 94 567 51 l 567 101 l 550 101 q 509 47 535 75 q 439 -1 483 18 q 324 -19 394 -19 m 336 75 q 494 133 433 75 q 554 294 554 190 l 554 310 l 329 310 q 222 281 264 310 q 179 196 179 253 q 223 107 179 139 q 336 75 267 75 m 521 783 q 463 806 486 783 q 439 867 439 829 q 463 926 439 904 q 521 949 486 949 q 581 926 558 949 q 604 867 604 904 q 581 806 604 829 q 521 783 558 783 m 261 783 q 201 806 225 783 q 178 867 178 829 q 201 926 178 904 q 261 949 225 949 q 321 926 297 949 q 344 867 344 904 q 321 806 344 829 q 261 783 297 783 z "},"ā":{"ha":799,"x_min":69,"x_max":764,"o":"m 324 -19 q 194 6 253 -19 q 103 78 136 31 q 69 193 69 125 q 103 308 69 263 q 194 376 136 353 q 325 399 253 399 l 554 399 l 554 449 q 512 563 554 521 q 386 604 469 604 q 258 565 304 604 q 196 458 213 525 l 93 492 q 146 595 110 549 q 242 670 182 642 q 388 699 303 699 q 590 631 518 699 q 663 442 663 564 l 663 135 q 701 93 663 93 l 764 93 l 764 0 l 668 0 q 594 26 622 0 q 567 94 567 51 l 567 101 l 550 101 q 509 47 535 75 q 439 -1 483 18 q 324 -19 394 -19 m 336 75 q 494 133 433 75 q 554 294 554 190 l 554 310 l 329 310 q 222 281 264 310 q 179 196 179 253 q 223 107 179 139 q 336 75 267 75 m 176 799 l 176 889 l 604 889 l 604 799 l 176 799 z "},"ă":{"ha":799,"x_min":69,"x_max":764,"o":"m 324 -19 q 194 6 253 -19 q 103 78 136 31 q 69 193 69 125 q 103 308 69 263 q 194 376 136 353 q 325 399 253 399 l 554 399 l 554 449 q 512 563 554 521 q 386 604 469 604 q 258 565 304 604 q 196 458 213 525 l 93 492 q 146 595 110 549 q 242 670 182 642 q 388 699 303 699 q 590 631 518 699 q 663 442 663 564 l 663 135 q 701 93 663 93 l 764 93 l 764 0 l 668 0 q 594 26 622 0 q 567 94 567 51 l 567 101 l 550 101 q 509 47 535 75 q 439 -1 483 18 q 324 -19 394 -19 m 336 75 q 494 133 433 75 q 554 294 554 190 l 554 310 l 329 310 q 222 281 264 310 q 179 196 179 253 q 223 107 179 139 q 336 75 267 75 m 392 767 q 244 815 300 767 q 188 951 188 864 l 188 960 l 285 960 l 285 953 q 311 877 285 907 q 392 847 338 847 q 472 877 446 847 q 497 953 497 907 l 497 960 l 594 960 l 594 951 q 539 815 594 864 q 392 767 483 767 z "},"å":{"ha":799,"x_min":69,"x_max":764,"o":"m 324 -19 q 194 6 253 -19 q 103 78 136 31 q 69 193 69 125 q 103 308 69 263 q 194 376 136 353 q 325 399 253 399 l 554 399 l 554 449 q 512 563 554 521 q 386 604 469 604 q 258 565 304 604 q 196 458 213 525 l 93 492 q 146 595 110 549 q 242 670 182 642 q 388 699 303 699 q 590 631 518 699 q 663 442 663 564 l 663 135 q 701 93 663 93 l 764 93 l 764 0 l 668 0 q 594 26 622 0 q 567 94 567 51 l 567 101 l 550 101 q 509 47 535 75 q 439 -1 483 18 q 324 -19 394 -19 m 336 75 q 494 133 433 75 q 554 294 554 190 l 554 310 l 329 310 q 222 281 264 310 q 179 196 179 253 q 223 107 179 139 q 336 75 267 75 m 392 754 q 294 791 335 754 q 254 886 254 828 q 294 983 254 946 q 390 1019 335 1019 q 489 983 449 1019 q 529 886 529 946 q 489 790 529 826 q 392 754 449 754 m 392 828 q 435 844 419 828 q 451 886 451 861 q 435 929 451 913 q 392 946 419 946 q 348 929 364 946 q 332 886 332 913 q 348 844 332 861 q 392 828 364 828 z "},"ą":{"ha":799,"x_min":69,"x_max":768,"o":"m 324 -19 q 194 6 253 -19 q 103 78 136 31 q 69 193 69 125 q 103 308 69 263 q 194 376 136 353 q 325 399 253 399 l 554 399 l 554 449 q 512 563 554 521 q 386 604 469 604 q 258 565 304 604 q 196 458 213 525 l 93 492 q 146 595 110 549 q 242 670 182 642 q 388 699 303 699 q 590 631 518 699 q 663 442 663 564 l 663 135 q 701 93 663 93 l 764 93 l 764 0 l 668 0 q 594 26 622 0 q 567 94 567 51 l 567 101 l 550 101 q 509 47 535 75 q 439 -1 483 18 q 324 -19 394 -19 m 336 75 q 494 133 433 75 q 554 294 554 190 l 554 310 l 329 310 q 222 281 264 310 q 179 196 179 253 q 223 107 179 139 q 336 75 267 75 m 688 -228 q 616 -204 643 -228 q 589 -137 589 -181 q 592 -97 589 -118 q 601 -54 596 -76 l 618 19 l 700 19 l 683 -78 q 680 -98 682 -90 q 678 -115 678 -106 q 708 -143 678 -143 l 767 -143 l 767 -228 l 688 -228 z "},"æ":{"ha":1285,"x_min":69,"x_max":1208,"o":"m 908 -19 q 733 29 808 -19 q 617 160 658 78 q 576 344 576 243 q 617 526 576 446 q 731 652 658 606 q 896 699 803 699 q 1062 657 992 699 q 1170 541 1132 615 q 1208 367 1208 467 l 1208 307 l 676 307 q 744 140 683 201 q 906 78 806 78 q 1035 117 990 78 q 1106 208 1081 157 l 1193 156 q 1133 69 1168 110 q 1043 5 1097 29 q 908 -19 989 -19 m 349 72 q 506 131 446 72 q 567 293 567 190 l 567 307 l 338 307 q 223 278 268 307 q 178 194 178 250 q 225 105 178 138 q 349 72 272 72 m 340 -19 q 146 35 222 -19 q 69 192 69 89 q 144 344 69 294 q 333 394 219 394 l 567 394 l 567 449 q 520 563 567 521 q 390 604 474 604 q 256 565 306 604 q 189 461 207 525 l 89 493 q 144 596 107 550 q 243 670 182 642 q 390 699 304 699 q 541 663 482 699 q 629 569 600 628 l 661 569 l 631 354 l 649 139 l 613 139 q 563 64 596 100 q 476 4 531 28 q 340 -19 422 -19 m 678 394 l 1099 394 q 1040 547 1096 494 q 894 600 985 600 q 744 545 803 600 q 678 394 686 490 z "},"ç":{"ha":831,"x_min":82,"x_max":758,"o":"m 428 -19 q 251 23 329 -19 q 127 144 172 65 q 82 332 82 224 l 82 347 q 127 535 82 457 q 251 656 172 614 q 428 699 329 699 q 594 663 525 699 q 702 567 663 626 q 753 439 742 507 l 646 417 q 613 508 639 467 q 542 575 588 550 q 429 600 496 600 q 308 569 361 600 q 223 482 254 539 q 192 346 192 425 l 192 333 q 223 197 192 254 q 308 110 254 140 q 429 79 361 79 q 584 132 531 79 q 650 263 638 185 l 758 239 q 703 113 743 172 q 594 17 663 53 q 428 -19 525 -19 m 432 -285 q 353 -274 390 -285 q 286 -244 315 -262 l 319 -175 q 370 -199 343 -189 q 431 -208 397 -208 q 478 -197 458 -208 q 497 -161 497 -186 q 480 -128 497 -139 q 429 -117 463 -117 l 378 -117 l 392 29 l 472 29 l 464 -62 q 551 -90 518 -62 q 585 -171 585 -118 q 564 -235 585 -210 q 508 -273 543 -261 q 432 -285 474 -285 z "},"ć":{"ha":831,"x_min":82,"x_max":758,"o":"m 428 -19 q 251 23 329 -19 q 127 144 172 65 q 82 332 82 224 l 82 347 q 127 535 82 457 q 251 656 172 614 q 428 699 329 699 q 594 663 525 699 q 702 567 663 626 q 753 439 742 507 l 646 417 q 613 508 639 467 q 542 575 588 550 q 429 600 496 600 q 308 569 361 600 q 223 482 254 539 q 192 346 192 425 l 192 333 q 223 197 192 254 q 308 110 254 140 q 429 79 361 79 q 584 132 531 79 q 650 263 638 185 l 758 239 q 703 113 743 172 q 594 17 663 53 q 428 -19 525 -19 m 354 771 l 461 960 l 593 960 l 460 771 l 354 771 z "},"ĉ":{"ha":831,"x_min":82,"x_max":758,"o":"m 428 -19 q 251 23 329 -19 q 127 144 172 65 q 82 332 82 224 l 82 347 q 127 535 82 457 q 251 656 172 614 q 428 699 329 699 q 594 663 525 699 q 702 567 663 626 q 753 439 742 507 l 646 417 q 613 508 639 467 q 542 575 588 550 q 429 600 496 600 q 308 569 361 600 q 223 482 254 539 q 192 346 192 425 l 192 333 q 223 197 192 254 q 308 110 254 140 q 429 79 361 79 q 584 132 531 79 q 650 263 638 185 l 758 239 q 703 113 743 172 q 594 17 663 53 q 428 -19 525 -19 m 189 771 l 361 960 l 496 960 l 667 771 l 543 771 l 438 888 l 418 888 l 314 771 l 189 771 z "},"č":{"ha":831,"x_min":82,"x_max":758,"o":"m 428 -19 q 251 23 329 -19 q 127 144 172 65 q 82 332 82 224 l 82 347 q 127 535 82 457 q 251 656 172 614 q 428 699 329 699 q 594 663 525 699 q 702 567 663 626 q 753 439 742 507 l 646 417 q 613 508 639 467 q 542 575 588 550 q 429 600 496 600 q 308 569 361 600 q 223 482 254 539 q 192 346 192 425 l 192 333 q 223 197 192 254 q 308 110 254 140 q 429 79 361 79 q 584 132 531 79 q 650 263 638 185 l 758 239 q 703 113 743 172 q 594 17 663 53 q 428 -19 525 -19 m 361 771 l 189 960 l 314 960 l 418 844 l 438 844 l 543 960 l 667 960 l 496 771 l 361 771 z "},"ċ":{"ha":831,"x_min":82,"x_max":758,"o":"m 428 -19 q 251 23 329 -19 q 127 144 172 65 q 82 332 82 224 l 82 347 q 127 535 82 457 q 251 656 172 614 q 428 699 329 699 q 594 663 525 699 q 702 567 663 626 q 753 439 742 507 l 646 417 q 613 508 639 467 q 542 575 588 550 q 429 600 496 600 q 308 569 361 600 q 223 482 254 539 q 192 346 192 425 l 192 333 q 223 197 192 254 q 308 110 254 140 q 429 79 361 79 q 584 132 531 79 q 650 263 638 185 l 758 239 q 703 113 743 172 q 594 17 663 53 q 428 -19 525 -19 m 428 785 q 367 808 392 785 q 343 868 343 832 q 367 929 343 906 q 428 953 392 953 q 488 929 464 953 q 511 868 511 906 q 488 808 511 832 q 428 785 464 785 z "},"ð":{"ha":854,"x_min":82,"x_max":776,"o":"m 429 -19 q 247 24 325 -19 q 125 147 168 68 q 82 331 82 226 l 82 347 q 124 528 82 451 q 239 649 165 606 q 406 693 313 693 q 536 669 483 694 q 624 603 589 643 l 642 603 q 526 794 614 710 q 283 925 438 879 l 318 1011 q 567 883 464 967 q 723 672 669 799 q 776 374 776 544 q 733 160 776 247 q 613 26 690 72 q 429 -19 535 -19 m 429 79 q 553 110 500 79 q 637 199 607 142 q 667 335 667 257 l 667 344 q 601 530 667 460 q 429 600 536 600 q 257 530 322 600 q 192 344 192 460 l 192 335 q 257 149 192 218 q 429 79 322 79 m 404 756 l 343 799 l 513 1033 l 574 989 l 404 756 z "},"ď":{"ha":988,"x_min":82,"x_max":1006,"o":"m 403 -19 q 242 22 315 -19 q 125 143 168 64 q 82 331 82 222 l 82 349 q 125 535 82 457 q 241 656 168 614 q 403 699 314 699 q 523 680 474 699 q 603 633 572 661 q 650 572 633 604 l 669 572 l 669 972 l 779 972 l 779 0 l 672 0 l 672 113 l 653 113 q 567 21 625 61 q 403 -19 508 -19 m 432 78 q 603 145 538 78 q 669 333 669 213 l 669 346 q 603 534 669 467 q 432 601 538 601 q 260 534 328 601 q 193 346 193 467 l 193 333 q 260 145 193 213 q 432 78 328 78 m 881 714 l 893 972 l 1006 972 l 963 714 l 881 714 z "},"đ":{"ha":894,"x_min":82,"x_max":886,"o":"m 403 -19 q 242 22 315 -19 q 125 143 168 64 q 82 331 82 222 l 82 349 q 125 535 82 457 q 241 656 168 614 q 403 699 314 699 q 523 680 474 699 q 603 633 572 661 q 650 572 633 604 l 669 572 l 669 972 l 779 972 l 779 0 l 672 0 l 672 113 l 653 113 q 567 21 625 61 q 403 -19 508 -19 m 432 78 q 603 145 538 78 q 669 333 669 213 l 669 346 q 603 534 669 467 q 432 601 538 601 q 260 534 328 601 q 193 346 193 467 l 193 333 q 260 145 193 213 q 432 78 328 78 m 432 782 l 432 854 l 886 854 l 886 782 l 432 782 z "},"è":{"ha":822,"x_min":82,"x_max":746,"o":"m 426 -19 q 246 24 324 -19 q 125 147 168 68 q 82 331 82 226 l 82 347 q 125 532 82 453 q 244 655 168 611 q 419 699 321 699 q 589 658 515 699 q 704 540 663 617 q 746 361 746 464 l 746 311 l 192 311 q 263 140 196 201 q 429 78 329 78 q 564 118 517 78 q 636 214 611 158 l 731 168 q 673 82 710 125 q 577 10 636 39 q 426 -19 518 -19 m 193 401 l 635 401 q 570 549 629 496 q 419 601 511 601 q 267 549 326 601 q 193 401 207 496 m 386 782 l 253 972 l 386 972 l 492 782 l 386 782 z "},"é":{"ha":822,"x_min":82,"x_max":746,"o":"m 426 -19 q 246 24 324 -19 q 125 147 168 68 q 82 331 82 226 l 82 347 q 125 532 82 453 q 244 655 168 611 q 419 699 321 699 q 589 658 515 699 q 704 540 663 617 q 746 361 746 464 l 746 311 l 192 311 q 263 140 196 201 q 429 78 329 78 q 564 118 517 78 q 636 214 611 158 l 731 168 q 673 82 710 125 q 577 10 636 39 q 426 -19 518 -19 m 193 401 l 635 401 q 570 549 629 496 q 419 601 511 601 q 267 549 326 601 q 193 401 207 496 m 346 771 l 453 960 l 585 960 l 451 771 l 346 771 z "},"ê":{"ha":822,"x_min":82,"x_max":746,"o":"m 426 -19 q 246 24 324 -19 q 125 147 168 68 q 82 331 82 226 l 82 347 q 125 532 82 453 q 244 655 168 611 q 419 699 321 699 q 589 658 515 699 q 704 540 663 617 q 746 361 746 464 l 746 311 l 192 311 q 263 140 196 201 q 429 78 329 78 q 564 118 517 78 q 636 214 611 158 l 731 168 q 673 82 710 125 q 577 10 636 39 q 426 -19 518 -19 m 193 401 l 635 401 q 570 549 629 496 q 419 601 511 601 q 267 549 326 601 q 193 401 207 496 m 179 771 l 351 960 l 486 960 l 657 771 l 533 771 l 428 888 l 408 888 l 304 771 l 179 771 z "},"ě":{"ha":822,"x_min":82,"x_max":746,"o":"m 426 -19 q 246 24 324 -19 q 125 147 168 68 q 82 331 82 226 l 82 347 q 125 532 82 453 q 244 655 168 611 q 419 699 321 699 q 589 658 515 699 q 704 540 663 617 q 746 361 746 464 l 746 311 l 192 311 q 263 140 196 201 q 429 78 329 78 q 564 118 517 78 q 636 214 611 158 l 731 168 q 673 82 710 125 q 577 10 636 39 q 426 -19 518 -19 m 193 401 l 635 401 q 570 549 629 496 q 419 601 511 601 q 267 549 326 601 q 193 401 207 496 m 351 771 l 179 960 l 304 960 l 408 844 l 428 844 l 533 960 l 657 960 l 486 771 l 351 771 z "},"ë":{"ha":822,"x_min":82,"x_max":746,"o":"m 426 -19 q 246 24 324 -19 q 125 147 168 68 q 82 331 82 226 l 82 347 q 125 532 82 453 q 244 655 168 611 q 419 699 321 699 q 589 658 515 699 q 704 540 663 617 q 746 361 746 464 l 746 311 l 192 311 q 263 140 196 201 q 429 78 329 78 q 564 118 517 78 q 636 214 611 158 l 731 168 q 673 82 710 125 q 577 10 636 39 q 426 -19 518 -19 m 193 401 l 635 401 q 570 549 629 496 q 419 601 511 601 q 267 549 326 601 q 193 401 207 496 m 549 783 q 490 806 514 783 q 467 867 467 829 q 490 926 467 904 q 549 949 514 949 q 609 926 586 949 q 632 867 632 904 q 609 806 632 829 q 549 783 586 783 m 289 783 q 229 806 253 783 q 206 867 206 829 q 229 926 206 904 q 289 949 253 949 q 349 926 325 949 q 372 867 372 904 q 349 806 372 829 q 289 783 325 783 z "},"ē":{"ha":822,"x_min":82,"x_max":746,"o":"m 426 -19 q 246 24 324 -19 q 125 147 168 68 q 82 331 82 226 l 82 347 q 125 532 82 453 q 244 655 168 611 q 419 699 321 699 q 589 658 515 699 q 704 540 663 617 q 746 361 746 464 l 746 311 l 192 311 q 263 140 196 201 q 429 78 329 78 q 564 118 517 78 q 636 214 611 158 l 731 168 q 673 82 710 125 q 577 10 636 39 q 426 -19 518 -19 m 193 401 l 635 401 q 570 549 629 496 q 419 601 511 601 q 267 549 326 601 q 193 401 207 496 m 206 799 l 206 889 l 633 889 l 633 799 l 206 799 z "},"ĕ":{"ha":822,"x_min":82,"x_max":746,"o":"m 426 -19 q 246 24 324 -19 q 125 147 168 68 q 82 331 82 226 l 82 347 q 125 532 82 453 q 244 655 168 611 q 419 699 321 699 q 589 658 515 699 q 704 540 663 617 q 746 361 746 464 l 746 311 l 192 311 q 263 140 196 201 q 429 78 329 78 q 564 118 517 78 q 636 214 611 158 l 731 168 q 673 82 710 125 q 577 10 636 39 q 426 -19 518 -19 m 193 401 l 635 401 q 570 549 629 496 q 419 601 511 601 q 267 549 326 601 q 193 401 207 496 m 419 767 q 272 815 328 767 q 215 951 215 864 l 215 960 l 313 960 l 313 953 q 339 877 313 907 q 419 847 365 847 q 499 877 474 847 q 525 953 525 907 l 525 960 l 622 960 l 622 951 q 567 815 622 864 q 419 767 511 767 z "},"ę":{"ha":822,"x_min":82,"x_max":746,"o":"m 426 -19 q 246 24 324 -19 q 125 147 168 68 q 82 331 82 226 l 82 347 q 125 532 82 453 q 244 655 168 611 q 419 699 321 699 q 589 658 515 699 q 704 540 663 617 q 746 361 746 464 l 746 311 l 192 311 q 263 140 196 201 q 429 78 329 78 q 564 118 517 78 q 636 214 611 158 l 731 168 q 673 82 710 125 q 577 10 636 39 q 426 -19 518 -19 m 193 401 l 635 401 q 570 549 629 496 q 419 601 511 601 q 267 549 326 601 q 193 401 207 496 m 551 -228 q 480 -204 507 -228 q 453 -137 453 -181 q 456 -97 453 -118 q 465 -54 460 -76 l 482 19 l 564 19 l 547 -78 q 544 -98 546 -90 q 542 -115 542 -106 q 572 -143 542 -143 l 631 -143 l 631 -228 l 551 -228 z "},"ė":{"ha":822,"x_min":82,"x_max":746,"o":"m 426 -19 q 246 24 324 -19 q 125 147 168 68 q 82 331 82 226 l 82 347 q 125 532 82 453 q 244 655 168 611 q 419 699 321 699 q 589 658 515 699 q 704 540 663 617 q 746 361 746 464 l 746 311 l 192 311 q 263 140 196 201 q 429 78 329 78 q 564 118 517 78 q 636 214 611 158 l 731 168 q 673 82 710 125 q 577 10 636 39 q 426 -19 518 -19 m 193 401 l 635 401 q 570 549 629 496 q 419 601 511 601 q 267 549 326 601 q 193 401 207 496 m 419 785 q 359 808 383 785 q 335 868 335 832 q 359 929 335 906 q 419 953 383 953 q 479 929 456 953 q 503 868 503 906 q 479 808 503 832 q 419 785 456 785 z "},"ĝ":{"ha":892,"x_min":82,"x_max":776,"o":"m 82 336 l 82 356 q 125 539 82 463 q 242 657 168 615 q 403 699 315 699 q 567 658 510 699 q 653 567 625 617 l 672 567 l 672 679 l 776 679 l 776 -158 q 746 -246 776 -214 q 657 -278 715 -278 l 196 -278 l 196 -181 l 628 -181 q 669 -139 669 -181 l 669 119 l 650 119 q 603 60 633 89 q 524 12 572 31 q 403 -7 475 -7 q 242 35 315 -7 q 125 153 168 76 q 82 336 82 231 m 432 90 q 603 157 538 90 q 669 340 669 224 l 669 351 q 603 535 669 469 q 432 601 538 601 q 260 535 328 601 q 193 351 193 469 l 193 340 q 260 157 193 224 q 432 90 328 90 m 221 771 l 393 960 l 528 960 l 699 771 l 575 771 l 469 888 l 450 888 l 346 771 l 221 771 z "},"ğ":{"ha":892,"x_min":82,"x_max":776,"o":"m 82 336 l 82 356 q 125 539 82 463 q 242 657 168 615 q 403 699 315 699 q 567 658 510 699 q 653 567 625 617 l 672 567 l 672 679 l 776 679 l 776 -158 q 746 -246 776 -214 q 657 -278 715 -278 l 196 -278 l 196 -181 l 628 -181 q 669 -139 669 -181 l 669 119 l 650 119 q 603 60 633 89 q 524 12 572 31 q 403 -7 475 -7 q 242 35 315 -7 q 125 153 168 76 q 82 336 82 231 m 432 90 q 603 157 538 90 q 669 340 669 224 l 669 351 q 603 535 669 469 q 432 601 538 601 q 260 535 328 601 q 193 351 193 469 l 193 340 q 260 157 193 224 q 432 90 328 90 m 460 767 q 312 815 368 767 q 256 951 256 864 l 256 960 l 353 960 l 353 953 q 379 877 353 907 q 460 847 406 847 q 540 877 514 847 q 565 953 565 907 l 565 960 l 663 960 l 663 951 q 607 815 663 864 q 460 767 551 767 z "},"ġ":{"ha":892,"x_min":82,"x_max":776,"o":"m 82 336 l 82 356 q 125 539 82 463 q 242 657 168 615 q 403 699 315 699 q 567 658 510 699 q 653 567 625 617 l 672 567 l 672 679 l 776 679 l 776 -158 q 746 -246 776 -214 q 657 -278 715 -278 l 196 -278 l 196 -181 l 628 -181 q 669 -139 669 -181 l 669 119 l 650 119 q 603 60 633 89 q 524 12 572 31 q 403 -7 475 -7 q 242 35 315 -7 q 125 153 168 76 q 82 336 82 231 m 432 90 q 603 157 538 90 q 669 340 669 224 l 669 351 q 603 535 669 469 q 432 601 538 601 q 260 535 328 601 q 193 351 193 469 l 193 340 q 260 157 193 224 q 432 90 328 90 m 460 785 q 399 808 424 785 q 375 868 375 832 q 399 929 375 906 q 460 953 424 953 q 519 929 496 953 q 543 868 543 906 q 519 808 543 832 q 460 785 496 785 z "},"ĥ":{"ha":851,"x_min":-72,"x_max":744,"o":"m 115 0 l 115 972 l 225 972 l 225 571 l 244 571 q 287 628 258 601 q 360 674 315 656 q 475 692 406 692 q 612 659 551 692 q 708 565 672 626 q 744 411 744 503 l 744 0 l 635 0 l 635 403 q 584 550 635 504 q 447 596 533 596 q 287 532 349 596 q 225 342 225 468 l 225 0 l 115 0 m -72 1053 l 104 1221 l 236 1221 l 413 1053 l 278 1053 l 179 1154 l 161 1154 l 63 1053 l -72 1053 z "},"ħ":{"ha":851,"x_min":8,"x_max":744,"o":"m 115 0 l 115 972 l 225 972 l 225 571 l 244 571 q 287 628 258 601 q 360 674 315 656 q 475 692 406 692 q 612 659 551 692 q 708 565 672 626 q 744 411 744 503 l 744 0 l 635 0 l 635 403 q 584 550 635 504 q 447 596 533 596 q 287 532 349 596 q 225 342 225 468 l 225 0 l 115 0 m 7 782 l 7 854 l 461 854 l 461 782 l 7 782 z "},"ì":{"ha":340,"x_min":4,"x_max":243,"o":"m 115 0 l 115 679 l 225 679 l 225 0 l 115 0 m 138 782 l 4 972 l 138 972 l 243 782 l 138 782 z "},"í":{"ha":340,"x_min":97,"x_max":336,"o":"m 115 0 l 115 679 l 225 679 l 225 0 l 115 0 m 97 771 l 204 960 l 336 960 l 203 771 l 97 771 z "},"î":{"ha":340,"x_min":-69,"x_max":408,"o":"m 115 0 l 115 679 l 225 679 l 225 0 l 115 0 m -69 771 l 103 960 l 238 960 l 408 771 l 285 771 l 179 888 l 160 888 l 56 771 l -69 771 z "},"ĩ":{"ha":340,"x_min":-53,"x_max":390,"o":"m 115 0 l 115 679 l 225 679 l 225 0 l 115 0 m 17 758 l -53 799 l -10 876 q 31 920 7 904 q 88 936 56 936 q 138 924 117 936 q 185 886 160 913 q 215 853 201 867 q 244 840 229 840 q 269 849 260 840 q 288 872 279 858 l 321 932 l 390 892 l 347 813 q 308 769 332 785 q 251 753 285 753 q 200 765 222 753 q 154 804 178 776 q 124 835 138 822 q 94 849 110 849 q 68 840 78 849 q 51 818 58 831 l 17 758 z "},"ï":{"ha":340,"x_min":-43,"x_max":383,"o":"m 115 0 l 115 679 l 225 679 l 225 0 l 115 0 m 300 783 q 242 806 265 783 q 218 867 218 829 q 242 926 218 904 q 300 949 265 949 q 360 926 338 949 q 383 867 383 904 q 360 806 383 829 q 300 783 338 783 m 40 783 q -19 806 4 783 q -43 867 -43 829 q -19 926 -43 904 q 40 949 4 949 q 100 926 76 949 q 124 867 124 904 q 100 806 124 829 q 40 783 76 783 z "},"ī":{"ha":340,"x_min":-44,"x_max":383,"o":"m 115 0 l 115 679 l 225 679 l 225 0 l 115 0 m -44 799 l -44 889 l 383 889 l 383 799 l -44 799 z "},"į":{"ha":340,"x_min":86,"x_max":281,"o":"m 115 0 l 115 679 l 225 679 l 225 0 l 115 0 m 171 785 q 110 808 135 785 q 86 868 86 832 q 110 929 86 906 q 171 953 135 953 q 231 929 207 953 q 254 868 254 906 q 231 808 254 832 q 171 785 207 785 m 201 -228 q 130 -204 157 -228 q 103 -137 103 -181 q 106 -97 103 -118 q 115 -54 110 -76 l 132 19 l 214 19 l 197 -78 q 194 -98 196 -90 q 192 -115 192 -106 q 222 -143 192 -143 l 281 -143 l 281 -228 l 201 -228 z "},"ĭ":{"ha":340,"x_min":-33,"x_max":372,"o":"m 115 0 l 115 679 l 225 679 l 225 0 l 115 0 m 169 767 q 22 815 78 767 q -35 951 -35 864 l -35 960 l 63 960 l 63 953 q 89 877 63 907 q 169 847 115 847 q 249 877 224 847 q 275 953 275 907 l 275 960 l 372 960 l 372 951 q 317 815 372 864 q 169 767 261 767 z "},"ĵ":{"ha":343,"x_min":-67,"x_max":411,"o":"m -18 -278 l -18 -181 l 76 -181 q 118 -139 118 -181 l 118 679 l 228 679 l 228 -158 q 197 -246 228 -214 q 107 -278 165 -278 l -18 -278 m -67 771 l 106 960 l 240 960 l 411 771 l 288 771 l 182 888 l 163 888 l 58 771 l -67 771 z "},"ĸ":{"ha":747,"x_min":115,"x_max":719,"o":"m 115 0 l 115 679 l 225 679 l 225 400 l 244 400 l 556 679 l 708 679 l 332 349 l 719 0 l 568 0 l 244 296 l 225 296 l 225 0 l 115 0 z "},"ĺ":{"ha":340,"x_min":92,"x_max":321,"o":"m 115 0 l 115 972 l 225 972 l 225 0 l 115 0 m 92 1053 l 185 1221 l 321 1221 l 199 1053 l 92 1053 z "},"ľ":{"ha":433,"x_min":115,"x_max":451,"o":"m 115 0 l 115 972 l 225 972 l 225 0 l 115 0 m 326 714 l 339 972 l 451 972 l 408 714 l 326 714 z "},"ḹ":{"ha":340,"x_min":-44,"x_max":383,"o":"m 115 0 l 115 972 l 225 972 l 225 0 l 115 0 m 171 -272 q 110 -248 135 -272 q 86 -187 86 -224 q 110 -128 86 -151 q 171 -104 135 -104 q 231 -128 207 -104 q 254 -187 254 -151 q 231 -248 254 -224 q 171 -272 207 -272 m -44 1071 l -44 1161 l 383 1161 l 383 1071 l -44 1071 z "},"ł":{"ha":513,"x_min":35,"x_max":478,"o":"m 71 276 l 35 347 l 442 560 l 478 489 l 71 276 m 201 0 l 201 972 l 311 972 l 311 0 l 201 0 z "},"ŀ":{"ha":575,"x_min":115,"x_max":542,"o":"m 115 0 l 115 972 l 225 972 l 225 0 l 115 0 m 458 304 q 398 328 422 304 q 374 388 374 351 q 398 449 374 425 q 458 472 422 472 q 518 449 494 472 q 542 388 542 425 q 518 328 542 351 q 458 304 494 304 z "},"ń":{"ha":851,"x_min":115,"x_max":744,"o":"m 115 0 l 115 679 l 222 679 l 222 564 l 242 564 q 317 652 264 613 q 475 692 371 692 q 612 660 551 692 q 708 565 672 628 q 744 411 744 503 l 744 0 l 635 0 l 635 403 q 584 550 635 504 q 447 596 533 596 q 287 532 349 596 q 225 342 225 468 l 225 0 l 115 0 m 354 771 l 461 960 l 593 960 l 460 771 l 354 771 z "},"ň":{"ha":851,"x_min":115,"x_max":744,"o":"m 115 0 l 115 679 l 222 679 l 222 564 l 242 564 q 317 652 264 613 q 475 692 371 692 q 612 660 551 692 q 708 565 672 628 q 744 411 744 503 l 744 0 l 635 0 l 635 403 q 584 550 635 504 q 447 596 533 596 q 287 532 349 596 q 225 342 225 468 l 225 0 l 115 0 m 361 771 l 189 960 l 314 960 l 418 844 l 438 844 l 543 960 l 667 960 l 496 771 l 361 771 z "},"ñ":{"ha":851,"x_min":115,"x_max":744,"o":"m 115 0 l 115 679 l 222 679 l 222 564 l 242 564 q 317 652 264 613 q 475 692 371 692 q 612 660 551 692 q 708 565 672 628 q 744 411 744 503 l 744 0 l 635 0 l 635 403 q 584 550 635 504 q 447 596 533 596 q 287 532 349 596 q 225 342 225 468 l 225 0 l 115 0 m 274 758 l 204 799 l 247 876 q 288 920 264 904 q 344 936 313 936 q 395 924 374 936 q 442 886 417 913 q 472 853 458 867 q 501 840 486 840 q 526 849 517 840 q 544 872 536 858 l 578 932 l 647 892 l 604 813 q 565 769 589 785 q 508 753 542 753 q 457 765 479 753 q 411 804 435 776 q 381 835 394 822 q 351 849 367 849 q 325 840 335 849 q 308 818 315 831 l 274 758 z "},"ŉ":{"ha":851,"x_min":100,"x_max":744,"o":"m 115 0 l 115 679 l 222 679 l 222 564 l 242 564 q 317 652 264 613 q 475 692 371 692 q 612 660 551 692 q 708 565 672 628 q 744 411 744 503 l 744 0 l 635 0 l 635 403 q 584 550 635 504 q 447 596 533 596 q 287 532 349 596 q 225 342 225 468 l 225 0 l 115 0 m 115 772 l 115 833 l 147 833 q 184 844 174 833 q 194 879 194 854 l 194 906 l 181 906 q 123 927 146 906 q 100 983 100 949 q 123 1040 100 1018 q 181 1063 146 1063 q 238 1040 215 1063 q 261 975 261 1017 l 261 878 q 153 772 261 772 l 115 772 z "},"ò":{"ha":858,"x_min":82,"x_max":776,"o":"m 429 -19 q 248 24 326 -19 q 126 145 169 67 q 82 331 82 224 l 82 349 q 126 533 82 454 q 248 656 169 613 q 429 699 326 699 q 610 656 532 699 q 733 533 689 613 q 776 349 776 454 l 776 331 q 733 145 776 224 q 610 24 689 67 q 429 -19 532 -19 m 429 79 q 602 148 538 79 q 667 333 667 217 l 667 346 q 602 531 667 463 q 429 600 538 600 q 257 531 322 600 q 192 346 192 463 l 192 333 q 257 148 192 217 q 429 79 322 79 m 396 782 l 263 972 l 396 972 l 501 782 l 396 782 z "},"ó":{"ha":858,"x_min":82,"x_max":776,"o":"m 429 -19 q 248 24 326 -19 q 126 145 169 67 q 82 331 82 224 l 82 349 q 126 533 82 454 q 248 656 169 613 q 429 699 326 699 q 610 656 532 699 q 733 533 689 613 q 776 349 776 454 l 776 331 q 733 145 776 224 q 610 24 689 67 q 429 -19 532 -19 m 429 79 q 602 148 538 79 q 667 333 667 217 l 667 346 q 602 531 667 463 q 429 600 538 600 q 257 531 322 600 q 192 346 192 463 l 192 333 q 257 148 192 217 q 429 79 322 79 m 356 771 l 463 960 l 594 960 l 461 771 l 356 771 z "},"ô":{"ha":858,"x_min":82,"x_max":776,"o":"m 429 -19 q 248 24 326 -19 q 126 145 169 67 q 82 331 82 224 l 82 349 q 126 533 82 454 q 248 656 169 613 q 429 699 326 699 q 610 656 532 699 q 733 533 689 613 q 776 349 776 454 l 776 331 q 733 145 776 224 q 610 24 689 67 q 429 -19 532 -19 m 429 79 q 602 148 538 79 q 667 333 667 217 l 667 346 q 602 531 667 463 q 429 600 538 600 q 257 531 322 600 q 192 346 192 463 l 192 333 q 257 148 192 217 q 429 79 322 79 m 190 771 l 363 960 l 497 960 l 668 771 l 544 771 l 439 888 l 419 888 l 315 771 l 190 771 z "},"õ":{"ha":858,"x_min":82,"x_max":776,"o":"m 429 -19 q 248 24 326 -19 q 126 145 169 67 q 82 331 82 224 l 82 349 q 126 533 82 454 q 248 656 169 613 q 429 699 326 699 q 610 656 532 699 q 733 533 689 613 q 776 349 776 454 l 776 331 q 733 145 776 224 q 610 24 689 67 q 429 -19 532 -19 m 429 79 q 602 148 538 79 q 667 333 667 217 l 667 346 q 602 531 667 463 q 429 600 538 600 q 257 531 322 600 q 192 346 192 463 l 192 333 q 257 148 192 217 q 429 79 322 79 m 275 758 l 206 799 l 249 876 q 290 920 265 904 q 346 936 314 936 q 397 924 375 936 q 443 886 418 913 q 474 853 460 867 q 503 840 488 840 q 528 849 518 840 q 546 872 538 858 l 579 932 l 649 892 l 606 813 q 567 769 590 785 q 510 753 543 753 q 458 765 481 753 q 413 804 436 776 q 382 835 396 822 q 353 849 368 849 q 326 840 336 849 q 310 818 317 831 l 275 758 z "},"ö":{"ha":858,"x_min":82,"x_max":776,"o":"m 429 -19 q 248 24 326 -19 q 126 145 169 67 q 82 331 82 224 l 82 349 q 126 533 82 454 q 248 656 169 613 q 429 699 326 699 q 610 656 532 699 q 733 533 689 613 q 776 349 776 454 l 776 331 q 733 145 776 224 q 610 24 689 67 q 429 -19 532 -19 m 429 79 q 602 148 538 79 q 667 333 667 217 l 667 346 q 602 531 667 463 q 429 600 538 600 q 257 531 322 600 q 192 346 192 463 l 192 333 q 257 148 192 217 q 429 79 322 79 m 558 783 q 500 806 524 783 q 476 867 476 829 q 500 926 476 904 q 558 949 524 949 q 619 926 596 949 q 642 867 642 904 q 619 806 642 829 q 558 783 596 783 m 299 783 q 239 806 263 783 q 215 867 215 829 q 239 926 215 904 q 299 949 263 949 q 358 926 335 949 q 382 867 382 904 q 358 806 382 829 q 299 783 335 783 z "},"ō":{"ha":858,"x_min":82,"x_max":776,"o":"m 429 -19 q 248 24 326 -19 q 126 145 169 67 q 82 331 82 224 l 82 349 q 126 533 82 454 q 248 656 169 613 q 429 699 326 699 q 610 656 532 699 q 733 533 689 613 q 776 349 776 454 l 776 331 q 733 145 776 224 q 610 24 689 67 q 429 -19 532 -19 m 429 79 q 602 148 538 79 q 667 333 667 217 l 667 346 q 602 531 667 463 q 429 600 538 600 q 257 531 322 600 q 192 346 192 463 l 192 333 q 257 148 192 217 q 429 79 322 79 m 215 799 l 215 889 l 643 889 l 643 799 l 215 799 z "},"ő":{"ha":858,"x_min":82,"x_max":776,"o":"m 429 -19 q 248 24 326 -19 q 126 145 169 67 q 82 331 82 224 l 82 349 q 126 533 82 454 q 248 656 169 613 q 429 699 326 699 q 610 656 532 699 q 733 533 689 613 q 776 349 776 454 l 776 331 q 733 145 776 224 q 610 24 689 67 q 429 -19 532 -19 m 429 79 q 602 148 538 79 q 667 333 667 217 l 667 346 q 602 531 667 463 q 429 600 538 600 q 257 531 322 600 q 192 346 192 463 l 192 333 q 257 148 192 217 q 429 79 322 79 m 458 771 l 554 960 l 676 960 l 557 771 l 458 771 m 256 771 l 336 960 l 451 960 l 353 771 l 256 771 z "},"ŏ":{"ha":858,"x_min":82,"x_max":776,"o":"m 429 -19 q 248 24 326 -19 q 126 145 169 67 q 82 331 82 224 l 82 349 q 126 533 82 454 q 248 656 169 613 q 429 699 326 699 q 610 656 532 699 q 733 533 689 613 q 776 349 776 454 l 776 331 q 733 145 776 224 q 610 24 689 67 q 429 -19 532 -19 m 429 79 q 602 148 538 79 q 667 333 667 217 l 667 346 q 602 531 667 463 q 429 600 538 600 q 257 531 322 600 q 192 346 192 463 l 192 333 q 257 148 192 217 q 429 79 322 79 m 429 767 q 281 815 338 767 q 225 951 225 864 l 225 960 l 322 960 l 322 953 q 349 877 322 907 q 429 847 375 847 q 509 877 483 847 q 535 953 535 907 l 535 960 l 632 960 l 632 951 q 576 815 632 864 q 429 767 521 767 z "},"ø":{"ha":858,"x_min":82,"x_max":776,"o":"m 429 -19 q 248 24 326 -19 q 126 145 169 67 q 82 331 82 224 l 82 349 q 126 533 82 454 q 248 656 169 613 q 429 699 326 699 q 610 656 532 699 q 733 533 689 613 q 776 349 776 454 l 776 331 q 733 145 776 224 q 610 24 689 67 q 429 -19 532 -19 m 429 79 q 602 148 538 79 q 667 333 667 217 l 667 346 q 602 531 667 463 q 429 600 538 600 q 257 531 322 600 q 192 346 192 463 l 192 333 q 257 148 192 217 q 429 79 322 79 m 226 -86 l 157 -44 l 632 757 l 701 715 l 226 -86 z "},"œ":{"ha":1419,"x_min":82,"x_max":1343,"o":"m 425 -19 q 247 24 324 -19 q 126 145 169 67 q 82 329 82 224 l 82 349 q 126 533 82 454 q 247 656 169 613 q 425 699 324 699 q 603 652 529 699 q 715 524 678 606 l 733 524 q 849 651 775 604 q 1018 699 922 699 q 1188 658 1114 699 q 1302 540 1261 617 q 1343 361 1343 464 l 1343 313 l 790 313 q 860 141 794 204 q 1026 78 925 78 q 1162 118 1115 78 q 1233 214 1208 158 l 1329 169 q 1271 83 1307 126 q 1176 10 1235 39 q 1028 -19 1118 -19 q 847 28 924 -19 q 733 156 771 76 l 715 156 q 603 26 678 72 q 425 -19 529 -19 m 429 79 q 601 148 535 79 q 667 333 667 217 l 667 346 q 601 530 667 461 q 429 599 536 599 q 256 530 322 599 q 190 346 190 461 l 190 333 q 256 148 190 217 q 429 79 322 79 m 792 401 l 1231 401 q 1167 548 1225 496 q 1017 600 1110 600 q 863 546 924 600 q 792 401 801 492 z "},"ŕ":{"ha":524,"x_min":115,"x_max":476,"o":"m 115 0 l 115 679 l 222 679 l 222 596 l 242 596 q 297 661 260 640 q 396 682 335 682 l 476 682 l 476 582 l 389 582 q 270 541 315 582 q 225 414 225 500 l 225 0 l 115 0 m 222 771 l 329 960 l 461 960 l 328 771 l 222 771 z "},"ř":{"ha":524,"x_min":56,"x_max":535,"o":"m 115 0 l 115 679 l 222 679 l 222 596 l 242 596 q 297 661 260 640 q 396 682 335 682 l 476 682 l 476 582 l 389 582 q 270 541 315 582 q 225 414 225 500 l 225 0 l 115 0 m 228 771 l 56 960 l 181 960 l 285 844 l 304 844 l 410 960 l 533 960 l 363 771 l 228 771 z "},"ṝ":{"ha":524,"x_min":81,"x_max":510,"o":"m 115 0 l 115 679 l 222 679 l 222 596 l 242 596 q 297 661 260 640 q 396 682 335 682 l 476 682 l 476 582 l 389 582 q 270 541 315 582 q 225 414 225 500 l 225 0 l 115 0 m 171 -272 q 110 -248 135 -272 q 86 -187 86 -224 q 110 -128 86 -151 q 171 -104 135 -104 q 231 -128 207 -104 q 254 -187 254 -151 q 231 -248 254 -224 q 171 -272 207 -272 m 81 799 l 81 889 l 508 889 l 508 799 l 81 799 z "},"ś":{"ha":732,"x_min":71,"x_max":663,"o":"m 389 -19 q 176 39 263 -19 q 71 224 89 97 l 175 247 q 217 142 186 181 q 292 88 247 104 q 389 72 338 72 q 510 103 465 72 q 554 185 554 133 q 512 259 554 238 q 396 294 469 281 l 339 304 q 219 339 274 315 q 133 403 165 363 q 101 504 101 443 q 172 647 101 596 q 360 699 243 699 q 547 647 475 699 q 639 500 618 594 l 536 474 q 476 577 524 547 q 360 607 429 607 q 250 581 290 607 q 210 506 210 556 q 248 434 210 457 q 350 400 286 411 l 407 390 q 537 356 479 378 q 628 294 594 335 q 663 189 663 254 q 588 35 663 89 q 389 -19 514 -19 m 289 771 l 396 960 l 528 960 l 394 771 l 289 771 z "},"ŝ":{"ha":732,"x_min":71,"x_max":663,"o":"m 389 -19 q 176 39 263 -19 q 71 224 89 97 l 175 247 q 217 142 186 181 q 292 88 247 104 q 389 72 338 72 q 510 103 465 72 q 554 185 554 133 q 512 259 554 238 q 396 294 469 281 l 339 304 q 219 339 274 315 q 133 403 165 363 q 101 504 101 443 q 172 647 101 596 q 360 699 243 699 q 547 647 475 699 q 639 500 618 594 l 536 474 q 476 577 524 547 q 360 607 429 607 q 250 581 290 607 q 210 506 210 556 q 248 434 210 457 q 350 400 286 411 l 407 390 q 537 356 479 378 q 628 294 594 335 q 663 189 663 254 q 588 35 663 89 q 389 -19 514 -19 m 124 771 l 296 960 l 431 960 l 601 771 l 478 771 l 372 888 l 353 888 l 249 771 l 124 771 z "},"š":{"ha":732,"x_min":71,"x_max":663,"o":"m 389 -19 q 176 39 263 -19 q 71 224 89 97 l 175 247 q 217 142 186 181 q 292 88 247 104 q 389 72 338 72 q 510 103 465 72 q 554 185 554 133 q 512 259 554 238 q 396 294 469 281 l 339 304 q 219 339 274 315 q 133 403 165 363 q 101 504 101 443 q 172 647 101 596 q 360 699 243 699 q 547 647 475 699 q 639 500 618 594 l 536 474 q 476 577 524 547 q 360 607 429 607 q 250 581 290 607 q 210 506 210 556 q 248 434 210 457 q 350 400 286 411 l 407 390 q 537 356 479 378 q 628 294 594 335 q 663 189 663 254 q 588 35 663 89 q 389 -19 514 -19 m 296 771 l 124 960 l 249 960 l 353 844 l 372 844 l 478 960 l 601 960 l 431 771 l 296 771 z "},"ş":{"ha":732,"x_min":71,"x_max":663,"o":"m 389 -19 q 176 39 263 -19 q 71 224 89 97 l 175 247 q 217 142 186 181 q 292 88 247 104 q 389 72 338 72 q 510 103 465 72 q 554 185 554 133 q 512 259 554 238 q 396 294 469 281 l 339 304 q 219 339 274 315 q 133 403 165 363 q 101 504 101 443 q 172 647 101 596 q 360 699 243 699 q 547 647 475 699 q 639 500 618 594 l 536 474 q 476 577 524 547 q 360 607 429 607 q 250 581 290 607 q 210 506 210 556 q 248 434 210 457 q 350 400 286 411 l 407 390 q 537 356 479 378 q 628 294 594 335 q 663 189 663 254 q 588 35 663 89 q 389 -19 514 -19 m 381 -285 q 301 -274 339 -285 q 235 -244 264 -262 l 268 -175 q 319 -199 292 -189 q 379 -208 346 -208 q 426 -197 407 -208 q 446 -161 446 -186 q 428 -128 446 -139 q 378 -117 411 -117 l 326 -117 l 340 29 l 421 29 l 413 -62 q 500 -90 467 -62 q 533 -171 533 -118 q 513 -235 533 -210 q 457 -273 492 -261 q 381 -285 422 -285 z "},"ß":{"ha":872,"x_min":115,"x_max":832,"o":"m 568 -19 q 425 8 486 -19 q 327 84 364 35 q 279 199 290 133 l 381 225 q 444 111 396 149 q 568 74 493 74 q 682 108 640 74 q 724 203 724 142 q 702 268 724 242 q 646 315 681 294 q 571 351 611 335 l 519 374 q 443 427 468 396 q 418 496 418 458 q 444 571 418 543 q 511 624 469 599 q 590 685 556 650 q 624 775 624 719 q 577 865 624 833 q 461 897 531 897 q 352 869 407 897 q 260 781 297 842 q 224 618 224 721 l 224 0 l 115 0 l 115 613 q 160 817 115 732 q 282 947 204 901 q 461 992 360 992 q 603 963 543 992 q 698 886 664 935 q 732 778 732 838 q 709 676 732 718 q 649 605 686 635 q 567 549 611 575 q 538 528 546 539 q 529 503 529 517 q 572 457 529 475 l 624 433 q 726 381 679 410 q 803 310 774 353 q 832 201 832 268 q 799 85 832 136 q 708 8 767 35 q 568 -19 649 -19 z "},"ſ":{"ha":478,"x_min":40,"x_max":481,"o":"m 193 0 l 193 583 l 40 583 l 40 679 l 193 679 l 193 853 q 224 940 193 908 q 314 972 256 972 l 481 972 l 481 878 l 344 878 q 303 836 303 878 l 303 0 l 193 0 z "},"ť":{"ha":639,"x_min":40,"x_max":594,"o":"m 365 0 q 276 32 307 0 q 244 119 244 64 l 244 583 l 40 583 l 40 679 l 244 679 l 244 921 l 354 921 l 354 679 l 576 679 l 576 583 l 354 583 l 354 136 q 394 94 354 94 l 546 94 l 546 0 l 365 0 m 471 799 l 483 1057 l 596 1057 l 553 799 l 471 799 z "},"ŧ":{"ha":639,"x_min":40,"x_max":576,"o":"m 363 0 q 276 31 308 0 q 244 118 244 63 l 244 583 l 40 583 l 40 679 l 244 679 l 244 921 l 354 921 l 354 679 l 576 679 l 576 583 l 354 583 l 354 136 q 393 94 354 94 l 546 94 l 546 0 l 363 0 m 40 304 l 40 386 l 576 386 l 576 304 l 40 304 z "},"ù":{"ha":850,"x_min":107,"x_max":736,"o":"m 375 -12 q 240 19 301 -12 q 142 115 178 51 q 107 268 107 178 l 107 679 l 217 679 l 217 276 q 267 129 217 175 q 404 83 318 83 q 564 147 501 83 q 626 338 626 211 l 626 679 l 736 679 l 736 0 l 629 0 l 629 115 l 610 115 q 533 27 588 67 q 375 -12 479 -12 m 389 782 l 256 972 l 389 972 l 494 782 l 389 782 z "},"ú":{"ha":850,"x_min":107,"x_max":736,"o":"m 375 -12 q 240 19 301 -12 q 142 115 178 51 q 107 268 107 178 l 107 679 l 217 679 l 217 276 q 267 129 217 175 q 404 83 318 83 q 564 147 501 83 q 626 338 626 211 l 626 679 l 736 679 l 736 0 l 629 0 l 629 115 l 610 115 q 533 27 588 67 q 375 -12 479 -12 m 347 771 l 454 960 l 586 960 l 453 771 l 347 771 z "},"û":{"ha":850,"x_min":107,"x_max":736,"o":"m 375 -12 q 240 19 301 -12 q 142 115 178 51 q 107 268 107 178 l 107 679 l 217 679 l 217 276 q 267 129 217 175 q 404 83 318 83 q 564 147 501 83 q 626 338 626 211 l 626 679 l 736 679 l 736 0 l 629 0 l 629 115 l 610 115 q 533 27 588 67 q 375 -12 479 -12 m 182 771 l 354 960 l 489 960 l 660 771 l 536 771 l 431 888 l 411 888 l 307 771 l 182 771 z "},"ũ":{"ha":850,"x_min":107,"x_max":736,"o":"m 375 -12 q 240 19 301 -12 q 142 115 178 51 q 107 268 107 178 l 107 679 l 217 679 l 217 276 q 267 129 217 175 q 404 83 318 83 q 564 147 501 83 q 626 338 626 211 l 626 679 l 736 679 l 736 0 l 629 0 l 629 115 l 610 115 q 533 27 588 67 q 375 -12 479 -12 m 268 758 l 199 799 l 242 876 q 283 920 258 904 q 339 936 307 936 q 390 924 368 936 q 436 886 411 913 q 467 853 453 867 q 496 840 481 840 q 521 849 511 840 q 539 872 531 858 l 572 932 l 642 892 l 599 813 q 560 769 583 785 q 503 753 536 753 q 451 765 474 753 q 406 804 429 776 q 375 835 389 822 q 346 849 361 849 q 319 840 329 849 q 303 818 310 831 l 268 758 z "},"ü":{"ha":850,"x_min":107,"x_max":736,"o":"m 375 -12 q 240 19 301 -12 q 142 115 178 51 q 107 268 107 178 l 107 679 l 217 679 l 217 276 q 267 129 217 175 q 404 83 318 83 q 564 147 501 83 q 626 338 626 211 l 626 679 l 736 679 l 736 0 l 629 0 l 629 115 l 610 115 q 533 27 588 67 q 375 -12 479 -12 m 550 783 q 492 806 515 783 q 468 867 468 829 q 492 926 468 904 q 550 949 515 949 q 610 926 588 949 q 633 867 633 904 q 610 806 633 829 q 550 783 588 783 m 290 783 q 231 806 254 783 q 207 867 207 829 q 231 926 207 904 q 290 949 254 949 q 350 926 326 949 q 374 867 374 904 q 350 806 374 829 q 290 783 326 783 z "},"ū":{"ha":850,"x_min":107,"x_max":736,"o":"m 375 -12 q 240 19 301 -12 q 142 115 178 51 q 107 268 107 178 l 107 679 l 217 679 l 217 276 q 267 129 217 175 q 404 83 318 83 q 564 147 501 83 q 626 338 626 211 l 626 679 l 736 679 l 736 0 l 629 0 l 629 115 l 610 115 q 533 27 588 67 q 375 -12 479 -12 m 207 799 l 207 889 l 635 889 l 635 799 l 207 799 z "},"ŭ":{"ha":850,"x_min":107,"x_max":736,"o":"m 375 -12 q 240 19 301 -12 q 142 115 178 51 q 107 268 107 178 l 107 679 l 217 679 l 217 276 q 267 129 217 175 q 404 83 318 83 q 564 147 501 83 q 626 338 626 211 l 626 679 l 736 679 l 736 0 l 629 0 l 629 115 l 610 115 q 533 27 588 67 q 375 -12 479 -12 m 421 767 q 273 815 329 767 q 217 951 217 864 l 217 960 l 314 960 l 314 953 q 340 877 314 907 q 421 847 367 847 q 501 877 475 847 q 526 953 526 907 l 526 960 l 624 960 l 624 951 q 568 815 624 864 q 421 767 513 767 z "},"ů":{"ha":850,"x_min":107,"x_max":736,"o":"m 375 -12 q 240 19 301 -12 q 142 115 178 51 q 107 268 107 178 l 107 679 l 217 679 l 217 276 q 267 129 217 175 q 404 83 318 83 q 564 147 501 83 q 626 338 626 211 l 626 679 l 736 679 l 736 0 l 629 0 l 629 115 l 610 115 q 533 27 588 67 q 375 -12 479 -12 m 422 754 q 325 791 365 754 q 285 886 285 828 q 325 983 285 946 q 421 1019 365 1019 q 519 983 479 1019 q 560 886 560 946 q 519 790 560 826 q 422 754 479 754 m 422 828 q 466 844 450 828 q 482 886 482 861 q 466 929 482 913 q 422 946 450 946 q 378 929 394 946 q 363 886 363 913 q 378 844 363 861 q 422 828 394 828 z "},"ű":{"ha":850,"x_min":107,"x_max":736,"o":"m 375 -12 q 240 19 301 -12 q 142 115 178 51 q 107 268 107 178 l 107 679 l 217 679 l 217 276 q 267 129 217 175 q 404 83 318 83 q 564 147 501 83 q 626 338 626 211 l 626 679 l 736 679 l 736 0 l 629 0 l 629 115 l 610 115 q 533 27 588 67 q 375 -12 479 -12 m 450 771 l 546 960 l 668 960 l 549 771 l 450 771 m 247 771 l 328 960 l 443 960 l 344 771 l 247 771 z "},"ų":{"ha":850,"x_min":107,"x_max":792,"o":"m 375 -12 q 240 19 301 -12 q 142 115 178 51 q 107 268 107 178 l 107 679 l 217 679 l 217 276 q 267 129 217 175 q 404 83 318 83 q 564 147 501 83 q 626 338 626 211 l 626 679 l 736 679 l 736 0 l 629 0 l 629 115 l 610 115 q 533 27 588 67 q 375 -12 479 -12 m 713 -228 q 641 -204 668 -228 q 614 -137 614 -181 q 617 -97 614 -118 q 626 -54 621 -76 l 643 19 l 725 19 l 708 -78 q 705 -98 707 -90 q 703 -115 703 -106 q 733 -143 703 -143 l 792 -143 l 792 -228 l 713 -228 z "},"ŵ":{"ha":1113,"x_min":74,"x_max":1039,"o":"m 210 0 l 74 679 l 185 679 l 297 74 l 317 74 l 465 679 l 647 679 l 796 74 l 815 74 l 928 679 l 1039 679 l 903 0 l 715 0 l 565 606 l 547 606 l 397 0 l 210 0 m 317 771 l 489 960 l 624 960 l 794 771 l 671 771 l 565 888 l 546 888 l 442 771 l 317 771 z "},"ý":{"ha":850,"x_min":107,"x_max":736,"o":"m 197 -278 l 197 -181 l 586 -181 q 626 -139 626 -181 l 626 108 l 607 108 q 565 51 593 79 q 490 5 536 22 q 375 -12 444 -12 q 240 19 301 -12 q 142 114 178 51 q 107 267 107 176 l 107 679 l 217 679 l 217 275 q 267 129 217 175 q 404 83 318 83 q 564 147 501 83 q 626 338 626 211 l 626 679 l 736 679 l 736 -158 q 705 -246 736 -214 q 614 -278 674 -278 l 197 -278 m 349 771 l 456 960 l 588 960 l 454 771 l 349 771 z "},"ŷ":{"ha":850,"x_min":107,"x_max":736,"o":"m 197 -278 l 197 -181 l 586 -181 q 626 -139 626 -181 l 626 108 l 607 108 q 565 51 593 79 q 490 5 536 22 q 375 -12 444 -12 q 240 19 301 -12 q 142 114 178 51 q 107 267 107 176 l 107 679 l 217 679 l 217 275 q 267 129 217 175 q 404 83 318 83 q 564 147 501 83 q 626 338 626 211 l 626 679 l 736 679 l 736 -158 q 705 -246 736 -214 q 614 -278 674 -278 l 197 -278 m 183 771 l 356 960 l 490 960 l 661 771 l 538 771 l 432 888 l 413 888 l 308 771 l 183 771 z "},"ÿ":{"ha":850,"x_min":107,"x_max":736,"o":"m 197 -278 l 197 -181 l 586 -181 q 626 -139 626 -181 l 626 108 l 607 108 q 565 51 593 79 q 490 5 536 22 q 375 -12 444 -12 q 240 19 301 -12 q 142 114 178 51 q 107 267 107 176 l 107 679 l 217 679 l 217 275 q 267 129 217 175 q 404 83 318 83 q 564 147 501 83 q 626 338 626 211 l 626 679 l 736 679 l 736 -158 q 705 -246 736 -214 q 614 -278 674 -278 l 197 -278 m 551 783 q 493 806 517 783 q 469 867 469 829 q 493 926 469 904 q 551 949 517 949 q 612 926 589 949 q 635 867 635 904 q 612 806 635 829 q 551 783 589 783 m 292 783 q 232 806 256 783 q 208 867 208 829 q 232 926 208 904 q 292 949 256 949 q 351 926 328 949 q 375 867 375 904 q 351 806 375 829 q 292 783 328 783 z "},"ź":{"ha":724,"x_min":85,"x_max":643,"o":"m 85 0 l 85 142 l 517 568 l 517 583 l 99 583 l 99 679 l 632 679 l 632 538 l 199 111 l 199 94 l 643 94 l 643 0 l 85 0 m 281 771 l 388 960 l 519 960 l 386 771 l 281 771 z "},"ž":{"ha":724,"x_min":85,"x_max":643,"o":"m 85 0 l 85 142 l 517 568 l 517 583 l 99 583 l 99 679 l 632 679 l 632 538 l 199 111 l 199 94 l 643 94 l 643 0 l 85 0 m 288 771 l 115 960 l 240 960 l 344 844 l 364 844 l 469 960 l 593 960 l 422 771 l 288 771 z "},"ż":{"ha":724,"x_min":85,"x_max":643,"o":"m 85 0 l 85 142 l 517 568 l 517 583 l 99 583 l 99 679 l 632 679 l 632 538 l 199 111 l 199 94 l 643 94 l 643 0 l 85 0 m 354 785 q 294 808 318 785 q 269 868 269 832 q 294 929 269 906 q 354 953 318 953 q 414 929 390 953 q 438 868 438 906 q 414 808 438 832 q 354 785 390 785 z "},"þ":{"ha":892,"x_min":115,"x_max":810,"o":"m 115 -278 l 115 972 l 224 972 l 224 572 l 242 572 q 290 633 260 604 q 370 680 321 661 q 490 699 419 699 q 651 656 579 699 q 767 535 724 614 q 810 349 810 457 l 810 331 q 767 143 810 222 q 651 22 724 64 q 490 -19 579 -19 q 370 -1 419 -19 q 290 47 321 18 q 242 106 260 75 l 224 106 l 224 -278 l 115 -278 m 463 78 q 634 145 568 78 q 700 333 700 213 l 700 346 q 634 534 700 467 q 463 601 568 601 q 291 534 358 601 q 224 346 224 467 l 224 333 q 291 145 224 213 q 463 78 358 78 z "},"ŋ":{"ha":851,"x_min":115,"x_max":744,"o":"m 115 0 l 115 679 l 222 679 l 222 564 l 242 564 q 317 652 264 613 q 475 692 371 692 q 612 660 551 692 q 708 565 672 628 q 744 411 744 503 l 744 0 l 635 0 l 635 403 q 584 550 635 504 q 447 596 533 596 q 287 532 349 596 q 225 342 225 468 l 225 0 l 115 0 m 451 -278 l 451 -181 l 596 -181 q 635 -139 635 -181 l 635 0 l 744 0 l 744 -161 q 714 -247 744 -215 q 631 -278 683 -278 l 451 -278 z "},"ĳ":{"ha":682,"x_min":86,"x_max":596,"o":"m 115 0 l 115 679 l 225 679 l 225 0 l 115 0 m 171 785 q 110 808 135 785 q 86 868 86 832 q 110 929 86 906 q 171 953 135 953 q 231 929 207 953 q 254 868 254 906 q 231 808 254 832 q 171 785 207 785 m 322 -278 l 322 -181 l 417 -181 q 458 -139 458 -181 l 458 679 l 568 679 l 568 -158 q 537 -246 568 -214 q 447 -278 506 -278 l 322 -278 m 514 785 q 453 808 478 785 q 429 868 429 832 q 453 929 429 906 q 514 953 478 953 q 574 929 550 953 q 597 868 597 906 q 574 808 597 832 q 514 785 550 785 z "},"":{"ha":682,"x_min":97,"x_max":678,"o":"m 115 0 l 115 679 l 225 679 l 225 0 l 115 0 m 97 771 l 204 960 l 336 960 l 203 771 l 97 771 z "},"ɑ":{"ha":921,"x_min":82,"x_max":881,"o":"m 403 -19 q 241 22 314 -19 q 125 143 168 64 q 82 331 82 222 l 82 349 q 125 536 82 458 q 242 656 168 614 q 403 699 315 699 q 567 658 508 699 q 653 567 625 618 l 672 567 l 672 679 l 779 679 l 779 135 q 818 93 779 93 l 881 93 l 881 0 l 776 0 q 703 27 731 0 q 675 103 675 54 l 675 118 l 657 118 q 570 22 629 64 q 403 -19 511 -19 m 432 78 q 603 145 538 78 q 669 333 669 213 l 669 346 q 603 534 669 467 q 432 601 538 601 q 260 534 328 601 q 193 346 193 467 l 193 333 q 260 145 193 213 q 432 78 328 78 z "},"π":{"ha":831,"x_min":74,"x_max":740,"o":"m 174 0 l 174 583 l 74 583 l 74 679 l 740 679 l 740 583 l 640 583 l 640 136 q 681 94 640 94 l 740 94 l 740 0 l 651 0 q 561 32 593 0 q 529 119 529 64 l 529 583 l 283 583 l 283 0 l 174 0 z "},"ª":{"ha":583,"x_min":56,"x_max":553,"o":"m 239 472 q 109 510 163 472 q 56 624 56 549 q 109 733 56 699 q 239 768 163 768 l 394 768 l 394 799 q 367 879 394 850 q 281 908 339 908 q 191 881 221 908 q 151 815 161 854 l 68 838 q 137 939 85 896 q 282 982 189 982 q 427 933 374 982 q 481 796 481 885 l 481 589 q 508 558 481 558 l 553 558 l 553 486 l 488 486 q 430 503 451 486 q 408 554 408 521 l 392 554 q 365 517 383 536 q 317 485 347 499 q 239 472 286 472 m 250 547 q 356 581 318 547 q 394 686 394 615 l 394 699 l 244 699 q 170 681 199 699 q 142 625 142 664 q 171 567 142 588 q 250 547 200 547 z "},"º":{"ha":607,"x_min":54,"x_max":553,"o":"m 304 472 q 123 540 192 472 q 54 728 54 607 q 123 915 54 847 q 304 982 192 982 q 485 915 417 982 q 553 728 553 847 q 485 540 553 607 q 304 472 417 472 m 304 546 q 421 594 376 546 q 465 728 465 643 q 421 860 465 811 q 304 908 376 908 q 188 860 232 908 q 143 728 143 811 q 188 594 143 643 q 304 546 232 546 z "},"†":{"ha":792,"x_min":104,"x_max":688,"o":"m 340 0 l 340 582 l 104 582 l 104 679 l 340 679 l 340 972 l 451 972 l 451 679 l 688 679 l 688 582 l 451 582 l 451 0 l 340 0 z "},"‡":{"ha":792,"x_min":104,"x_max":688,"o":"m 340 0 l 340 268 l 104 268 l 104 365 l 340 365 l 340 610 l 104 610 l 104 707 l 340 707 l 340 972 l 451 972 l 451 707 l 688 707 l 688 610 l 451 610 l 451 365 l 688 365 l 688 268 l 451 268 l 451 0 l 340 0 z "},"§":{"ha":692,"x_min":60,"x_max":618,"o":"m 356 -19 q 139 55 218 -19 q 60 256 60 129 l 60 283 l 163 283 l 163 261 q 212 125 163 175 q 357 75 261 75 q 472 112 432 75 q 513 206 513 149 q 472 294 513 265 q 339 338 432 322 q 152 409 213 360 q 92 547 92 458 q 101 608 92 581 q 129 661 110 636 q 92 778 92 710 l 92 785 q 126 896 92 850 q 216 967 160 942 q 340 992 272 992 q 535 933 460 992 q 610 767 610 875 l 610 722 l 507 722 l 507 758 q 485 835 507 804 q 426 881 463 865 q 343 897 389 897 q 238 869 281 897 q 196 783 196 840 q 247 690 196 718 q 381 644 297 663 q 558 575 497 621 q 618 444 618 529 q 585 328 618 375 q 608 276 600 303 q 617 217 617 249 l 617 207 q 551 44 617 107 q 356 -19 485 -19 m 501 393 q 510 413 507 403 q 514 439 514 424 q 472 513 514 488 q 340 556 431 539 q 269 574 303 563 q 210 596 236 585 q 196 547 196 576 q 239 472 196 497 q 376 431 282 447 q 449 414 421 422 q 501 393 478 406 z "},"¶":{"ha":801,"x_min":38,"x_max":690,"o":"m 363 0 l 363 424 l 342 424 q 184 456 253 424 q 76 549 115 489 q 38 690 38 608 l 38 706 q 77 849 38 789 q 186 940 117 908 q 344 972 256 972 l 690 972 l 690 0 l 588 0 l 588 876 l 465 876 l 465 0 l 363 0 m 340 518 l 363 518 l 363 876 l 340 876 q 192 828 243 876 q 140 703 140 779 l 140 694 q 192 568 140 618 q 340 518 243 518 z "},"©":{"ha":978,"x_min":83,"x_max":894,"o":"m 481 -17 q 272 30 361 -17 q 133 171 182 76 q 83 410 83 265 l 83 563 q 133 801 83 707 q 272 942 182 896 q 481 989 361 989 l 499 989 q 708 942 619 989 q 846 801 797 896 q 894 563 894 707 l 894 410 q 846 171 894 265 q 708 30 797 76 q 499 -17 619 -17 l 481 -17 m 483 74 l 497 74 q 719 155 639 74 q 799 410 799 236 l 799 563 q 719 817 799 736 q 497 899 639 899 l 483 899 q 260 817 340 899 q 181 563 181 736 l 181 410 q 260 155 181 236 q 483 74 340 74 m 497 185 q 348 240 403 185 q 293 404 293 296 l 293 565 q 349 733 293 676 q 494 790 406 790 q 640 734 590 790 q 690 589 690 678 l 690 563 l 594 563 l 594 597 q 572 672 594 642 q 496 703 550 703 q 419 673 450 703 q 389 586 389 643 l 389 383 q 421 301 389 329 q 496 274 453 274 q 569 300 543 274 q 594 382 594 326 l 594 411 l 690 411 l 690 385 q 642 240 690 296 q 497 185 593 185 z "},"®":{"ha":738,"x_min":78,"x_max":661,"o":"m 369 414 q 220 451 286 414 q 116 553 154 488 q 78 703 78 618 q 116 853 78 788 q 220 955 154 918 q 369 992 286 992 q 519 955 453 992 q 623 853 585 918 q 661 703 661 788 q 623 553 661 618 q 519 451 585 488 q 369 414 453 414 m 369 468 q 540 533 475 468 q 604 703 604 597 q 540 873 604 808 q 369 938 475 938 q 199 873 264 938 q 135 703 135 808 q 199 533 135 597 q 369 468 264 468 m 269 551 l 269 860 l 388 860 q 465 834 439 860 q 492 775 492 808 q 478 728 492 747 q 436 697 465 708 l 436 686 q 470 671 460 685 q 481 638 481 657 l 481 551 l 426 551 l 426 636 q 397 665 426 665 l 324 665 l 324 551 l 269 551 m 324 715 l 389 715 q 425 730 413 715 q 438 764 438 744 q 425 797 438 783 q 389 811 413 811 l 324 811 l 324 715 z "},"™":{"ha":786,"x_min":54,"x_max":715,"o":"m 360 664 l 360 972 l 463 972 l 532 714 l 542 714 l 613 972 l 715 972 l 715 664 l 660 664 l 660 924 l 650 924 l 579 664 l 496 664 l 424 924 l 414 924 l 414 664 l 360 664 m 160 664 l 160 924 l 54 924 l 54 972 l 318 972 l 318 924 l 214 924 l 214 664 l 160 664 z "},"℠":{"ha":778,"x_min":67,"x_max":707,"o":"m 351 664 l 351 972 l 454 972 l 524 714 l 533 714 l 604 972 l 707 972 l 707 664 l 651 664 l 651 924 l 642 924 l 571 664 l 488 664 l 415 924 l 406 924 l 406 664 l 351 664 m 186 658 q 99 686 132 658 q 67 764 67 714 l 67 776 l 119 776 l 119 764 q 137 721 119 736 q 186 706 154 706 q 231 719 217 706 q 246 750 246 732 q 230 781 246 771 q 183 797 214 792 l 169 800 q 99 828 124 810 q 74 890 74 847 q 102 956 74 933 q 181 978 131 978 q 260 953 229 978 q 292 879 292 929 l 292 865 l 239 865 l 239 879 q 181 931 239 931 q 128 892 128 931 q 183 846 128 857 l 197 843 q 271 817 242 835 q 300 753 300 799 q 269 684 300 710 q 186 658 239 658 z "},"#":{"ha":872,"x_min":60,"x_max":813,"o":"m 235 0 l 235 283 l 60 283 l 60 379 l 235 379 l 235 593 l 60 593 l 60 689 l 235 689 l 235 972 l 336 972 l 336 689 l 535 689 l 535 972 l 636 972 l 636 689 l 813 689 l 813 593 l 636 593 l 636 379 l 813 379 l 813 283 l 636 283 l 636 0 l 535 0 l 535 283 l 336 283 l 336 0 l 235 0 m 336 379 l 535 379 l 535 593 l 336 593 l 336 379 z "},"¤":{"ha":861,"x_min":71,"x_max":792,"o":"m 143 126 l 71 199 l 153 281 q 101 376 118 324 q 83 486 83 428 q 101 597 83 544 q 153 692 118 650 l 71 775 l 143 847 l 225 764 q 320 815 268 796 q 431 833 372 833 q 542 815 489 833 q 636 764 594 796 l 719 847 l 792 775 l 708 692 q 759 597 740 650 q 778 486 778 544 q 759 376 778 428 q 708 281 740 324 l 792 199 l 719 126 l 636 208 q 542 156 594 174 q 431 139 489 139 q 320 156 372 139 q 225 208 268 174 l 143 126 m 431 238 q 556 270 500 238 q 644 358 611 303 q 676 486 676 414 q 644 615 676 560 q 556 703 611 671 q 431 736 500 736 q 306 703 361 736 q 217 615 250 671 q 185 486 185 558 q 217 358 185 414 q 306 269 250 301 q 431 238 363 238 z "},"$":{"ha":851,"x_min":67,"x_max":783,"o":"m 435 -19 q 246 18 329 -19 q 115 131 163 56 q 67 321 67 207 l 67 350 l 182 350 l 182 321 q 253 141 182 200 q 435 82 324 82 q 608 133 549 82 q 668 263 668 185 q 642 349 668 317 q 567 401 615 381 q 453 436 518 421 l 379 454 q 229 508 294 476 q 127 592 164 540 q 90 726 90 644 q 132 868 90 808 q 247 960 174 928 q 419 992 321 992 q 596 958 518 992 q 719 858 674 924 q 765 692 765 792 l 765 633 l 650 633 l 650 692 q 620 806 650 763 q 538 869 590 849 q 419 890 486 890 q 265 848 324 890 q 207 728 207 806 q 231 644 207 676 q 301 592 256 613 q 411 557 347 572 l 485 539 q 636 490 568 521 q 744 405 704 458 q 783 265 783 351 q 740 115 783 179 q 619 16 697 51 q 435 -19 540 -19 m 382 -161 l 382 1133 l 489 1133 l 489 -161 l 382 -161 z "},"£":{"ha":872,"x_min":82,"x_max":783,"o":"m 82 0 l 82 101 l 185 101 l 185 428 l 88 428 l 88 521 l 185 521 l 185 693 q 265 915 185 839 q 481 992 344 992 q 697 915 618 992 q 776 693 776 839 l 776 610 l 665 610 l 665 693 q 617 838 665 785 q 481 890 569 890 q 345 838 393 890 q 297 693 297 785 l 297 521 l 471 521 l 471 428 l 297 428 l 297 101 l 783 101 l 783 0 l 82 0 z "},"¥":{"ha":861,"x_min":22,"x_max":839,"o":"m 372 0 l 372 396 l 351 406 l 22 972 l 158 972 l 421 507 l 440 507 l 703 972 l 839 972 l 510 406 l 489 396 l 489 0 l 372 0 m 147 210 l 147 303 l 714 303 l 714 210 l 147 210 m 147 383 l 147 476 l 714 476 l 714 383 l 147 383 z "},"¢":{"ha":832,"x_min":83,"x_max":760,"o":"m 429 -19 q 252 23 331 -19 q 128 144 174 65 q 83 332 83 224 l 83 347 q 128 535 83 457 q 252 656 174 614 q 429 699 331 699 q 595 663 526 699 q 703 567 664 626 q 754 439 743 507 l 647 417 q 615 508 640 467 q 544 575 590 550 q 431 600 499 600 q 309 569 363 600 q 224 482 256 539 q 193 346 193 425 l 193 333 q 224 197 193 254 q 309 110 256 140 q 431 79 363 79 q 585 132 532 79 q 653 263 639 185 l 760 239 q 705 113 746 172 q 595 17 664 53 q 429 -19 526 -19 m 381 -161 l 381 850 l 483 850 l 483 -161 l 381 -161 z "},"⁄":{"ha":904,"x_min":33,"x_max":871,"o":"m 99 -15 l 33 38 l 806 988 l 871 935 l 99 -15 z "},"%":{"ha":1072,"x_min":49,"x_max":1025,"o":"m 188 -19 l 113 40 l 886 992 l 960 932 l 188 -19 m 804 -18 q 642 41 703 -18 q 582 201 582 100 l 582 210 q 642 370 582 311 q 804 429 703 429 q 964 370 903 429 q 1025 210 1025 311 l 1025 201 q 965 41 1025 100 q 804 -18 904 -18 m 804 63 q 897 100 863 63 q 931 197 931 138 l 931 214 q 897 312 931 275 q 804 349 863 349 q 710 312 744 349 q 676 214 676 275 l 676 197 q 710 100 676 138 q 804 63 744 63 m 269 543 q 108 603 168 543 q 49 763 49 663 l 49 771 q 108 931 49 872 q 269 990 168 990 q 430 931 369 990 q 490 771 490 872 l 490 763 q 430 603 490 663 q 269 543 369 543 m 269 624 q 363 661 328 624 q 397 758 397 699 l 397 775 q 363 873 397 836 q 269 910 328 910 q 176 873 210 910 q 142 775 142 836 l 142 758 q 176 661 142 699 q 269 624 210 624 z "},"‰":{"ha":1365,"x_min":49,"x_max":1318,"o":"m 188 -19 l 113 40 l 886 992 l 960 932 l 188 -19 m 781 -18 q 637 41 690 -18 q 583 200 583 100 l 583 211 q 637 371 583 313 q 781 429 690 429 q 922 370 872 429 q 971 211 971 311 l 971 203 q 922 42 971 101 q 781 -18 872 -18 m 789 64 q 874 102 843 64 q 904 201 904 140 l 904 214 q 874 311 904 275 q 789 347 843 347 q 706 311 736 347 q 675 214 675 275 l 675 197 q 706 100 675 136 q 789 64 736 64 m 269 543 q 108 603 168 543 q 49 763 49 663 l 49 771 q 108 931 49 872 q 269 990 168 990 q 430 931 369 990 q 490 771 490 872 l 490 763 q 430 603 490 663 q 269 543 369 543 m 269 624 q 363 661 328 624 q 397 758 397 699 l 397 775 q 363 873 397 836 q 269 910 328 910 q 176 873 210 910 q 142 775 142 836 l 142 758 q 176 661 142 699 q 269 624 210 624 m 940 72 l 940 340 l 960 340 l 960 72 l 940 72 m 1111 64 q 1196 100 1165 64 q 1226 197 1226 136 l 1226 214 q 1196 311 1226 275 q 1111 347 1165 347 q 1027 311 1058 347 q 996 214 996 275 l 996 201 q 1027 102 996 140 q 1111 64 1058 64 m 1119 -18 q 980 42 1029 -18 q 931 203 931 101 l 931 211 q 980 370 931 311 q 1119 429 1029 429 q 1265 371 1211 429 q 1318 211 1318 313 l 1318 200 q 1265 41 1318 100 q 1119 -18 1211 -18 z "},"¼":{"ha":1132,"x_min":26,"x_max":1108,"o":"m 160 -15 l 94 38 l 867 988 l 932 935 l 160 -15 m 914 0 l 914 115 l 615 115 l 615 204 l 851 486 l 1001 486 l 1001 189 l 1107 189 l 1107 115 l 1001 115 l 1001 0 l 914 0 m 717 189 l 914 189 l 914 418 l 897 418 l 717 204 l 717 189 z "},"½":{"ha":1143,"x_min":26,"x_max":1100,"o":"m 160 -15 l 94 38 l 867 988 l 932 935 l 160 -15 m 672 0 l 672 43 q 720 165 672 118 q 865 235 768 213 q 977 276 940 251 q 1014 342 1014 300 q 981 406 1014 382 q 894 431 949 431 q 804 404 840 431 q 764 321 768 378 l 676 326 q 744 460 685 415 q 894 504 804 504 q 1043 460 986 504 q 1100 342 1100 417 q 1051 228 1100 265 q 915 171 1003 190 q 806 133 840 154 q 765 74 771 113 l 1097 74 l 1097 0 l 672 0 z "},"¾":{"ha":1243,"x_min":38,"x_max":1218,"o":"m 271 -15 l 206 38 l 978 988 l 1043 935 l 271 -15 m 1025 0 l 1025 115 l 726 115 l 726 204 l 963 486 l 1113 486 l 1113 189 l 1218 189 l 1218 115 l 1113 115 l 1113 0 l 1025 0 m 828 189 l 1025 189 l 1025 418 l 1008 418 l 828 204 l 828 189 z "},"⅓":{"ha":1193,"x_min":26,"x_max":1144,"o":"m 160 -15 l 94 38 l 867 988 l 932 935 l 160 -15 m 929 -18 q 776 26 840 -18 q 707 156 713 71 l 794 164 q 838 83 799 111 q 929 56 876 56 q 1022 82 986 56 q 1057 150 1057 108 q 1024 217 1057 196 q 926 238 990 238 l 842 238 l 842 314 l 1011 397 l 1011 413 l 718 413 l 718 486 l 1143 486 l 1143 399 l 965 310 l 965 294 q 1097 257 1050 292 q 1144 149 1144 222 q 1117 61 1144 99 q 1040 3 1089 24 q 929 -18 990 -18 z "},"⅔":{"ha":1329,"x_min":38,"x_max":1282,"o":"m 297 -15 l 232 38 l 1004 988 l 1069 935 l 297 -15 m 1067 -18 q 914 26 978 -18 q 844 156 850 71 l 932 164 q 975 83 936 111 q 1067 56 1014 56 q 1159 82 1124 56 q 1194 150 1194 108 q 1161 217 1194 196 q 1064 238 1128 238 l 979 238 l 979 314 l 1149 397 l 1149 413 l 856 413 l 856 486 l 1281 486 l 1281 399 l 1103 310 l 1103 294 q 1235 257 1188 292 q 1282 149 1282 222 q 1254 61 1282 99 q 1177 3 1226 24 q 1067 -18 1128 -18 z "},"⅛":{"ha":1172,"x_min":26,"x_max":1121,"o":"m 160 -15 l 94 38 l 867 988 l 932 935 l 160 -15 m 903 -18 q 740 22 797 -18 q 683 126 683 63 q 699 188 683 165 q 736 224 714 211 q 778 242 758 238 l 778 258 q 722 291 751 265 q 692 368 692 317 q 749 467 692 431 q 903 504 807 504 q 1056 467 997 504 q 1114 368 1114 431 q 1083 291 1114 317 q 1026 258 1053 265 l 1026 242 q 1069 224 1047 238 q 1106 188 1090 211 q 1122 126 1122 165 q 1065 22 1122 63 q 903 -18 1007 -18 m 903 56 q 999 76 964 56 q 1035 133 1035 96 q 999 192 1035 172 q 903 211 964 211 q 805 192 840 211 q 769 133 769 172 q 805 76 769 96 q 903 56 840 56 m 903 285 q 993 305 960 285 q 1026 358 1026 325 q 993 412 1026 393 q 903 431 960 431 q 811 412 844 431 q 778 358 778 393 q 811 305 778 325 q 903 285 844 285 z "},"⅜":{"ha":1282,"x_min":38,"x_max":1232,"o":"m 271 -15 l 206 38 l 978 988 l 1043 935 l 271 -15 m 1013 -18 q 850 22 907 -18 q 793 126 793 63 q 808 188 793 165 q 846 224 824 211 q 888 242 868 238 l 888 258 q 831 291 861 265 q 801 368 801 317 q 859 467 801 431 q 1013 504 917 504 q 1165 467 1107 504 q 1224 368 1224 431 q 1193 291 1224 317 q 1136 258 1163 265 l 1136 242 q 1178 224 1157 238 q 1216 188 1200 211 q 1232 126 1232 165 q 1174 22 1232 63 q 1013 -18 1117 -18 m 1013 56 q 1109 76 1074 56 q 1144 133 1144 96 q 1109 192 1144 172 q 1013 211 1074 211 q 915 192 950 211 q 879 133 879 172 q 915 76 879 96 q 1013 56 950 56 m 1013 285 q 1103 305 1069 285 q 1136 358 1136 325 q 1103 412 1136 393 q 1013 431 1069 431 q 921 412 954 431 q 888 358 888 393 q 921 305 888 325 q 1013 285 954 285 z "},"⅝":{"ha":1275,"x_min":46,"x_max":1224,"o":"m 264 -15 l 199 38 l 971 988 l 1036 935 l 264 -15 m 1006 -18 q 843 22 900 -18 q 786 126 786 63 q 801 188 786 165 q 839 224 817 211 q 881 242 861 238 l 881 258 q 824 291 854 265 q 794 368 794 317 q 852 467 794 431 q 1006 504 910 504 q 1158 467 1100 504 q 1217 368 1217 431 q 1186 291 1217 317 q 1129 258 1156 265 l 1129 242 q 1172 224 1150 238 q 1209 188 1193 211 q 1225 126 1225 165 q 1167 22 1225 63 q 1006 -18 1110 -18 m 1006 56 q 1102 76 1067 56 q 1138 133 1138 96 q 1102 192 1138 172 q 1006 211 1067 211 q 908 192 943 211 q 872 133 872 172 q 908 76 872 96 q 1006 56 943 56 m 1006 285 q 1096 305 1063 285 q 1129 358 1129 325 q 1096 412 1129 393 q 1006 431 1063 431 q 914 412 947 431 q 881 358 881 393 q 914 305 881 325 q 1006 285 947 285 z "},"⅞":{"ha":1168,"x_min":21,"x_max":1117,"o":"m 156 -15 l 90 38 l 863 988 l 928 935 l 156 -15 m 899 -18 q 736 22 793 -18 q 679 126 679 63 q 694 188 679 165 q 732 224 710 211 q 774 242 754 238 l 774 258 q 717 291 747 265 q 688 368 688 317 q 745 467 688 431 q 899 504 803 504 q 1051 467 993 504 q 1110 368 1110 431 q 1079 291 1110 317 q 1022 258 1049 265 l 1022 242 q 1065 224 1043 238 q 1102 188 1086 211 q 1118 126 1118 165 q 1060 22 1118 63 q 899 -18 1003 -18 m 899 56 q 995 76 960 56 q 1031 133 1031 96 q 995 192 1031 172 q 899 211 960 211 q 801 192 836 211 q 765 133 765 172 q 801 76 765 96 q 899 56 836 56 m 899 285 q 989 305 956 285 q 1022 358 1022 325 q 989 412 1022 393 q 899 431 956 431 q 807 412 840 431 q 774 358 774 393 q 807 305 774 325 q 899 285 840 285 z "},"+":{"ha":861,"x_min":139,"x_max":722,"o":"m 378 194 l 378 436 l 139 436 l 139 536 l 378 536 l 378 778 l 483 778 l 483 536 l 722 536 l 722 436 l 483 436 l 483 194 l 378 194 z "},"−":{"ha":861,"x_min":139,"x_max":722,"o":"m 139 436 l 139 536 l 722 536 l 722 436 l 139 436 z "},"×":{"ha":861,"x_min":156,"x_max":706,"o":"m 228 210 l 156 282 l 360 486 l 156 690 l 228 763 l 431 558 l 633 763 l 706 690 l 501 486 l 706 282 l 633 210 l 431 415 l 228 210 z "},"÷":{"ha":861,"x_min":139,"x_max":722,"o":"m 139 436 l 139 536 l 722 536 l 722 436 l 139 436 m 431 167 q 366 192 392 167 q 340 257 340 218 q 366 322 340 296 q 431 349 392 349 q 495 322 469 349 q 521 257 521 296 q 495 192 521 218 q 431 167 469 167 m 431 624 q 366 650 392 624 q 340 715 340 676 q 366 780 340 754 q 431 806 392 806 q 495 780 469 806 q 521 715 521 754 q 495 650 521 676 q 431 624 469 624 z "},"=":{"ha":861,"x_min":139,"x_max":722,"o":"m 139 540 l 139 640 l 722 640 l 722 540 l 139 540 m 139 332 l 139 432 l 722 432 l 722 332 l 139 332 z "},"<":{"ha":861,"x_min":139,"x_max":722,"o":"m 722 181 l 139 415 l 139 557 l 722 792 l 722 675 l 251 494 l 251 478 l 722 297 l 722 181 z "},">":{"ha":861,"x_min":139,"x_max":722,"o":"m 139 181 l 139 297 l 611 478 l 611 494 l 139 675 l 139 792 l 722 557 l 722 415 l 139 181 z "},"≤":{"ha":861,"x_min":139,"x_max":722,"o":"m 722 181 l 139 415 l 139 557 l 722 792 l 722 675 l 251 494 l 251 478 l 722 297 l 722 181 m 139 0 l 139 99 l 722 99 l 722 0 l 139 0 z "},"≥":{"ha":861,"x_min":139,"x_max":722,"o":"m 139 181 l 139 297 l 611 478 l 611 494 l 139 675 l 139 792 l 722 557 l 722 415 l 139 181 m 139 0 l 139 99 l 722 99 l 722 0 l 139 0 z "},"±":{"ha":861,"x_min":139,"x_max":722,"o":"m 378 206 l 378 436 l 139 436 l 139 538 l 378 538 l 378 768 l 483 768 l 483 538 l 722 538 l 722 436 l 483 436 l 483 206 l 378 206 m 139 0 l 139 101 l 722 101 l 722 0 l 139 0 z "},"^":{"ha":861,"x_min":103,"x_max":758,"o":"m 103 589 l 344 972 l 517 972 l 758 589 l 628 589 l 439 897 l 422 897 l 235 589 l 103 589 z "},"≠":{"ha":861,"x_min":139,"x_max":722,"o":"m 379 175 l 281 208 l 483 796 l 581 764 l 379 175 m 139 332 l 139 432 l 722 432 l 722 332 l 139 332 m 139 540 l 139 640 l 722 640 l 722 540 l 139 540 z "},"~":{"ha":861,"x_min":115,"x_max":744,"o":"m 181 374 l 115 453 l 244 554 q 296 590 269 575 q 356 606 322 606 q 419 585 396 606 q 464 532 443 564 q 490 496 479 508 q 518 483 500 483 q 544 490 533 483 q 568 507 556 496 l 681 599 l 744 519 l 615 418 q 565 383 592 399 q 504 367 539 367 q 441 388 464 367 q 397 440 418 408 q 372 477 382 465 q 343 489 363 489 q 317 483 328 489 q 293 465 307 476 l 181 374 z "},"≈":{"ha":861,"x_min":115,"x_max":744,"o":"m 181 497 l 115 575 l 244 678 q 296 713 269 699 q 356 728 322 728 q 419 708 396 728 q 464 654 443 688 q 490 618 479 631 q 518 606 500 606 q 544 613 533 606 q 568 631 556 619 l 681 722 l 744 643 l 615 540 q 565 506 592 521 q 504 490 539 490 q 441 510 464 490 q 397 564 418 531 q 372 600 382 588 q 343 613 363 613 q 317 606 328 613 q 293 589 307 600 l 181 497 m 181 250 l 115 329 l 244 432 q 296 467 269 451 q 356 482 322 482 q 419 462 396 482 q 465 406 443 442 q 490 372 479 385 q 518 360 500 360 q 544 366 533 360 q 568 383 556 372 l 681 475 l 744 397 l 615 294 q 565 260 592 275 q 504 244 539 244 q 441 265 464 244 q 397 318 418 285 q 372 354 382 342 q 343 367 363 367 q 317 360 328 367 q 293 342 307 353 l 181 250 z "},"¬":{"ha":861,"x_min":140,"x_max":721,"o":"m 622 299 l 622 436 l 140 436 l 140 536 l 721 536 l 721 299 l 622 299 z "},"∞":{"ha":861,"x_min":78,"x_max":783,"o":"m 275 285 q 174 310 218 285 q 103 381 129 336 q 78 486 78 426 q 103 592 78 546 q 174 663 129 638 q 275 688 218 688 q 367 665 329 688 q 422 607 406 643 l 439 607 q 495 665 457 643 q 586 688 533 688 q 688 663 643 688 q 758 592 732 638 q 783 486 783 546 q 758 381 783 426 q 688 310 732 336 q 586 285 643 285 q 495 307 533 285 q 439 365 457 329 l 422 365 q 367 307 406 329 q 275 285 329 285 m 281 381 q 353 410 325 381 q 381 486 381 439 q 353 563 381 535 q 281 592 325 592 q 207 563 235 592 q 179 486 179 535 q 207 410 179 439 q 281 381 235 381 m 581 381 q 654 410 626 381 q 682 486 682 439 q 654 563 682 535 q 581 592 626 592 q 508 563 536 592 q 481 486 481 535 q 508 410 481 439 q 581 381 536 381 z "},"°":{"ha":529,"x_min":50,"x_max":479,"o":"m 265 567 q 156 594 204 567 q 78 669 107 621 q 50 779 50 718 q 78 890 50 842 q 156 965 107 938 q 265 992 204 992 q 374 965 325 992 q 451 890 422 938 q 479 779 479 842 q 451 669 479 718 q 374 594 422 621 q 265 567 325 567 m 265 658 q 351 692 318 658 q 383 779 383 725 q 351 867 383 835 q 265 900 318 900 q 179 867 213 900 q 146 779 146 835 q 179 692 146 725 q 265 658 213 658 z "},"∂":{"ha":861,"x_min":85,"x_max":776,"o":"m 431 -19 q 251 26 329 -19 q 129 151 174 71 q 85 331 85 231 l 85 347 q 125 528 85 449 q 239 653 165 607 q 410 699 313 699 q 534 674 482 699 q 611 611 586 649 l 628 611 q 547 751 607 693 q 405 844 488 808 q 229 889 322 879 l 249 993 q 641 798 506 958 q 776 378 776 638 q 736 170 776 260 q 618 31 696 81 q 431 -19 540 -19 m 431 82 q 556 117 504 82 q 636 211 608 151 q 664 347 664 271 q 633 476 664 419 q 550 565 603 532 q 431 597 497 597 q 308 564 361 597 q 224 474 254 531 q 194 347 194 418 l 194 332 q 224 202 194 258 q 308 114 254 146 q 431 82 361 82 z "},"◊":{"ha":861,"x_min":85,"x_max":776,"o":"m 344 0 l 85 486 l 344 972 l 517 972 l 776 486 l 517 0 l 344 0 m 422 85 l 439 85 l 654 486 l 439 889 l 422 889 l 207 486 l 422 85 z "},"∫":{"ha":861,"x_min":194,"x_max":667,"o":"m 194 -278 l 194 -176 l 338 -176 q 375 -135 375 -176 l 375 863 q 406 942 375 911 q 483 972 436 972 l 667 972 l 667 871 l 524 871 q 486 829 486 871 l 486 -168 q 456 -247 486 -217 q 378 -278 425 -278 l 194 -278 z "},"√":{"ha":861,"x_min":67,"x_max":811,"o":"m 313 0 l 204 436 l 67 436 l 67 536 l 290 536 l 404 71 l 421 71 l 697 1189 l 811 1189 l 513 0 l 313 0 z "},"∑":{"ha":861,"x_min":78,"x_max":781,"o":"m 78 -278 l 78 -132 l 440 347 l 78 826 l 78 972 l 781 972 l 781 871 l 194 871 l 194 854 l 579 347 l 194 -160 l 194 -176 l 781 -176 l 781 -278 l 78 -278 z "},"∏":{"ha":861,"x_min":94,"x_max":751,"o":"m 94 -278 l 94 972 l 751 972 l 751 -278 l 642 -278 l 642 871 l 204 871 l 204 -278 l 94 -278 z "},"Ω":{"ha":861,"x_min":74,"x_max":788,"o":"m 74 0 l 74 99 l 221 99 l 221 117 q 127 213 164 149 q 90 385 90 278 l 90 606 q 128 810 90 724 q 242 944 167 897 q 431 992 318 992 q 619 944 543 992 q 733 810 694 897 q 771 606 771 724 l 771 385 q 735 213 771 278 q 642 117 699 149 l 642 99 l 788 99 l 788 0 l 489 0 l 489 115 q 593 172 556 135 q 646 265 631 210 q 661 394 661 321 l 661 604 q 602 815 661 739 q 431 890 543 890 q 260 815 319 890 q 200 604 200 739 l 200 394 q 215 265 200 321 q 269 172 231 210 q 372 115 307 135 l 372 0 l 74 0 z "},"Δ":{"ha":861,"x_min":38,"x_max":824,"o":"m 38 0 l 339 972 l 522 972 l 824 0 l 38 0 m 179 100 l 682 100 l 439 875 l 422 875 l 179 100 z "},"`":{"ha":389,"x_min":75,"x_max":314,"o":"m 208 782 l 75 972 l 208 972 l 314 782 l 208 782 z "},"´":{"ha":389,"x_min":75,"x_max":314,"o":"m 75 771 l 182 960 l 314 960 l 181 771 l 75 771 z "},"ˆ":{"ha":629,"x_min":75,"x_max":553,"o":"m 75 771 l 247 960 l 382 960 l 553 771 l 429 771 l 324 888 l 304 888 l 200 771 l 75 771 z "},"ˇ":{"ha":629,"x_min":75,"x_max":553,"o":"m 247 771 l 75 960 l 200 960 l 304 844 l 324 844 l 429 960 l 553 960 l 382 771 l 247 771 z "},"˜":{"ha":593,"x_min":75,"x_max":518,"o":"m 144 758 l 75 799 l 118 876 q 159 920 135 904 q 215 936 183 936 q 266 924 244 936 q 313 886 288 913 q 343 853 329 867 q 372 840 357 840 q 397 849 388 840 q 415 872 407 858 l 449 932 l 518 892 l 475 813 q 436 769 460 785 q 379 753 413 753 q 328 765 350 753 q 282 804 306 776 q 251 835 265 822 q 222 849 238 849 q 196 840 206 849 q 179 818 186 831 l 144 758 z "},"¨":{"ha":576,"x_min":75,"x_max":501,"o":"m 418 783 q 360 806 383 783 q 336 867 336 829 q 360 926 336 904 q 418 949 383 949 q 478 926 456 949 q 501 867 501 904 q 478 806 501 829 q 418 783 456 783 m 158 783 q 99 806 122 783 q 75 867 75 829 q 99 926 75 904 q 158 949 122 949 q 218 926 194 949 q 242 867 242 904 q 218 806 242 829 q 158 783 194 783 z "},"¯":{"ha":579,"x_min":75,"x_max":503,"o":"m 75 799 l 75 889 l 503 889 l 503 799 l 75 799 z "},"˘":{"ha":557,"x_min":75,"x_max":482,"o":"m 279 767 q 131 815 188 767 q 75 951 75 864 l 75 960 l 172 960 l 172 953 q 199 877 172 907 q 279 847 225 847 q 359 877 333 847 q 385 953 385 907 l 385 960 l 482 960 l 482 951 q 426 815 482 864 q 279 767 371 767 z "},"˚":{"ha":425,"x_min":75,"x_max":350,"o":"m 213 754 q 115 791 156 754 q 75 886 75 828 q 115 983 75 946 q 211 1019 156 1019 q 310 983 269 1019 q 350 886 350 946 q 310 790 350 826 q 213 754 269 754 m 213 828 q 256 844 240 828 q 272 886 272 861 q 256 929 272 913 q 213 946 240 946 q 169 929 185 946 q 153 886 153 913 q 169 844 153 861 q 213 828 185 828 z "},"˝":{"ha":571,"x_min":75,"x_max":496,"o":"m 278 771 l 374 960 l 496 960 l 376 771 l 278 771 m 75 771 l 156 960 l 271 960 l 172 771 l 75 771 z "},"˙":{"ha":318,"x_min":75,"x_max":243,"o":"m 160 785 q 99 808 124 785 q 75 868 75 832 q 99 929 75 906 q 160 953 124 953 q 219 929 196 953 q 243 868 243 906 q 219 808 243 832 q 160 785 196 785 z "},"¸":{"ha":449,"x_min":75,"x_max":374,"o":"m 221 -285 q 142 -274 179 -285 q 75 -244 104 -262 l 108 -175 q 159 -199 132 -189 q 219 -208 186 -208 q 267 -197 247 -208 q 286 -161 286 -186 q 269 -128 286 -139 q 218 -117 251 -117 l 167 -117 l 181 29 l 261 29 l 253 -62 q 340 -90 307 -62 q 374 -171 374 -118 q 353 -235 374 -210 q 297 -273 332 -261 q 221 -285 263 -285 z "},"˛":{"ha":329,"x_min":75,"x_max":253,"o":"m 174 -228 q 102 -204 129 -228 q 75 -137 75 -181 q 78 -97 75 -118 q 88 -54 82 -76 l 104 19 l 186 19 l 169 -78 q 166 -98 168 -90 q 164 -115 164 -106 q 194 -143 164 -143 l 253 -143 l 253 -228 l 174 -228 z "},"ﬁ":{"ha":921,"x_min":40,"x_max":835,"o":"m 249 0 l 249 583 l 40 583 l 40 679 l 249 679 l 249 853 q 280 940 249 908 q 369 972 311 972 l 536 972 l 536 878 l 400 878 q 358 836 358 878 l 358 679 l 696 679 l 696 583 l 358 583 l 358 0 l 249 0 m 696 0 l 696 679 l 806 679 l 806 0 l 696 0 m 750 783 q 691 807 715 783 q 667 867 667 831 q 691 927 667 904 q 750 950 715 950 q 811 927 788 950 q 835 867 835 904 q 811 807 835 831 q 750 783 788 783 z "},"ﬂ":{"ha":921,"x_min":40,"x_max":806,"o":"m 249 0 l 249 583 l 40 583 l 40 679 l 249 679 l 249 853 q 280 940 249 908 q 369 972 311 972 l 540 972 l 540 878 l 400 878 q 358 836 358 878 l 358 679 l 572 679 l 572 583 l 358 583 l 358 0 l 249 0 m 696 0 l 696 972 l 806 972 l 806 0 l 696 0 z "},"ƒ":{"ha":861,"x_min":133,"x_max":728,"o":"m 133 0 l 133 101 l 333 101 q 371 143 371 101 l 371 510 l 183 510 l 183 610 l 371 610 l 371 863 q 401 942 371 911 q 478 972 431 972 l 728 972 l 728 871 l 518 871 q 481 829 481 871 l 481 610 l 678 610 l 678 510 l 481 510 l 481 110 q 451 31 481 61 q 374 0 421 0 l 133 0 z "},"́":{"ha":0,"x_min":75,"x_max":314,"o":"m 75 771 l 182 960 l 314 960 l 181 771 l 75 771 z "},"¹":{"ha":349,"x_min":26,"x_max":281,"o":"m 194 486 l 194 879 l 176 879 l 115 756 l 26 756 l 138 972 l 281 972 l 281 486 l 194 486 z "},"²":{"ha":508,"x_min":38,"x_max":465,"o":"m 38 486 l 38 529 q 85 651 38 604 q 231 721 133 699 q 342 762 306 738 q 379 828 379 786 q 347 892 379 868 q 260 917 314 917 q 169 890 206 917 q 129 807 133 864 l 42 813 q 110 946 50 901 q 260 990 169 990 q 408 947 351 990 q 465 828 465 903 q 417 714 465 751 q 281 657 368 676 q 171 619 206 640 q 131 560 136 599 l 463 560 l 463 486 l 38 486 z "},"³":{"ha":522,"x_min":38,"x_max":475,"o":"m 260 468 q 107 513 171 468 q 38 642 43 557 l 125 650 q 168 569 129 597 q 260 542 207 542 q 352 568 317 542 q 388 636 388 594 q 354 703 388 682 q 257 724 321 724 l 172 724 l 172 800 l 342 883 l 342 899 l 49 899 l 49 972 l 474 972 l 474 885 l 296 796 l 296 781 q 428 743 381 778 q 475 635 475 708 q 447 547 475 585 q 370 489 419 510 q 260 468 321 468 z "},"ⁱ":{"ha":290,"x_min":75,"x_max":214,"o":"m 101 486 l 101 972 l 189 972 l 189 486 l 101 486 m 144 1051 q 95 1071 115 1051 q 75 1118 75 1090 q 95 1165 75 1146 q 144 1185 115 1185 q 194 1165 175 1185 q 214 1118 214 1146 q 194 1071 214 1090 q 144 1051 175 1051 z "},"ⁿ":{"ha":619,"x_min":82,"x_max":543,"o":"m 82 486 l 82 972 l 165 972 l 165 900 l 183 900 q 238 958 201 932 q 343 983 275 983 q 486 930 429 983 q 543 775 543 876 l 543 486 l 457 486 l 457 767 q 321 911 457 911 q 212 866 256 911 q 168 738 168 821 l 168 486 l 82 486 z "},"ₔ":{"ha":583,"x_min":54,"x_max":529,"o":"m 290 -292 q 118 -224 182 -292 q 54 -50 54 -157 l 54 -10 l 443 -10 q 402 103 443 58 q 290 149 361 149 q 192 122 224 149 q 142 57 160 96 l 71 92 q 147 181 94 139 q 294 222 199 222 q 419 190 367 222 q 500 99 471 157 q 529 -32 529 42 l 529 -43 q 465 -222 529 -153 q 290 -292 400 -292 m 292 -218 q 400 -179 363 -218 q 443 -79 438 -140 l 143 -79 q 184 -179 144 -140 q 292 -218 224 -218 z "},"Ǽ":{"ha":1154,"x_min":35,"x_max":1088,"o":"m 539 0 l 539 972 l 1082 972 l 1082 867 l 656 867 l 656 542 l 1043 542 l 1043 436 l 656 436 l 656 106 l 1088 106 l 1088 0 l 539 0 m 35 0 l 431 972 l 539 972 l 539 907 l 521 907 l 297 351 l 539 351 l 539 246 l 257 246 l 158 0 l 35 0 m 517 1053 l 610 1221 l 746 1221 l 624 1053 l 517 1053 z "},"Ắ":{"ha":875,"x_min":35,"x_max":840,"o":"m 35 0 l 335 972 l 540 972 l 840 0 l 719 0 l 644 246 l 231 246 l 156 0 l 35 0 m 260 351 l 614 351 l 447 901 l 428 901 l 260 351 z "},"Ặ":{"ha":875,"x_min":35,"x_max":840,"o":"m 35 0 l 335 972 l 540 972 l 840 0 l 719 0 l 644 246 l 231 246 l 156 0 l 35 0 m 260 351 l 614 351 l 447 901 l 428 901 l 260 351 m 438 -272 q 377 -248 401 -272 q 353 -187 353 -224 q 377 -128 353 -151 q 438 -104 401 -104 q 497 -128 474 -104 q 521 -187 521 -151 q 497 -248 521 -224 q 438 -272 474 -272 m 438 1044 q 285 1093 340 1044 q 231 1219 231 1142 l 231 1224 l 328 1224 l 328 1219 q 355 1149 328 1176 q 438 1122 382 1122 q 522 1149 494 1122 q 550 1219 550 1176 l 550 1224 l 646 1224 l 646 1219 q 591 1093 646 1142 q 438 1044 536 1044 z "},"Ằ":{"ha":875,"x_min":35,"x_max":840,"o":"m 35 0 l 335 972 l 540 972 l 840 0 l 719 0 l 644 246 l 231 246 l 156 0 l 35 0 m 260 351 l 614 351 l 447 901 l 428 901 l 260 351 z "},"Ẳ":{"ha":875,"x_min":35,"x_max":840,"o":"m 35 0 l 335 972 l 540 972 l 840 0 l 719 0 l 644 246 l 231 246 l 156 0 l 35 0 m 260 351 l 614 351 l 447 901 l 428 901 l 260 351 z "},"Ẵ":{"ha":875,"x_min":35,"x_max":840,"o":"m 35 0 l 335 972 l 540 972 l 840 0 l 719 0 l 644 246 l 231 246 l 156 0 l 35 0 m 260 351 l 614 351 l 447 901 l 428 901 l 260 351 m 438 1044 q 285 1093 340 1044 q 231 1219 231 1142 l 231 1224 l 328 1224 l 328 1219 q 355 1149 328 1176 q 438 1122 382 1122 q 522 1149 494 1122 q 550 1219 550 1176 l 550 1224 l 646 1224 l 646 1219 q 591 1093 646 1142 q 438 1044 536 1044 m 272 1276 l 207 1321 l 251 1390 q 293 1434 269 1417 q 353 1451 317 1451 q 409 1438 385 1451 q 460 1396 433 1424 q 490 1367 478 1378 q 519 1357 503 1357 q 547 1367 536 1357 q 567 1390 557 1376 l 603 1447 l 668 1403 l 624 1333 q 583 1290 607 1308 q 524 1272 560 1272 q 467 1286 490 1272 q 417 1328 443 1300 q 386 1356 399 1346 q 357 1365 374 1365 q 329 1356 340 1365 q 308 1332 318 1346 l 272 1276 z "},"Ǎ":{"ha":875,"x_min":35,"x_max":840,"o":"m 35 0 l 335 972 l 540 972 l 840 0 l 719 0 l 644 246 l 231 246 l 156 0 l 35 0 m 260 351 l 614 351 l 447 901 l 428 901 l 260 351 m 371 1053 l 194 1221 l 329 1221 l 428 1119 l 446 1119 l 544 1221 l 679 1221 l 503 1053 l 371 1053 z "},"Ấ":{"ha":875,"x_min":35,"x_max":840,"o":"m 35 0 l 335 972 l 540 972 l 840 0 l 719 0 l 644 246 l 231 246 l 156 0 l 35 0 m 260 351 l 614 351 l 447 901 l 428 901 l 260 351 m 194 1053 l 371 1221 l 503 1221 l 679 1053 l 544 1053 l 446 1154 l 428 1154 l 329 1053 l 194 1053 m 603 1189 l 675 1363 l 793 1363 l 699 1189 l 603 1189 z "},"Ậ":{"ha":875,"x_min":35,"x_max":840,"o":"m 35 0 l 335 972 l 540 972 l 840 0 l 719 0 l 644 246 l 231 246 l 156 0 l 35 0 m 260 351 l 614 351 l 447 901 l 428 901 l 260 351 m 438 -272 q 377 -248 401 -272 q 353 -187 353 -224 q 377 -128 353 -151 q 438 -104 401 -104 q 497 -128 474 -104 q 521 -187 521 -151 q 497 -248 521 -224 q 438 -272 474 -272 m 194 1053 l 371 1221 l 503 1221 l 679 1053 l 544 1053 l 446 1154 l 428 1154 l 329 1053 l 194 1053 z "},"Ầ":{"ha":875,"x_min":35,"x_max":840,"o":"m 35 0 l 335 972 l 540 972 l 840 0 l 719 0 l 644 246 l 231 246 l 156 0 l 35 0 m 260 351 l 614 351 l 447 901 l 428 901 l 260 351 m 194 1053 l 371 1221 l 503 1221 l 679 1053 l 544 1053 l 446 1154 l 428 1154 l 329 1053 l 194 1053 m 635 1189 l 536 1363 l 654 1363 l 729 1189 l 635 1189 z "},"Ẩ":{"ha":875,"x_min":35,"x_max":840,"o":"m 35 0 l 335 972 l 540 972 l 840 0 l 719 0 l 644 246 l 231 246 l 156 0 l 35 0 m 260 351 l 614 351 l 447 901 l 428 901 l 260 351 m 194 1053 l 371 1221 l 503 1221 l 679 1053 l 544 1053 l 446 1154 l 428 1154 l 329 1053 l 194 1053 m 618 1188 l 608 1292 l 660 1292 q 710 1304 693 1292 q 728 1339 728 1317 q 708 1377 728 1365 q 661 1389 689 1389 q 601 1379 628 1389 q 550 1356 574 1369 l 517 1425 q 583 1455 546 1443 q 663 1467 621 1467 q 739 1453 704 1467 q 794 1415 774 1440 q 815 1350 815 1389 q 782 1268 815 1297 q 694 1239 749 1239 l 700 1188 l 618 1188 z "},"Ẫ":{"ha":875,"x_min":35,"x_max":840,"o":"m 35 0 l 335 972 l 540 972 l 840 0 l 719 0 l 644 246 l 231 246 l 156 0 l 35 0 m 260 351 l 614 351 l 447 901 l 428 901 l 260 351 m 194 1053 l 371 1221 l 503 1221 l 679 1053 l 544 1053 l 446 1154 l 428 1154 l 329 1053 l 194 1053 m 272 1282 l 207 1326 l 251 1396 q 293 1440 269 1422 q 353 1457 317 1457 q 409 1443 385 1457 q 460 1401 433 1429 q 490 1373 478 1383 q 519 1363 503 1363 q 547 1372 536 1363 q 567 1396 557 1382 l 603 1453 l 668 1408 l 624 1339 q 583 1296 607 1314 q 524 1278 560 1278 q 467 1292 490 1278 q 417 1333 443 1306 q 386 1361 399 1351 q 357 1371 374 1371 q 329 1361 340 1371 q 308 1338 318 1351 l 272 1282 z "},"Ȁ":{"ha":875,"x_min":35,"x_max":840,"o":"m 35 0 l 335 972 l 540 972 l 840 0 l 719 0 l 644 246 l 231 246 l 156 0 l 35 0 m 260 351 l 614 351 l 447 901 l 428 901 l 260 351 m 317 1057 l 186 1225 l 318 1225 l 417 1057 l 317 1057 m 519 1057 l 414 1225 l 532 1225 l 611 1057 l 519 1057 z "},"Ạ":{"ha":875,"x_min":35,"x_max":840,"o":"m 35 0 l 335 972 l 540 972 l 840 0 l 719 0 l 644 246 l 231 246 l 156 0 l 35 0 m 260 351 l 614 351 l 447 901 l 428 901 l 260 351 m 438 -272 q 377 -248 401 -272 q 353 -187 353 -224 q 377 -128 353 -151 q 438 -104 401 -104 q 497 -128 474 -104 q 521 -187 521 -151 q 497 -248 521 -224 q 438 -272 474 -272 z "},"Ả":{"ha":875,"x_min":35,"x_max":840,"o":"m 35 0 l 335 972 l 540 972 l 840 0 l 719 0 l 644 246 l 231 246 l 156 0 l 35 0 m 260 351 l 614 351 l 447 901 l 428 901 l 260 351 m 403 1039 l 393 1143 l 444 1143 q 495 1156 478 1143 q 513 1192 513 1168 q 493 1230 513 1218 q 446 1242 474 1242 q 385 1231 413 1242 q 335 1207 358 1221 l 301 1276 q 368 1306 331 1294 q 447 1318 406 1318 q 524 1305 489 1318 q 579 1267 558 1292 q 600 1201 600 1242 q 567 1119 600 1149 q 479 1090 533 1090 l 485 1039 l 403 1039 z "},"Ȃ":{"ha":875,"x_min":35,"x_max":840,"o":"m 35 0 l 335 972 l 540 972 l 840 0 l 719 0 l 644 246 l 231 246 l 156 0 l 35 0 m 260 351 l 614 351 l 447 901 l 428 901 l 260 351 m 233 1064 l 233 1072 q 290 1209 233 1161 q 438 1257 346 1257 q 585 1209 529 1257 q 640 1072 640 1161 l 640 1064 l 543 1064 l 543 1071 q 517 1147 543 1117 q 438 1176 492 1176 q 357 1147 383 1176 q 331 1071 331 1117 l 331 1064 l 233 1064 z "},"Ǻ":{"ha":875,"x_min":35,"x_max":840,"o":"m 35 0 l 335 972 l 540 972 l 840 0 l 719 0 l 644 246 l 231 246 l 156 0 l 35 0 m 260 351 l 614 351 l 447 901 l 428 901 l 260 351 m 421 1250 l 521 1422 l 640 1422 l 519 1250 l 421 1250 m 438 1039 q 340 1076 381 1039 q 300 1172 300 1113 q 340 1267 300 1231 q 436 1304 381 1304 q 535 1267 494 1304 q 575 1172 575 1231 q 535 1076 575 1113 q 438 1039 494 1039 m 438 1113 q 481 1129 465 1113 q 497 1172 497 1146 q 481 1215 497 1197 q 438 1232 465 1232 q 394 1215 410 1232 q 378 1172 378 1197 q 394 1129 378 1146 q 438 1113 410 1113 z "},"Ƀ":{"ha":918,"x_min":65,"x_max":844,"o":"m 65 0 l 65 104 l 201 104 l 201 868 l 65 868 l 65 972 l 553 972 q 703 942 638 972 q 806 856 769 911 q 843 728 843 801 l 843 717 q 817 605 843 649 q 754 537 790 561 q 683 501 718 513 l 683 482 q 756 449 718 474 q 819 381 793 425 q 844 268 844 336 l 844 254 q 806 117 844 175 q 702 30 768 60 q 551 0 636 0 l 65 0 m 318 106 l 539 106 q 679 149 631 106 q 728 265 728 192 l 728 278 q 679 394 728 351 q 539 438 631 438 l 318 438 l 318 106 m 318 543 l 543 543 q 676 585 626 543 q 726 697 726 628 l 726 711 q 677 824 726 782 q 543 867 628 867 l 318 867 l 318 543 m 65 226 l 65 313 l 486 313 l 486 226 l 65 226 z "},"Ḉ":{"ha":892,"x_min":83,"x_max":819,"o":"m 463 -19 q 186 81 289 -19 q 83 375 83 182 l 83 597 q 186 891 83 790 q 463 992 289 992 q 727 896 635 992 q 819 633 819 800 l 819 626 l 704 626 l 704 638 q 645 817 704 747 q 463 888 586 888 q 269 812 339 888 q 200 600 200 736 l 200 372 q 269 160 200 236 q 463 85 339 85 q 645 155 586 85 q 704 335 704 225 l 704 357 l 819 357 l 819 339 q 727 76 819 172 q 463 -19 635 -19 m 464 -285 q 385 -274 422 -285 q 318 -244 347 -262 l 351 -175 q 402 -199 375 -189 q 463 -208 429 -208 q 510 -197 490 -208 q 529 -161 529 -186 q 512 -128 529 -139 q 461 -117 494 -117 l 410 -117 l 424 29 l 504 29 l 496 -62 q 583 -90 550 -62 q 617 -171 617 -118 q 596 -235 617 -210 q 540 -273 575 -261 q 464 -285 506 -285 m 385 1053 l 478 1221 l 614 1221 l 492 1053 l 385 1053 z "},"Ǆ":{"ha":1701,"x_min":65,"x_max":1636,"o":"m 65 0 l 65 104 l 201 104 l 201 868 l 65 868 l 65 972 l 444 972 q 741 875 636 972 q 846 576 846 778 l 846 396 q 741 97 846 193 q 444 0 636 0 l 65 0 m 318 106 l 444 106 q 658 175 586 106 q 731 390 731 244 l 731 581 q 658 797 731 729 q 444 865 586 865 l 318 865 l 318 106 m 969 0 l 969 154 l 1511 851 l 1511 868 l 986 868 l 986 972 l 1626 972 l 1626 818 l 1085 121 l 1085 104 l 1638 104 l 1638 0 l 969 0 m 1231 1053 l 1054 1221 l 1189 1221 l 1288 1119 l 1306 1119 l 1404 1221 l 1539 1221 l 1363 1053 l 1231 1053 z "},"Ḍ":{"ha":921,"x_min":65,"x_max":846,"o":"m 65 0 l 65 104 l 201 104 l 201 868 l 65 868 l 65 972 l 444 972 q 741 875 636 972 q 846 576 846 778 l 846 396 q 741 97 846 193 q 444 0 636 0 l 65 0 m 318 106 l 444 106 q 658 175 586 106 q 731 390 731 244 l 731 581 q 658 797 731 729 q 444 865 586 865 l 318 865 l 318 106 m 442 -272 q 381 -248 406 -272 q 357 -187 357 -224 q 381 -128 357 -151 q 442 -104 406 -104 q 501 -128 478 -104 q 525 -187 525 -151 q 501 -248 525 -224 q 442 -272 478 -272 z "},"Ḏ":{"ha":921,"x_min":65,"x_max":846,"o":"m 65 0 l 65 104 l 201 104 l 201 868 l 65 868 l 65 972 l 444 972 q 741 875 636 972 q 846 576 846 778 l 846 396 q 741 97 846 193 q 444 0 636 0 l 65 0 m 318 106 l 444 106 q 658 175 586 106 q 731 390 731 244 l 731 581 q 658 797 731 729 q 444 865 586 865 l 318 865 l 318 106 m 228 -211 l 228 -119 l 656 -119 l 656 -211 l 228 -211 z "},"ǅ":{"ha":1644,"x_min":65,"x_max":1564,"o":"m 65 0 l 65 104 l 201 104 l 201 868 l 65 868 l 65 972 l 444 972 q 741 875 636 972 q 846 576 846 778 l 846 396 q 741 97 846 193 q 444 0 636 0 l 65 0 m 318 106 l 444 106 q 658 175 586 106 q 731 390 731 244 l 731 581 q 658 797 731 729 q 444 865 586 865 l 318 865 l 318 106 m 1006 0 l 1006 142 l 1438 568 l 1438 583 l 1019 583 l 1019 679 l 1553 679 l 1553 538 l 1119 111 l 1119 94 l 1564 94 l 1564 0 l 1006 0 m 1208 771 l 1036 960 l 1161 960 l 1265 844 l 1285 844 l 1390 960 l 1514 960 l 1343 771 l 1208 771 z "},"Ḝ":{"ha":782,"x_min":111,"x_max":717,"o":"m 111 0 l 111 972 l 710 972 l 710 867 l 228 867 l 228 542 l 671 542 l 671 436 l 228 436 l 228 106 l 717 106 l 717 0 l 111 0 m 417 -285 q 338 -274 375 -285 q 271 -244 300 -262 l 304 -175 q 355 -199 328 -189 q 415 -208 382 -208 q 463 -197 443 -208 q 482 -161 482 -186 q 465 -128 482 -139 q 414 -117 447 -117 l 363 -117 l 376 29 l 457 29 l 449 -62 q 536 -90 503 -62 q 569 -171 569 -118 q 549 -235 569 -210 q 493 -273 528 -261 q 417 -285 458 -285 m 418 1044 q 266 1093 321 1044 q 211 1219 211 1142 l 211 1224 l 308 1224 l 308 1219 q 335 1149 308 1176 q 418 1122 363 1122 q 503 1149 475 1122 q 531 1219 531 1176 l 531 1224 l 626 1224 l 626 1219 q 572 1093 626 1142 q 418 1044 517 1044 z "},"Ế":{"ha":782,"x_min":111,"x_max":775,"o":"m 111 0 l 111 972 l 710 972 l 710 867 l 228 867 l 228 542 l 671 542 l 671 436 l 228 436 l 228 106 l 717 106 l 717 0 l 111 0 m 176 1053 l 353 1221 l 485 1221 l 661 1053 l 526 1053 l 428 1154 l 410 1154 l 311 1053 l 176 1053 m 585 1189 l 657 1363 l 775 1363 l 681 1189 l 585 1189 z "},"Ệ":{"ha":782,"x_min":111,"x_max":717,"o":"m 111 0 l 111 972 l 710 972 l 710 867 l 228 867 l 228 542 l 671 542 l 671 436 l 228 436 l 228 106 l 717 106 l 717 0 l 111 0 m 414 -272 q 353 -248 378 -272 q 329 -187 329 -224 q 353 -128 329 -151 q 414 -104 378 -104 q 474 -128 450 -104 q 497 -187 497 -151 q 474 -248 497 -224 q 414 -272 450 -272 m 176 1053 l 353 1221 l 485 1221 l 661 1053 l 526 1053 l 428 1154 l 410 1154 l 311 1053 l 176 1053 z "},"Ề":{"ha":782,"x_min":111,"x_max":717,"o":"m 111 0 l 111 972 l 710 972 l 710 867 l 228 867 l 228 542 l 671 542 l 671 436 l 228 436 l 228 106 l 717 106 l 717 0 l 111 0 m 176 1053 l 353 1221 l 485 1221 l 661 1053 l 526 1053 l 428 1154 l 410 1154 l 311 1053 l 176 1053 m 617 1189 l 518 1363 l 636 1363 l 711 1189 l 617 1189 z "},"Ể":{"ha":782,"x_min":111,"x_max":797,"o":"m 111 0 l 111 972 l 710 972 l 710 867 l 228 867 l 228 542 l 671 542 l 671 436 l 228 436 l 228 106 l 717 106 l 717 0 l 111 0 m 176 1053 l 353 1221 l 485 1221 l 661 1053 l 526 1053 l 428 1154 l 410 1154 l 311 1053 l 176 1053 m 600 1188 l 590 1292 l 642 1292 q 692 1304 675 1292 q 710 1339 710 1317 q 690 1377 710 1365 q 643 1389 671 1389 q 583 1379 610 1389 q 532 1356 556 1369 l 499 1425 q 565 1455 528 1443 q 644 1467 603 1467 q 721 1453 686 1467 q 776 1415 756 1440 q 797 1350 797 1389 q 764 1268 797 1297 q 676 1239 731 1239 l 682 1188 l 600 1188 z "},"Ễ":{"ha":782,"x_min":111,"x_max":717,"o":"m 111 0 l 111 972 l 710 972 l 710 867 l 228 867 l 228 542 l 671 542 l 671 436 l 228 436 l 228 106 l 717 106 l 717 0 l 111 0 m 176 1053 l 353 1221 l 485 1221 l 661 1053 l 526 1053 l 428 1154 l 410 1154 l 311 1053 l 176 1053 m 253 1282 l 188 1326 l 232 1396 q 274 1440 250 1422 q 333 1457 297 1457 q 390 1443 365 1457 q 440 1401 414 1429 q 471 1373 458 1383 q 500 1363 483 1363 q 527 1372 517 1363 q 547 1396 538 1382 l 583 1453 l 649 1408 l 604 1339 q 564 1296 588 1314 q 504 1278 540 1278 q 447 1292 471 1278 q 397 1333 424 1306 q 367 1361 379 1351 q 338 1371 354 1371 q 310 1361 321 1371 q 289 1338 299 1351 l 253 1282 z "},"Ȅ":{"ha":782,"x_min":111,"x_max":717,"o":"m 111 0 l 111 972 l 710 972 l 710 867 l 228 867 l 228 542 l 671 542 l 671 436 l 228 436 l 228 106 l 717 106 l 717 0 l 111 0 m 299 1057 l 168 1225 l 300 1225 l 399 1057 l 299 1057 m 501 1057 l 396 1225 l 514 1225 l 593 1057 l 501 1057 z "},"Ẹ":{"ha":782,"x_min":111,"x_max":717,"o":"m 111 0 l 111 972 l 710 972 l 710 867 l 228 867 l 228 542 l 671 542 l 671 436 l 228 436 l 228 106 l 717 106 l 717 0 l 111 0 m 414 -272 q 353 -248 378 -272 q 329 -187 329 -224 q 353 -128 329 -151 q 414 -104 378 -104 q 474 -128 450 -104 q 497 -187 497 -151 q 474 -248 497 -224 q 414 -272 450 -272 z "},"Ẻ":{"ha":782,"x_min":111,"x_max":717,"o":"m 111 0 l 111 972 l 710 972 l 710 867 l 228 867 l 228 542 l 671 542 l 671 436 l 228 436 l 228 106 l 717 106 l 717 0 l 111 0 m 385 1039 l 375 1143 l 426 1143 q 477 1156 460 1143 q 494 1192 494 1168 q 475 1230 494 1218 q 428 1242 456 1242 q 367 1231 394 1242 q 317 1207 340 1221 l 283 1276 q 350 1306 313 1294 q 429 1318 388 1318 q 506 1305 471 1318 q 561 1267 540 1292 q 582 1201 582 1242 q 549 1119 582 1149 q 461 1090 515 1090 l 467 1039 l 385 1039 z "},"Ȇ":{"ha":782,"x_min":111,"x_max":717,"o":"m 111 0 l 111 972 l 710 972 l 710 867 l 228 867 l 228 542 l 671 542 l 671 436 l 228 436 l 228 106 l 717 106 l 717 0 l 111 0 m 215 1064 l 215 1072 q 272 1209 215 1161 q 419 1257 328 1257 q 567 1209 511 1257 q 622 1072 622 1161 l 622 1064 l 525 1064 l 525 1071 q 499 1147 525 1117 q 419 1176 474 1176 q 339 1147 365 1176 q 313 1071 313 1117 l 313 1064 l 215 1064 z "},"Ḗ":{"ha":782,"x_min":111,"x_max":717,"o":"m 111 0 l 111 972 l 710 972 l 710 867 l 228 867 l 228 542 l 671 542 l 671 436 l 228 436 l 228 106 l 717 106 l 717 0 l 111 0 m 204 1071 l 204 1161 l 632 1161 l 632 1071 l 204 1071 m 340 1247 l 433 1415 l 569 1415 l 447 1247 l 340 1247 z "},"Ḕ":{"ha":782,"x_min":111,"x_max":717,"o":"m 111 0 l 111 972 l 710 972 l 710 867 l 228 867 l 228 542 l 671 542 l 671 436 l 228 436 l 228 106 l 717 106 l 717 0 l 111 0 m 204 1071 l 204 1161 l 632 1161 l 632 1071 l 204 1071 m 392 1251 l 268 1419 l 404 1419 l 497 1251 l 392 1251 z "},"Ẽ":{"ha":782,"x_min":111,"x_max":717,"o":"m 111 0 l 111 972 l 710 972 l 710 867 l 228 867 l 228 542 l 671 542 l 671 436 l 228 436 l 228 106 l 717 106 l 717 0 l 111 0 m 253 1053 l 188 1097 l 232 1167 q 274 1210 250 1193 q 333 1228 297 1228 q 390 1214 365 1228 q 440 1172 414 1200 q 471 1144 458 1154 q 500 1133 483 1133 q 527 1143 517 1133 q 547 1167 538 1153 l 583 1224 l 649 1179 l 604 1110 q 564 1067 588 1085 q 504 1049 540 1049 q 447 1063 471 1049 q 397 1104 424 1076 q 367 1132 379 1122 q 338 1142 354 1142 q 310 1132 321 1142 q 289 1108 299 1122 l 253 1053 z "},"Ǧ":{"ha":917,"x_min":83,"x_max":815,"o":"m 450 -19 q 259 26 342 -19 q 130 158 176 71 q 83 375 83 246 l 83 597 q 186 891 83 790 q 463 992 289 992 q 725 897 635 992 q 815 644 815 803 l 815 638 l 700 638 l 700 647 q 675 771 700 717 q 597 856 650 825 q 463 888 544 888 q 269 812 339 888 q 200 600 200 736 l 200 372 q 269 160 200 236 q 464 85 339 85 q 644 154 586 85 q 701 339 701 224 l 701 363 l 407 363 l 407 463 l 815 463 l 815 0 l 710 0 l 710 106 l 690 106 q 647 46 675 75 q 572 -1 619 17 q 450 -19 525 -19 m 400 1053 l 224 1221 l 358 1221 l 457 1119 l 475 1119 l 574 1221 l 708 1221 l 532 1053 l 400 1053 z "},"Ģ":{"ha":917,"x_min":83,"x_max":815,"o":"m 450 -19 q 259 26 342 -19 q 130 158 176 71 q 83 375 83 246 l 83 597 q 186 891 83 790 q 463 992 289 992 q 725 897 635 992 q 815 644 815 803 l 815 638 l 700 638 l 700 647 q 675 771 700 717 q 597 856 650 825 q 463 888 544 888 q 269 812 339 888 q 200 600 200 736 l 200 372 q 269 160 200 236 q 464 85 339 85 q 644 154 586 85 q 701 339 701 224 l 701 363 l 407 363 l 407 463 l 815 463 l 815 0 l 710 0 l 710 106 l 690 106 q 647 46 675 75 q 572 -1 619 17 q 450 -19 525 -19 m 403 -364 l 403 -303 l 435 -303 q 472 -292 461 -303 q 482 -258 482 -282 l 482 -237 l 467 -237 q 410 -217 432 -237 q 388 -161 388 -196 q 410 -106 388 -128 q 468 -85 432 -85 q 526 -108 503 -85 q 549 -172 549 -131 l 549 -260 q 522 -338 549 -312 q 440 -364 496 -364 l 403 -364 z "},"ẞ":{"ha":879,"x_min":104,"x_max":831,"o":"m 575 -19 q 381 48 453 -19 q 308 233 308 115 l 424 233 q 466 122 424 160 q 575 85 508 85 q 678 119 642 85 q 715 208 715 154 q 680 294 715 265 q 597 343 644 324 l 531 372 q 445 436 474 399 q 417 522 417 474 q 440 607 417 571 q 503 681 463 643 l 688 851 l 688 868 l 451 868 q 335 844 388 868 q 251 764 282 819 q 219 615 219 708 l 219 0 l 104 0 l 104 610 q 147 810 104 729 q 269 931 190 890 q 451 972 347 972 l 807 972 l 807 819 l 572 600 q 543 567 554 583 q 532 528 532 550 q 549 492 532 506 q 592 465 565 478 l 651 439 q 738 391 697 419 q 805 319 779 363 q 831 210 831 275 q 764 45 831 110 q 575 -19 697 -19 z "},"Ḡ":{"ha":917,"x_min":83,"x_max":815,"o":"m 450 -19 q 259 26 342 -19 q 130 158 176 71 q 83 375 83 246 l 83 597 q 186 891 83 790 q 463 992 289 992 q 725 897 635 992 q 815 644 815 803 l 815 638 l 700 638 l 700 647 q 675 771 700 717 q 597 856 650 825 q 463 888 544 888 q 269 812 339 888 q 200 600 200 736 l 200 372 q 269 160 200 236 q 464 85 339 85 q 644 154 586 85 q 701 339 701 224 l 701 363 l 407 363 l 407 463 l 815 463 l 815 0 l 710 0 l 710 106 l 690 106 q 647 46 675 75 q 572 -1 619 17 q 450 -19 525 -19 m 251 1071 l 251 1161 l 679 1161 l 679 1071 l 251 1071 z "},"Ḫ":{"ha":911,"x_min":111,"x_max":800,"o":"m 111 0 l 111 972 l 228 972 l 228 540 l 683 540 l 683 972 l 800 972 l 800 0 l 683 0 l 683 435 l 228 435 l 228 0 l 111 0 m 456 -292 q 308 -243 364 -292 q 251 -107 251 -194 l 251 -99 l 349 -99 l 349 -106 q 375 -181 349 -151 q 456 -211 401 -211 q 535 -181 510 -211 q 561 -106 561 -151 l 561 -99 l 658 -99 l 658 -107 q 603 -243 658 -194 q 456 -292 547 -292 z "},"Ḥ":{"ha":911,"x_min":111,"x_max":800,"o":"m 111 0 l 111 972 l 228 972 l 228 540 l 683 540 l 683 972 l 800 972 l 800 0 l 683 0 l 683 435 l 228 435 l 228 0 l 111 0 m 456 -272 q 395 -248 419 -272 q 371 -187 371 -224 q 395 -128 371 -151 q 456 -104 419 -104 q 515 -128 492 -104 q 539 -187 539 -151 q 515 -248 539 -224 q 456 -272 492 -272 z "},"Ǐ":{"ha":339,"x_min":-72,"x_max":411,"o":"m 111 0 l 111 972 l 228 972 l 228 0 l 111 0 m 104 1053 l -72 1221 l 63 1221 l 161 1119 l 179 1119 l 278 1221 l 413 1221 l 236 1053 l 104 1053 z "},"Ȉ":{"ha":339,"x_min":-81,"x_max":343,"o":"m 111 0 l 111 972 l 228 972 l 228 0 l 111 0 m 50 1057 l -81 1225 l 51 1225 l 150 1057 l 50 1057 m 253 1057 l 147 1225 l 265 1225 l 344 1057 l 253 1057 z "},"Ḯ":{"ha":339,"x_min":-51,"x_max":390,"o":"m 111 0 l 111 972 l 228 972 l 228 0 l 111 0 m 307 1056 q 247 1078 271 1056 q 224 1138 224 1101 q 247 1197 224 1175 q 307 1219 271 1219 q 366 1197 343 1219 q 389 1138 389 1175 q 366 1078 389 1101 q 307 1056 343 1056 m 32 1056 q -28 1078 -4 1056 q -51 1138 -51 1101 q -28 1197 -51 1175 q 32 1219 -4 1219 q 92 1197 68 1219 q 115 1138 115 1175 q 92 1078 115 1101 q 32 1056 68 1056 m 92 1278 l 185 1446 l 321 1446 l 199 1278 l 92 1278 z "},"Ị":{"ha":339,"x_min":86,"x_max":253,"o":"m 111 0 l 111 972 l 228 972 l 228 0 l 111 0 m 169 -272 q 109 -248 133 -272 q 85 -187 85 -224 q 109 -128 85 -151 q 169 -104 133 -104 q 229 -128 206 -104 q 253 -187 253 -151 q 229 -248 253 -224 q 169 -272 206 -272 z "},"Ỉ":{"ha":339,"x_min":35,"x_max":332,"o":"m 111 0 l 111 972 l 228 972 l 228 0 l 111 0 m 136 1039 l 126 1143 l 178 1143 q 228 1156 211 1143 q 246 1192 246 1168 q 226 1230 246 1218 q 179 1242 207 1242 q 119 1231 146 1242 q 68 1207 92 1221 l 35 1276 q 101 1306 64 1294 q 181 1318 139 1318 q 257 1305 222 1318 q 313 1267 292 1292 q 333 1201 333 1242 q 300 1119 333 1149 q 213 1090 267 1090 l 218 1039 l 136 1039 z "},"Ȋ":{"ha":339,"x_min":-35,"x_max":372,"o":"m 111 0 l 111 972 l 228 972 l 228 0 l 111 0 m -35 1064 l -35 1072 q 22 1209 -35 1161 q 169 1257 78 1257 q 317 1209 261 1257 q 372 1072 372 1161 l 372 1064 l 275 1064 l 275 1071 q 249 1147 275 1117 q 169 1176 224 1176 q 89 1147 115 1176 q 63 1071 63 1117 l 63 1064 l -35 1064 z "},"Ķ":{"ha":847,"x_min":111,"x_max":831,"o":"m 111 0 l 111 972 l 228 972 l 228 549 l 247 549 l 658 972 l 814 972 l 340 492 l 831 0 l 671 0 l 247 432 l 228 432 l 228 0 l 111 0 m 368 -364 l 368 -303 l 400 -303 q 437 -292 426 -303 q 447 -258 447 -282 l 447 -237 l 432 -237 q 375 -217 397 -237 q 353 -161 353 -196 q 375 -106 353 -128 q 433 -85 397 -85 q 491 -108 468 -85 q 514 -172 514 -131 l 514 -260 q 488 -338 514 -312 q 406 -364 461 -364 l 368 -364 z "},"Ǉ":{"ha":1583,"x_min":111,"x_max":1521,"o":"m 111 0 l 111 972 l 228 972 l 228 106 l 719 106 l 719 0 l 111 0 m 1124 -19 q 898 61 981 -19 q 815 292 815 142 l 815 367 l 931 367 l 931 292 q 978 144 931 201 q 1122 88 1026 88 q 1260 144 1219 88 q 1300 292 1300 200 l 1300 867 l 1129 867 l 1129 972 l 1522 972 l 1522 867 l 1417 867 l 1417 292 q 1342 60 1417 140 q 1124 -19 1267 -19 z "},"Ļ":{"ha":758,"x_min":111,"x_max":719,"o":"m 111 0 l 111 972 l 228 972 l 228 106 l 719 106 l 719 0 l 111 0 m 350 -364 l 350 -303 l 382 -303 q 419 -292 408 -303 q 429 -258 429 -282 l 429 -237 l 414 -237 q 357 -217 379 -237 q 335 -161 335 -196 q 357 -106 335 -128 q 415 -85 379 -85 q 473 -108 450 -85 q 496 -172 496 -131 l 496 -260 q 469 -338 496 -312 q 388 -364 443 -364 l 350 -364 z "},"Ḷ":{"ha":758,"x_min":111,"x_max":719,"o":"m 111 0 l 111 972 l 228 972 l 228 106 l 719 106 l 719 0 l 111 0 m 415 -272 q 355 -248 379 -272 q 331 -187 331 -224 q 355 -128 331 -151 q 415 -104 379 -104 q 475 -128 451 -104 q 499 -187 499 -151 q 475 -248 499 -224 q 415 -272 451 -272 z "},"ǈ":{"ha":1100,"x_min":111,"x_max":1014,"o":"m 111 0 l 111 972 l 228 972 l 228 106 l 719 106 l 719 0 l 111 0 m 740 -278 l 740 -181 l 835 -181 q 876 -139 876 -181 l 876 679 l 986 679 l 986 -158 q 955 -246 986 -214 q 865 -278 924 -278 l 740 -278 m 932 785 q 872 808 896 785 q 847 868 847 832 q 872 929 847 906 q 932 953 896 953 q 992 929 968 953 q 1015 868 1015 906 q 992 808 1015 832 q 932 785 968 785 z "},"Ḻ":{"ha":758,"x_min":111,"x_max":719,"o":"m 111 0 l 111 972 l 228 972 l 228 106 l 719 106 l 719 0 l 111 0 m 201 -211 l 201 -119 l 629 -119 l 629 -211 l 201 -211 z "},"Ṃ":{"ha":1201,"x_min":111,"x_max":1090,"o":"m 111 0 l 111 972 l 333 972 l 592 74 l 610 74 l 868 972 l 1090 972 l 1090 0 l 978 0 l 978 896 l 958 896 l 701 0 l 500 0 l 243 896 l 224 896 l 224 0 l 111 0 m 601 -272 q 541 -248 565 -272 q 517 -187 517 -224 q 541 -128 517 -151 q 601 -104 565 -104 q 661 -128 638 -104 q 685 -187 685 -151 q 661 -248 685 -224 q 601 -272 638 -272 z "},"Ǌ":{"ha":1747,"x_min":111,"x_max":1685,"o":"m 111 0 l 111 972 l 338 972 l 676 74 l 694 74 l 694 972 l 810 972 l 810 0 l 583 0 l 246 900 l 226 900 l 226 0 l 111 0 m 1288 -19 q 1062 61 1144 -19 q 979 292 979 142 l 979 367 l 1094 367 l 1094 292 q 1142 144 1094 201 q 1286 88 1190 88 q 1424 144 1383 88 q 1464 292 1464 200 l 1464 867 l 1293 867 l 1293 972 l 1686 972 l 1686 867 l 1581 867 l 1581 292 q 1506 60 1581 140 q 1288 -19 1431 -19 z "},"Ņ":{"ha":922,"x_min":111,"x_max":810,"o":"m 111 0 l 111 972 l 338 972 l 676 74 l 694 74 l 694 972 l 810 972 l 810 0 l 583 0 l 246 900 l 226 900 l 226 0 l 111 0 m 400 -364 l 400 -303 l 432 -303 q 469 -292 458 -303 q 479 -258 479 -282 l 479 -237 l 464 -237 q 407 -217 429 -237 q 385 -161 385 -196 q 407 -106 385 -128 q 465 -85 429 -85 q 523 -108 500 -85 q 546 -172 546 -131 l 546 -260 q 519 -338 546 -312 q 438 -364 493 -364 l 400 -364 z "},"Ṅ":{"ha":922,"x_min":111,"x_max":810,"o":"m 111 0 l 111 972 l 338 972 l 676 74 l 694 74 l 694 972 l 810 972 l 810 0 l 583 0 l 246 900 l 226 900 l 226 0 l 111 0 m 465 1056 q 405 1079 429 1056 q 381 1139 381 1103 q 405 1199 381 1176 q 465 1222 429 1222 q 525 1199 501 1222 q 549 1139 549 1176 q 525 1079 549 1103 q 465 1056 501 1056 z "},"Ṇ":{"ha":922,"x_min":111,"x_max":810,"o":"m 111 0 l 111 972 l 338 972 l 676 74 l 694 74 l 694 972 l 810 972 l 810 0 l 583 0 l 246 900 l 226 900 l 226 0 l 111 0 m 465 -272 q 405 -248 429 -272 q 381 -187 381 -224 q 405 -128 381 -151 q 465 -104 429 -104 q 525 -128 501 -104 q 549 -187 549 -151 q 525 -248 549 -224 q 465 -272 501 -272 z "},"ǋ":{"ha":1264,"x_min":111,"x_max":1178,"o":"m 111 0 l 111 972 l 338 972 l 676 74 l 694 74 l 694 972 l 810 972 l 810 0 l 583 0 l 246 900 l 226 900 l 226 0 l 111 0 m 904 -278 l 904 -181 l 999 -181 q 1040 -139 1040 -181 l 1040 679 l 1150 679 l 1150 -158 q 1119 -246 1150 -214 q 1029 -278 1088 -278 l 904 -278 m 1096 785 q 1035 808 1060 785 q 1011 868 1011 832 q 1035 929 1011 906 q 1096 953 1060 953 q 1156 929 1132 953 q 1179 868 1179 906 q 1156 808 1179 832 q 1096 785 1132 785 z "},"Ṉ":{"ha":922,"x_min":111,"x_max":810,"o":"m 111 0 l 111 972 l 338 972 l 676 74 l 694 74 l 694 972 l 810 972 l 810 0 l 583 0 l 246 900 l 226 900 l 226 0 l 111 0 m 250 -211 l 250 -119 l 678 -119 l 678 -211 l 250 -211 z "},"Ǒ":{"ha":929,"x_min":83,"x_max":846,"o":"m 464 -19 q 187 81 290 -19 q 83 375 83 182 l 83 597 q 187 891 83 790 q 464 992 290 992 q 742 891 639 992 q 846 597 846 790 l 846 375 q 742 81 846 182 q 464 -19 639 -19 m 464 85 q 660 160 590 85 q 729 371 729 236 l 729 601 q 660 812 729 736 q 464 888 590 888 q 269 812 339 888 q 200 601 200 736 l 200 371 q 269 160 200 236 q 464 85 339 85 m 399 1053 l 222 1221 l 357 1221 l 456 1119 l 474 1119 l 572 1221 l 707 1221 l 531 1053 l 399 1053 z "},"Ố":{"ha":929,"x_min":83,"x_max":846,"o":"m 464 -19 q 187 81 290 -19 q 83 375 83 182 l 83 597 q 187 891 83 790 q 464 992 290 992 q 742 891 639 992 q 846 597 846 790 l 846 375 q 742 81 846 182 q 464 -19 639 -19 m 464 85 q 660 160 590 85 q 729 371 729 236 l 729 601 q 660 812 729 736 q 464 888 590 888 q 269 812 339 888 q 200 601 200 736 l 200 371 q 269 160 200 236 q 464 85 339 85 m 222 1053 l 399 1221 l 531 1221 l 707 1053 l 572 1053 l 474 1154 l 456 1154 l 357 1053 l 222 1053 m 631 1189 l 703 1363 l 821 1363 l 726 1189 l 631 1189 z "},"Ộ":{"ha":929,"x_min":83,"x_max":846,"o":"m 464 -19 q 187 81 290 -19 q 83 375 83 182 l 83 597 q 187 891 83 790 q 464 992 290 992 q 742 891 639 992 q 846 597 846 790 l 846 375 q 742 81 846 182 q 464 -19 639 -19 m 464 85 q 660 160 590 85 q 729 371 729 236 l 729 601 q 660 812 729 736 q 464 888 590 888 q 269 812 339 888 q 200 601 200 736 l 200 371 q 269 160 200 236 q 464 85 339 85 m 465 -272 q 405 -248 429 -272 q 381 -187 381 -224 q 405 -128 381 -151 q 465 -104 429 -104 q 525 -128 501 -104 q 549 -187 549 -151 q 525 -248 549 -224 q 465 -272 501 -272 m 222 1053 l 399 1221 l 531 1221 l 707 1053 l 572 1053 l 474 1154 l 456 1154 l 357 1053 l 222 1053 z "},"Ồ":{"ha":929,"x_min":83,"x_max":846,"o":"m 464 -19 q 187 81 290 -19 q 83 375 83 182 l 83 597 q 187 891 83 790 q 464 992 290 992 q 742 891 639 992 q 846 597 846 790 l 846 375 q 742 81 846 182 q 464 -19 639 -19 m 464 85 q 660 160 590 85 q 729 371 729 236 l 729 601 q 660 812 729 736 q 464 888 590 888 q 269 812 339 888 q 200 601 200 736 l 200 371 q 269 160 200 236 q 464 85 339 85 m 222 1053 l 399 1221 l 531 1221 l 707 1053 l 572 1053 l 474 1154 l 456 1154 l 357 1053 l 222 1053 m 663 1189 l 564 1363 l 682 1363 l 757 1189 l 663 1189 z "},"Ổ":{"ha":929,"x_min":83,"x_max":846,"o":"m 464 -19 q 187 81 290 -19 q 83 375 83 182 l 83 597 q 187 891 83 790 q 464 992 290 992 q 742 891 639 992 q 846 597 846 790 l 846 375 q 742 81 846 182 q 464 -19 639 -19 m 464 85 q 660 160 590 85 q 729 371 729 236 l 729 601 q 660 812 729 736 q 464 888 590 888 q 269 812 339 888 q 200 601 200 736 l 200 371 q 269 160 200 236 q 464 85 339 85 m 222 1053 l 399 1221 l 531 1221 l 707 1053 l 572 1053 l 474 1154 l 456 1154 l 357 1053 l 222 1053 m 646 1188 l 636 1292 l 688 1292 q 738 1304 721 1292 q 756 1339 756 1317 q 736 1377 756 1365 q 689 1389 717 1389 q 628 1379 656 1389 q 578 1356 601 1369 l 544 1425 q 611 1455 574 1443 q 690 1467 649 1467 q 767 1453 732 1467 q 822 1415 801 1440 q 843 1350 843 1389 q 810 1268 843 1297 q 722 1239 776 1239 l 728 1188 l 646 1188 z "},"Ỗ":{"ha":929,"x_min":83,"x_max":846,"o":"m 464 -19 q 187 81 290 -19 q 83 375 83 182 l 83 597 q 187 891 83 790 q 464 992 290 992 q 742 891 639 992 q 846 597 846 790 l 846 375 q 742 81 846 182 q 464 -19 639 -19 m 464 85 q 660 160 590 85 q 729 371 729 236 l 729 601 q 660 812 729 736 q 464 888 590 888 q 269 812 339 888 q 200 601 200 736 l 200 371 q 269 160 200 236 q 464 85 339 85 m 222 1053 l 399 1221 l 531 1221 l 707 1053 l 572 1053 l 474 1154 l 456 1154 l 357 1053 l 222 1053 m 299 1282 l 233 1326 l 278 1396 q 319 1440 296 1422 q 379 1457 343 1457 q 435 1443 411 1457 q 486 1401 460 1429 q 517 1373 504 1383 q 546 1363 529 1363 q 573 1372 563 1363 q 593 1396 583 1382 l 629 1453 l 694 1408 l 650 1339 q 610 1296 633 1314 q 550 1278 586 1278 q 493 1292 517 1278 q 443 1333 469 1306 q 413 1361 425 1351 q 383 1371 400 1371 q 356 1361 367 1371 q 335 1338 344 1351 l 299 1282 z "},"Ȍ":{"ha":929,"x_min":83,"x_max":846,"o":"m 464 -19 q 187 81 290 -19 q 83 375 83 182 l 83 597 q 187 891 83 790 q 464 992 290 992 q 742 891 639 992 q 846 597 846 790 l 846 375 q 742 81 846 182 q 464 -19 639 -19 m 464 85 q 660 160 590 85 q 729 371 729 236 l 729 601 q 660 812 729 736 q 464 888 590 888 q 269 812 339 888 q 200 601 200 736 l 200 371 q 269 160 200 236 q 464 85 339 85 m 344 1057 l 214 1225 l 346 1225 l 444 1057 l 344 1057 m 547 1057 l 442 1225 l 560 1225 l 639 1057 l 547 1057 z "},"Ȫ":{"ha":929,"x_min":83,"x_max":846,"o":"m 464 -19 q 187 81 290 -19 q 83 375 83 182 l 83 597 q 187 891 83 790 q 464 992 290 992 q 742 891 639 992 q 846 597 846 790 l 846 375 q 742 81 846 182 q 464 -19 639 -19 m 464 85 q 660 160 590 85 q 729 371 729 236 l 729 601 q 660 812 729 736 q 464 888 590 888 q 269 812 339 888 q 200 601 200 736 l 200 371 q 269 160 200 236 q 464 85 339 85 m 603 1056 q 543 1078 567 1056 q 519 1138 519 1101 q 543 1197 519 1175 q 603 1219 567 1219 q 662 1197 639 1219 q 685 1138 685 1175 q 662 1078 685 1101 q 603 1056 639 1056 m 328 1056 q 268 1078 292 1056 q 244 1138 244 1101 q 268 1197 244 1175 q 328 1219 292 1219 q 388 1197 364 1219 q 411 1138 411 1175 q 388 1078 411 1101 q 328 1056 364 1056 m 250 1296 l 250 1386 l 678 1386 l 678 1296 l 250 1296 z "},"Ȱ":{"ha":929,"x_min":83,"x_max":846,"o":"m 464 -19 q 187 81 290 -19 q 83 375 83 182 l 83 597 q 187 891 83 790 q 464 992 290 992 q 742 891 639 992 q 846 597 846 790 l 846 375 q 742 81 846 182 q 464 -19 639 -19 m 464 85 q 660 160 590 85 q 729 371 729 236 l 729 601 q 660 812 729 736 q 464 888 590 888 q 269 812 339 888 q 200 601 200 736 l 200 371 q 269 160 200 236 q 464 85 339 85 m 465 1056 q 405 1079 429 1056 q 381 1139 381 1103 q 405 1199 381 1176 q 465 1222 429 1222 q 525 1199 501 1222 q 549 1139 549 1176 q 525 1079 549 1103 q 465 1056 501 1056 m 250 1282 l 250 1372 l 678 1372 l 678 1282 l 250 1282 z "},"Ọ":{"ha":929,"x_min":83,"x_max":846,"o":"m 464 -19 q 187 81 290 -19 q 83 375 83 182 l 83 597 q 187 891 83 790 q 464 992 290 992 q 742 891 639 992 q 846 597 846 790 l 846 375 q 742 81 846 182 q 464 -19 639 -19 m 464 85 q 660 160 590 85 q 729 371 729 236 l 729 601 q 660 812 729 736 q 464 888 590 888 q 269 812 339 888 q 200 601 200 736 l 200 371 q 269 160 200 236 q 464 85 339 85 m 465 -272 q 405 -248 429 -272 q 381 -187 381 -224 q 405 -128 381 -151 q 465 -104 429 -104 q 525 -128 501 -104 q 549 -187 549 -151 q 525 -248 549 -224 q 465 -272 501 -272 z "},"Ω":{"ha":861,"x_min":74,"x_max":788,"o":"m 74 0 l 74 99 l 221 99 l 221 117 q 127 213 164 149 q 90 385 90 278 l 90 606 q 128 810 90 724 q 242 944 167 897 q 431 992 318 992 q 619 944 543 992 q 733 810 694 897 q 771 606 771 724 l 771 385 q 735 213 771 278 q 642 117 699 149 l 642 99 l 788 99 l 788 0 l 489 0 l 489 115 q 593 172 556 135 q 646 265 631 210 q 661 394 661 321 l 661 604 q 602 815 661 739 q 431 890 543 890 q 260 815 319 890 q 200 604 200 739 l 200 394 q 215 265 200 321 q 269 172 231 210 q 372 115 307 135 l 372 0 l 74 0 z "},"Ỏ":{"ha":929,"x_min":83,"x_max":846,"o":"m 464 -19 q 187 81 290 -19 q 83 375 83 182 l 83 597 q 187 891 83 790 q 464 992 290 992 q 742 891 639 992 q 846 597 846 790 l 846 375 q 742 81 846 182 q 464 -19 639 -19 m 464 85 q 660 160 590 85 q 729 371 729 236 l 729 601 q 660 812 729 736 q 464 888 590 888 q 269 812 339 888 q 200 601 200 736 l 200 371 q 269 160 200 236 q 464 85 339 85 m 431 1039 l 421 1143 l 472 1143 q 523 1156 506 1143 q 540 1192 540 1168 q 521 1230 540 1218 q 474 1242 501 1242 q 413 1231 440 1242 q 363 1207 386 1221 l 329 1276 q 396 1306 358 1294 q 475 1318 433 1318 q 551 1305 517 1318 q 607 1267 586 1292 q 628 1201 628 1242 q 594 1119 628 1149 q 507 1090 561 1090 l 513 1039 l 431 1039 z "},"Ơ":{"ha":936,"x_min":83,"x_max":894,"o":"m 464 -19 q 187 81 290 -19 q 83 375 83 182 l 83 597 q 187 891 83 790 q 464 992 290 992 q 742 891 639 992 q 846 597 846 790 l 846 375 q 742 81 846 182 q 464 -19 639 -19 m 464 85 q 660 160 590 85 q 729 371 729 236 l 729 601 q 660 812 729 736 q 464 888 590 888 q 269 812 339 888 q 200 601 200 736 l 200 371 q 269 160 200 236 q 464 85 339 85 m 715 842 l 675 915 q 763 941 735 917 q 792 1036 792 965 l 792 1089 l 894 1089 l 894 1032 q 874 919 894 961 q 814 858 854 876 q 715 842 774 840 z "},"Ớ":{"ha":936,"x_min":83,"x_max":894,"o":"m 464 -19 q 187 81 290 -19 q 83 375 83 182 l 83 597 q 187 891 83 790 q 464 992 290 992 q 742 891 639 992 q 846 597 846 790 l 846 375 q 742 81 846 182 q 464 -19 639 -19 m 464 85 q 660 160 590 85 q 729 371 729 236 l 729 601 q 660 812 729 736 q 464 888 590 888 q 269 812 339 888 q 200 601 200 736 l 200 371 q 269 160 200 236 q 464 85 339 85 m 715 842 l 675 915 q 763 941 735 917 q 792 1036 792 965 l 792 1089 l 894 1089 l 894 1032 q 874 919 894 961 q 814 858 854 876 q 715 842 774 840 m 386 1053 l 479 1221 l 615 1221 l 493 1053 l 386 1053 z "},"Ợ":{"ha":936,"x_min":83,"x_max":894,"o":"m 464 -19 q 187 81 290 -19 q 83 375 83 182 l 83 597 q 187 891 83 790 q 464 992 290 992 q 742 891 639 992 q 846 597 846 790 l 846 375 q 742 81 846 182 q 464 -19 639 -19 m 464 85 q 660 160 590 85 q 729 371 729 236 l 729 601 q 660 812 729 736 q 464 888 590 888 q 269 812 339 888 q 200 601 200 736 l 200 371 q 269 160 200 236 q 464 85 339 85 m 715 842 l 675 915 q 763 941 735 917 q 792 1036 792 965 l 792 1089 l 894 1089 l 894 1032 q 874 919 894 961 q 814 858 854 876 q 715 842 774 840 m 465 -272 q 405 -248 429 -272 q 381 -187 381 -224 q 405 -128 381 -151 q 465 -104 429 -104 q 525 -128 501 -104 q 549 -187 549 -151 q 525 -248 549 -224 q 465 -272 501 -272 z "},"Ờ":{"ha":936,"x_min":83,"x_max":894,"o":"m 464 -19 q 187 81 290 -19 q 83 375 83 182 l 83 597 q 187 891 83 790 q 464 992 290 992 q 742 891 639 992 q 846 597 846 790 l 846 375 q 742 81 846 182 q 464 -19 639 -19 m 464 85 q 660 160 590 85 q 729 371 729 236 l 729 601 q 660 812 729 736 q 464 888 590 888 q 269 812 339 888 q 200 601 200 736 l 200 371 q 269 160 200 236 q 464 85 339 85 m 715 842 l 675 915 q 763 941 735 917 q 792 1036 792 965 l 792 1089 l 894 1089 l 894 1032 q 874 919 894 961 q 814 858 854 876 q 715 842 774 840 m 436 1057 l 313 1225 l 449 1225 l 542 1057 l 436 1057 z "},"Ở":{"ha":936,"x_min":83,"x_max":894,"o":"m 464 -19 q 187 81 290 -19 q 83 375 83 182 l 83 597 q 187 891 83 790 q 464 992 290 992 q 742 891 639 992 q 846 597 846 790 l 846 375 q 742 81 846 182 q 464 -19 639 -19 m 464 85 q 660 160 590 85 q 729 371 729 236 l 729 601 q 660 812 729 736 q 464 888 590 888 q 269 812 339 888 q 200 601 200 736 l 200 371 q 269 160 200 236 q 464 85 339 85 m 715 842 l 675 915 q 763 941 735 917 q 792 1036 792 965 l 792 1089 l 894 1089 l 894 1032 q 874 919 894 961 q 814 858 854 876 q 715 842 774 840 m 431 1039 l 421 1143 l 472 1143 q 523 1156 506 1143 q 540 1192 540 1168 q 521 1230 540 1218 q 474 1242 501 1242 q 413 1231 440 1242 q 363 1207 386 1221 l 329 1276 q 396 1306 358 1294 q 475 1318 433 1318 q 551 1305 517 1318 q 607 1267 586 1292 q 628 1201 628 1242 q 594 1119 628 1149 q 507 1090 561 1090 l 513 1039 l 431 1039 z "},"Ỡ":{"ha":936,"x_min":83,"x_max":894,"o":"m 464 -19 q 187 81 290 -19 q 83 375 83 182 l 83 597 q 187 891 83 790 q 464 992 290 992 q 742 891 639 992 q 846 597 846 790 l 846 375 q 742 81 846 182 q 464 -19 639 -19 m 464 85 q 660 160 590 85 q 729 371 729 236 l 729 601 q 660 812 729 736 q 464 888 590 888 q 269 812 339 888 q 200 601 200 736 l 200 371 q 269 160 200 236 q 464 85 339 85 m 715 842 l 675 915 q 763 941 735 917 q 792 1036 792 965 l 792 1089 l 894 1089 l 894 1032 q 874 919 894 961 q 814 858 854 876 q 715 842 774 840 m 299 1053 l 233 1097 l 278 1167 q 319 1210 296 1193 q 379 1228 343 1228 q 435 1214 411 1228 q 486 1172 460 1200 q 517 1144 504 1154 q 546 1133 529 1133 q 573 1143 563 1133 q 593 1167 583 1153 l 629 1224 l 694 1179 l 650 1110 q 610 1067 633 1085 q 550 1049 586 1049 q 493 1063 517 1049 q 443 1104 469 1076 q 413 1132 425 1122 q 383 1142 400 1142 q 356 1132 367 1142 q 335 1108 344 1122 l 299 1053 z "},"Ȏ":{"ha":929,"x_min":83,"x_max":846,"o":"m 464 -19 q 187 81 290 -19 q 83 375 83 182 l 83 597 q 187 891 83 790 q 464 992 290 992 q 742 891 639 992 q 846 597 846 790 l 846 375 q 742 81 846 182 q 464 -19 639 -19 m 464 85 q 660 160 590 85 q 729 371 729 236 l 729 601 q 660 812 729 736 q 464 888 590 888 q 269 812 339 888 q 200 601 200 736 l 200 371 q 269 160 200 236 q 464 85 339 85 m 260 1064 l 260 1072 q 316 1209 260 1161 q 464 1257 372 1257 q 611 1209 556 1257 q 667 1072 667 1161 l 667 1064 l 569 1064 l 569 1071 q 544 1147 569 1117 q 464 1176 518 1176 q 383 1147 410 1176 q 357 1071 357 1117 l 357 1064 l 260 1064 z "},"Ṓ":{"ha":929,"x_min":83,"x_max":846,"o":"m 464 -19 q 187 81 290 -19 q 83 375 83 182 l 83 597 q 187 891 83 790 q 464 992 290 992 q 742 891 639 992 q 846 597 846 790 l 846 375 q 742 81 846 182 q 464 -19 639 -19 m 464 85 q 660 160 590 85 q 729 371 729 236 l 729 601 q 660 812 729 736 q 464 888 590 888 q 269 812 339 888 q 200 601 200 736 l 200 371 q 269 160 200 236 q 464 85 339 85 m 250 1071 l 250 1161 l 678 1161 l 678 1071 l 250 1071 m 386 1247 l 479 1415 l 615 1415 l 493 1247 l 386 1247 z "},"Ṑ":{"ha":929,"x_min":83,"x_max":846,"o":"m 464 -19 q 187 81 290 -19 q 83 375 83 182 l 83 597 q 187 891 83 790 q 464 992 290 992 q 742 891 639 992 q 846 597 846 790 l 846 375 q 742 81 846 182 q 464 -19 639 -19 m 464 85 q 660 160 590 85 q 729 371 729 236 l 729 601 q 660 812 729 736 q 464 888 590 888 q 269 812 339 888 q 200 601 200 736 l 200 371 q 269 160 200 236 q 464 85 339 85 m 250 1071 l 250 1161 l 678 1161 l 678 1071 l 250 1071 m 436 1251 l 313 1419 l 449 1419 l 542 1251 l 436 1251 z "},"Ǫ":{"ha":929,"x_min":83,"x_max":846,"o":"m 464 -19 q 187 81 290 -19 q 83 375 83 182 l 83 597 q 187 891 83 790 q 464 992 290 992 q 742 891 639 992 q 846 597 846 790 l 846 375 q 742 81 846 182 q 464 -19 639 -19 m 464 85 q 660 160 590 85 q 729 371 729 236 l 729 601 q 660 812 729 736 q 464 888 590 888 q 269 812 339 888 q 200 601 200 736 l 200 371 q 269 160 200 236 q 464 85 339 85 m 517 -228 q 445 -204 472 -228 q 418 -137 418 -181 q 422 -97 418 -118 q 431 -54 425 -76 l 447 19 l 529 19 l 513 -78 q 509 -98 511 -90 q 507 -115 507 -106 q 538 -143 507 -143 l 596 -143 l 596 -228 l 517 -228 z "},"Ǿ":{"ha":929,"x_min":83,"x_max":846,"o":"m 464 -19 q 187 81 290 -19 q 83 375 83 182 l 83 597 q 187 891 83 790 q 464 992 290 992 q 742 891 639 992 q 846 597 846 790 l 846 375 q 742 81 846 182 q 464 -19 639 -19 m 464 85 q 660 160 590 85 q 729 371 729 236 l 729 601 q 660 812 729 736 q 464 888 590 888 q 269 812 339 888 q 200 601 200 736 l 200 371 q 269 160 200 236 q 464 85 339 85 m 275 -121 l 194 -89 l 656 1076 l 735 1044 l 275 -121 m 386 1053 l 479 1221 l 615 1221 l 493 1053 l 386 1053 z "},"Ṍ":{"ha":929,"x_min":83,"x_max":846,"o":"m 464 -19 q 187 81 290 -19 q 83 375 83 182 l 83 597 q 187 891 83 790 q 464 992 290 992 q 742 891 639 992 q 846 597 846 790 l 846 375 q 742 81 846 182 q 464 -19 639 -19 m 464 85 q 660 160 590 85 q 729 371 729 236 l 729 601 q 660 812 729 736 q 464 888 590 888 q 269 812 339 888 q 200 601 200 736 l 200 371 q 269 160 200 236 q 464 85 339 85 m 299 1053 l 233 1097 l 278 1167 q 319 1210 296 1193 q 379 1228 343 1228 q 435 1214 411 1228 q 486 1172 460 1200 q 517 1144 504 1154 q 546 1133 529 1133 q 573 1143 563 1133 q 593 1167 583 1153 l 629 1224 l 694 1179 l 650 1110 q 610 1067 633 1085 q 550 1049 586 1049 q 493 1063 517 1049 q 443 1104 469 1076 q 413 1132 425 1122 q 383 1142 400 1142 q 356 1132 367 1142 q 335 1108 344 1122 l 299 1053 m 386 1272 l 479 1440 l 615 1440 l 493 1272 l 386 1272 z "},"Ṏ":{"ha":929,"x_min":83,"x_max":846,"o":"m 464 -19 q 187 81 290 -19 q 83 375 83 182 l 83 597 q 187 891 83 790 q 464 992 290 992 q 742 891 639 992 q 846 597 846 790 l 846 375 q 742 81 846 182 q 464 -19 639 -19 m 464 85 q 660 160 590 85 q 729 371 729 236 l 729 601 q 660 812 729 736 q 464 888 590 888 q 269 812 339 888 q 200 601 200 736 l 200 371 q 269 160 200 236 q 464 85 339 85 m 299 1053 l 233 1097 l 278 1167 q 319 1210 296 1193 q 379 1228 343 1228 q 435 1214 411 1228 q 486 1172 460 1200 q 517 1144 504 1154 q 546 1133 529 1133 q 573 1143 563 1133 q 593 1167 583 1153 l 629 1224 l 694 1179 l 650 1110 q 610 1067 633 1085 q 550 1049 586 1049 q 493 1063 517 1049 q 443 1104 469 1076 q 413 1132 425 1122 q 383 1142 400 1142 q 356 1132 367 1142 q 335 1108 344 1122 l 299 1053 m 603 1275 q 543 1298 567 1275 q 519 1357 519 1321 q 543 1417 519 1394 q 603 1439 567 1439 q 662 1417 639 1439 q 685 1357 685 1394 q 662 1298 685 1321 q 603 1275 639 1275 m 328 1275 q 268 1298 292 1275 q 244 1357 244 1321 q 268 1417 244 1394 q 328 1439 292 1439 q 388 1417 364 1439 q 411 1357 411 1394 q 388 1298 411 1321 q 328 1275 364 1275 z "},"Ȭ":{"ha":929,"x_min":83,"x_max":846,"o":"m 464 -19 q 187 81 290 -19 q 83 375 83 182 l 83 597 q 187 891 83 790 q 464 992 290 992 q 742 891 639 992 q 846 597 846 790 l 846 375 q 742 81 846 182 q 464 -19 639 -19 m 464 85 q 660 160 590 85 q 729 371 729 236 l 729 601 q 660 812 729 736 q 464 888 590 888 q 269 812 339 888 q 200 601 200 736 l 200 371 q 269 160 200 236 q 464 85 339 85 m 299 1053 l 233 1097 l 278 1167 q 319 1210 296 1193 q 379 1228 343 1228 q 435 1214 411 1228 q 486 1172 460 1200 q 517 1144 504 1154 q 546 1133 529 1133 q 573 1143 563 1133 q 593 1167 583 1153 l 629 1224 l 694 1179 l 650 1110 q 610 1067 633 1085 q 550 1049 586 1049 q 493 1063 517 1049 q 443 1104 469 1076 q 413 1132 425 1122 q 383 1142 400 1142 q 356 1132 367 1142 q 335 1108 344 1122 l 299 1053 m 250 1290 l 250 1381 l 678 1381 l 678 1290 l 250 1290 z "},"Ŗ":{"ha":876,"x_min":111,"x_max":810,"o":"m 111 0 l 111 972 l 504 972 q 663 941 594 972 q 771 852 732 910 q 810 714 810 794 l 810 699 q 764 547 810 603 q 656 472 718 492 l 656 453 q 738 420 706 451 q 771 326 771 389 l 771 0 l 656 0 l 656 313 q 633 376 656 354 q 564 399 610 399 l 228 399 l 228 0 l 111 0 m 228 504 l 493 504 q 641 551 589 504 q 693 681 693 597 l 693 690 q 642 820 693 774 q 493 867 590 867 l 228 867 l 228 504 m 375 -364 l 375 -303 l 407 -303 q 444 -292 433 -303 q 454 -258 454 -282 l 454 -237 l 439 -237 q 382 -217 404 -237 q 360 -161 360 -196 q 382 -106 360 -128 q 440 -85 404 -85 q 498 -108 475 -85 q 521 -172 521 -131 l 521 -260 q 494 -338 521 -312 q 413 -364 468 -364 l 375 -364 z "},"Ȑ":{"ha":876,"x_min":111,"x_max":810,"o":"m 111 0 l 111 972 l 504 972 q 663 941 594 972 q 771 852 732 910 q 810 714 810 794 l 810 699 q 764 547 810 603 q 656 472 718 492 l 656 453 q 738 420 706 451 q 771 326 771 389 l 771 0 l 656 0 l 656 313 q 633 376 656 354 q 564 399 610 399 l 228 399 l 228 0 l 111 0 m 228 504 l 493 504 q 641 551 589 504 q 693 681 693 597 l 693 690 q 642 820 693 774 q 493 867 590 867 l 228 867 l 228 504 m 307 1057 l 176 1225 l 308 1225 l 407 1057 l 307 1057 m 510 1057 l 404 1225 l 522 1225 l 601 1057 l 510 1057 z "},"Ṛ":{"ha":876,"x_min":111,"x_max":810,"o":"m 111 0 l 111 972 l 504 972 q 663 941 594 972 q 771 852 732 910 q 810 714 810 794 l 810 699 q 764 547 810 603 q 656 472 718 492 l 656 453 q 738 420 706 451 q 771 326 771 389 l 771 0 l 656 0 l 656 313 q 633 376 656 354 q 564 399 610 399 l 228 399 l 228 0 l 111 0 m 228 504 l 493 504 q 641 551 589 504 q 693 681 693 597 l 693 690 q 642 820 693 774 q 493 867 590 867 l 228 867 l 228 504 m 442 -272 q 381 -248 406 -272 q 357 -187 357 -224 q 381 -128 357 -151 q 442 -104 406 -104 q 501 -128 478 -104 q 525 -187 525 -151 q 501 -248 525 -224 q 442 -272 478 -272 z "},"Ȓ":{"ha":876,"x_min":111,"x_max":810,"o":"m 111 0 l 111 972 l 504 972 q 663 941 594 972 q 771 852 732 910 q 810 714 810 794 l 810 699 q 764 547 810 603 q 656 472 718 492 l 656 453 q 738 420 706 451 q 771 326 771 389 l 771 0 l 656 0 l 656 313 q 633 376 656 354 q 564 399 610 399 l 228 399 l 228 0 l 111 0 m 228 504 l 493 504 q 641 551 589 504 q 693 681 693 597 l 693 690 q 642 820 693 774 q 493 867 590 867 l 228 867 l 228 504 m 222 1064 l 222 1072 q 278 1209 222 1161 q 426 1257 335 1257 q 574 1209 518 1257 q 629 1072 629 1161 l 629 1064 l 532 1064 l 532 1071 q 506 1147 532 1117 q 426 1176 481 1176 q 346 1147 372 1176 q 319 1071 319 1117 l 319 1064 l 222 1064 z "},"Ṟ":{"ha":876,"x_min":111,"x_max":810,"o":"m 111 0 l 111 972 l 504 972 q 663 941 594 972 q 771 852 732 910 q 810 714 810 794 l 810 699 q 764 547 810 603 q 656 472 718 492 l 656 453 q 738 420 706 451 q 771 326 771 389 l 771 0 l 656 0 l 656 313 q 633 376 656 354 q 564 399 610 399 l 228 399 l 228 0 l 111 0 m 228 504 l 493 504 q 641 551 589 504 q 693 681 693 597 l 693 690 q 642 820 693 774 q 493 867 590 867 l 228 867 l 228 504 m 226 -211 l 226 -119 l 654 -119 l 654 -211 l 226 -211 z "},"Ṥ":{"ha":851,"x_min":67,"x_max":783,"o":"m 435 -19 q 246 18 329 -19 q 115 131 163 56 q 67 321 67 207 l 67 350 l 182 350 l 182 321 q 253 141 182 200 q 435 82 324 82 q 608 133 549 82 q 668 263 668 185 q 641 349 668 317 q 565 401 614 381 q 451 436 517 421 l 379 454 q 229 508 294 476 q 127 592 164 540 q 90 726 90 644 q 131 868 90 808 q 247 960 172 928 q 418 992 321 992 q 595 958 517 992 q 719 858 674 924 q 764 692 764 792 l 764 633 l 649 633 l 649 692 q 619 806 649 763 q 537 869 589 849 q 418 890 485 890 q 264 848 322 890 q 206 728 206 806 q 231 644 206 676 q 301 592 256 613 q 411 557 347 572 l 483 539 q 635 490 568 521 q 743 405 703 458 q 783 265 783 351 q 740 115 783 179 q 619 16 697 51 q 435 -19 540 -19 m 461 1056 l 554 1224 l 690 1224 l 568 1056 l 461 1056 m 310 1056 q 249 1079 274 1056 q 225 1139 225 1103 q 249 1199 225 1176 q 310 1222 274 1222 q 369 1199 346 1222 q 393 1139 393 1176 q 369 1079 393 1103 q 310 1056 346 1056 z "},"Ṧ":{"ha":851,"x_min":67,"x_max":783,"o":"m 435 -19 q 246 18 329 -19 q 115 131 163 56 q 67 321 67 207 l 67 350 l 182 350 l 182 321 q 253 141 182 200 q 435 82 324 82 q 608 133 549 82 q 668 263 668 185 q 641 349 668 317 q 565 401 614 381 q 451 436 517 421 l 379 454 q 229 508 294 476 q 127 592 164 540 q 90 726 90 644 q 131 868 90 808 q 247 960 172 928 q 418 992 321 992 q 595 958 517 992 q 719 858 674 924 q 764 692 764 792 l 764 633 l 649 633 l 649 692 q 619 806 649 763 q 537 869 589 849 q 418 890 485 890 q 264 848 322 890 q 206 728 206 806 q 231 644 206 676 q 301 592 256 613 q 411 557 347 572 l 483 539 q 635 490 568 521 q 743 405 703 458 q 783 265 783 351 q 740 115 783 179 q 619 16 697 51 q 435 -19 540 -19 m 358 1053 l 182 1221 l 317 1221 l 415 1119 l 433 1119 l 532 1221 l 667 1221 l 490 1053 l 358 1053 m 425 1256 q 365 1279 389 1256 q 340 1339 340 1303 q 365 1399 340 1376 q 425 1422 389 1422 q 485 1399 461 1422 q 508 1339 508 1376 q 485 1279 508 1303 q 425 1256 461 1256 z "},"Ə":{"ha":901,"x_min":83,"x_max":818,"o":"m 450 -19 q 180 76 276 -19 q 83 353 83 172 l 83 503 l 703 503 l 703 397 l 199 397 l 199 347 q 260 153 199 222 q 450 85 321 85 q 642 153 581 85 q 703 347 703 222 l 703 628 q 641 819 703 751 q 450 888 579 888 q 260 820 322 888 q 199 635 199 753 l 199 626 l 83 626 l 83 632 q 180 898 83 804 q 450 992 276 992 q 722 897 626 992 q 818 625 818 803 l 818 353 q 722 76 818 172 q 450 -19 625 -19 z "},"Ș":{"ha":851,"x_min":67,"x_max":783,"o":"m 435 -19 q 246 18 329 -19 q 115 131 163 56 q 67 321 67 207 l 67 350 l 182 350 l 182 321 q 253 141 182 200 q 435 82 324 82 q 608 133 549 82 q 668 263 668 185 q 641 349 668 317 q 565 401 614 381 q 451 436 517 421 l 379 454 q 229 508 294 476 q 127 592 164 540 q 90 726 90 644 q 131 868 90 808 q 247 960 172 928 q 418 992 321 992 q 595 958 517 992 q 719 858 674 924 q 764 692 764 792 l 764 633 l 649 633 l 649 692 q 619 806 649 763 q 537 869 589 849 q 418 890 485 890 q 264 848 322 890 q 206 728 206 806 q 231 644 206 676 q 301 592 256 613 q 411 557 347 572 l 483 539 q 635 490 568 521 q 743 405 703 458 q 783 265 783 351 q 740 115 783 179 q 619 16 697 51 q 435 -19 540 -19 m 378 -364 l 378 -303 l 410 -303 q 447 -292 436 -303 q 457 -258 457 -282 l 457 -237 l 442 -237 q 385 -217 407 -237 q 363 -161 363 -196 q 385 -106 363 -128 q 443 -85 407 -85 q 501 -108 478 -85 q 524 -172 524 -131 l 524 -260 q 497 -338 524 -312 q 415 -364 471 -364 l 378 -364 z "},"Ṡ":{"ha":851,"x_min":67,"x_max":783,"o":"m 435 -19 q 246 18 329 -19 q 115 131 163 56 q 67 321 67 207 l 67 350 l 182 350 l 182 321 q 253 141 182 200 q 435 82 324 82 q 608 133 549 82 q 668 263 668 185 q 641 349 668 317 q 565 401 614 381 q 451 436 517 421 l 379 454 q 229 508 294 476 q 127 592 164 540 q 90 726 90 644 q 131 868 90 808 q 247 960 172 928 q 418 992 321 992 q 595 958 517 992 q 719 858 674 924 q 764 692 764 792 l 764 633 l 649 633 l 649 692 q 619 806 649 763 q 537 869 589 849 q 418 890 485 890 q 264 848 322 890 q 206 728 206 806 q 231 644 206 676 q 301 592 256 613 q 411 557 347 572 l 483 539 q 635 490 568 521 q 743 405 703 458 q 783 265 783 351 q 740 115 783 179 q 619 16 697 51 q 435 -19 540 -19 m 425 1056 q 365 1079 389 1056 q 340 1139 340 1103 q 365 1199 340 1176 q 425 1222 389 1222 q 485 1199 461 1222 q 508 1139 508 1176 q 485 1079 508 1103 q 425 1056 461 1056 z "},"Ṣ":{"ha":851,"x_min":67,"x_max":783,"o":"m 435 -19 q 246 18 329 -19 q 115 131 163 56 q 67 321 67 207 l 67 350 l 182 350 l 182 321 q 253 141 182 200 q 435 82 324 82 q 608 133 549 82 q 668 263 668 185 q 641 349 668 317 q 565 401 614 381 q 451 436 517 421 l 379 454 q 229 508 294 476 q 127 592 164 540 q 90 726 90 644 q 131 868 90 808 q 247 960 172 928 q 418 992 321 992 q 595 958 517 992 q 719 858 674 924 q 764 692 764 792 l 764 633 l 649 633 l 649 692 q 619 806 649 763 q 537 869 589 849 q 418 890 485 890 q 264 848 322 890 q 206 728 206 806 q 231 644 206 676 q 301 592 256 613 q 411 557 347 572 l 483 539 q 635 490 568 521 q 743 405 703 458 q 783 265 783 351 q 740 115 783 179 q 619 16 697 51 q 435 -19 540 -19 m 443 -272 q 383 -248 407 -272 q 358 -187 358 -224 q 383 -128 358 -151 q 443 -104 407 -104 q 503 -128 479 -104 q 526 -187 526 -151 q 503 -248 526 -224 q 443 -272 479 -272 z "}}}
